/* XPM */
static char *result[] = {
/* columns rows colors chars-per-pixel */
"50 50 220 2 ",
"   c #383357",
".  c #393357",
"X  c #393456",
"o  c #393457",
"O  c #3A3457",
"+  c #3A3557",
"@  c #3D3657",
"#  c #3F3757",
"$  c #383358",
"%  c #3D3858",
"&  c #3F3958",
"*  c #3F3A58",
"=  c #433957",
"-  c #483B57",
";  c #4A3C57",
":  c #4B3D57",
">  c #4C3D56",
",  c #433E59",
"<  c #503F56",
"1  c #474159",
"2  c #4A435A",
"3  c #4A445A",
"4  c #4B445A",
"5  c #4C465A",
"6  c #554256",
"7  c #584356",
"8  c #5A4456",
"9  c #5B4556",
"0  c #50495B",
"q  c #554E5C",
"w  c #58505C",
"e  c #59525C",
"r  c #5B545D",
"t  c #634956",
"y  c #634A56",
"u  c #654956",
"i  c #694B56",
"p  c #6B4D56",
"a  c #634F59",
"s  c #63555B",
"d  c #635A5E",
"f  c #645C5E",
"g  c #725055",
"h  c #7F5655",
"j  c #68605F",
"k  c #6B615E",
"l  c #716860",
"z  c #7E7462",
"x  c #855955",
"c  c #885B55",
"v  c #8A5C55",
"b  c #996354",
"n  c #9E6554",
"m  c #A06754",
"M  c #A06955",
"N  c #A36854",
"B  c #A46854",
"V  c #A66A54",
"C  c #A0775C",
"Z  c #B37054",
"A  c #BA7354",
"S  c #847A63",
"D  c #857A63",
"F  c #877C64",
"G  c #897E64",
"H  c #C17753",
"J  c #C57953",
"K  c #D07E53",
"L  c #9D8A65",
"P  c #988C66",
"I  c #9F9368",
"U  c #A08562",
"Y  c #A29166",
"T  c #A39668",
"R  c #A59869",
"E  c #B1A46B",
"W  c #B9AA6C",
"Q  c #D68153",
"!  c #D78153",
"~  c #DA8353",
"^  c #DB8353",
"/  c #DE8553",
"(  c #DE8954",
")  c #DD9F5E",
"_  c #E08653",
"`  c #E48852",
"'  c #E58852",
"]  c #E68952",
"[  c #F08E52",
"{  c #F18E52",
"}  c #F99252",
"|  c #F99352",
" . c #F99353",
".. c #F99654",
"X. c #F99754",
"o. c #F99855",
"O. c #F99955",
"+. c #F99A56",
"@. c #F99C56",
"#. c #F99D57",
"$. c #F99E57",
"%. c #F99F58",
"&. c #EFAA5F",
"*. c #F9A158",
"=. c #F9A159",
"-. c #F9A259",
";. c #F9A25A",
":. c #F9A35A",
">. c #F9A55A",
",. c #F8A75B",
"<. c #F8A95C",
"1. c #F8AA5C",
"2. c #F8AD5E",
"3. c #F8AE5E",
"4. c #F8B05F",
"5. c #C0A065",
"6. c #DFAF65",
"7. c #C4B56E",
"8. c #CEB36B",
"9. c #DDB668",
"0. c #E4B566",
"q. c #F8B160",
"w. c #F8B260",
"e. c #F8B361",
"r. c #F8B461",
"t. c #F8B561",
"y. c #F8B562",
"u. c #F8B662",
"i. c #F8B762",
"p. c #F8B862",
"a. c #F8B863",
"s. c #F8B963",
"d. c #F8BA64",
"f. c #F8BB64",
"g. c #F8BC64",
"h. c #F8BD65",
"j. c #F8BE65",
"k. c #F8BF66",
"l. c #F8BB69",
"z. c #D8C16E",
"x. c #D5C470",
"c. c #DAC971",
"v. c #DCCB72",
"b. c #F8C166",
"n. c #F8C167",
"m. c #F8C267",
"M. c #F8C367",
"N. c #F8C468",
"B. c #F8C568",
"V. c #F8C669",
"C. c #F7CE6D",
"Z. c #F7CF6D",
"A. c #F8C86A",
"S. c #F8C96A",
"D. c #F8CA6B",
"F. c #F8CB6B",
"G. c #F8CC6B",
"H. c #F8CD6C",
"J. c #F7D06D",
"K. c #F7D16E",
"L. c #F7D26E",
"P. c #F7D36E",
"I. c #F7D46F",
"U. c #E2D173",
"Y. c #E4D373",
"T. c #EFDD75",
"R. c #F7D570",
"E. c #F7D670",
"W. c #F7D770",
"Q. c #F7D870",
"!. c #F7D871",
"~. c #F7D971",
"^. c #F7DA72",
"/. c #F7DB72",
"(. c #F7DC72",
"). c #F7DD73",
"_. c #F7DE73",
"`. c #F7DF74",
"'. c #F8D378",
"]. c #F7E074",
"[. c #F7E275",
"{. c #F7E375",
"}. c #F7E376",
"|. c #F7E476",
" X c #F7E477",
".X c #F7E478",
"XX c #F7E57A",
"oX c #F7E57B",
"OX c #F7E67F",
"+X c #F8E67F",
"@X c #F9CD82",
"#X c #F8E683",
"$X c #F8E784",
"%X c #F8E787",
"&X c #F8E88A",
"*X c #F9E991",
"=X c #F9EA93",
"-X c #F9EA94",
";X c #FAE09B",
":X c #F9EB98",
">X c #F9EB9A",
",X c #F9EB9C",
"<X c #F9EC9E",
"1X c #F9EC9F",
"2X c #FAEDA2",
"3X c #FAEFAC",
"4X c #FAEFAE",
"5X c #FAEFAF",
"6X c #FAEFB0",
"7X c #FBEDBE",
"8X c #FBF0B5",
"9X c #FBF1B9",
"0X c #FCF4C9",
"qX c #FCF5CB",
"wX c #FDF7D5",
"eX c #FDF8D9",
"rX c #FDF8DB",
"tX c #FEFDF4",
"yX c #FFFDF7",
"uX c None",
/* pixels */
"uXuXuXuXuXuXuXuXuXuXuXuXuXuXuXuXuXuXuXuXuXuXuXuXuXuXuXuXuXuXuXuXuXuXuXuXuXuXuXuXuXuXuXuXuXuXuXuXuXuX",
"uXuXuXuXuXuXuXuXuXuXuXuXuXuXuXuXuXuXuXuXuXuXuXuXuXuXuXuXuXuXuXuXuXuXuXuXuXuXuXuXuXuXuXuXuXuXuXuXuXuX",
"uXuXuXuXuXuXuXuXuXuXuXuXuXuXuXuXuXuXuXuXuXuXuXuXuXuXuXuXuXuXuXuXuXuXuXuXuXuXuXuXuXuXuXuXuXuXuXuXuXuX",
"uXuXuXuXuXuXuXuXuXuXuXuXuXuXuXuXuXuXuXuXuXuXuXuXuXuXuXuXuXuXuXuXuXuXuXuXuXuXuXuXuXuXuXuXuXuXuXuXuXuX",
"uXuXuXuXuXuXuXuXuXuXuXuXuXuXuXuXuXuXuXuXuXuXuXuXuXuXuXuXuXuXuXuXuXuXuXuXuXuXuXuXuXuXuXuXuXuXuXuXuXuX",
"uXuXuXuXuXuXuXuXuXuXuXuXuXuXuXuXuXuXuXuXuXuXuXuXuXuXuXuXuXuXuXuXuXuXuXuXuXuXuXuXuXuXuXuXuXuXuXuXuXuX",
"uXuXuXuXuXuXuXuXuXuXuXuXuXuXo o o o o o o o o o o o o o o o o o o o o o uXuXuXuXuXuXuXuXuXuXuXuXuXuX",
"uXuXuXuXuXuXuXuXuXuXuXuXuXo o o o o o o o o o o o o o o o o o o o o o o o uXuXuXuXuXuXuXuXuXuXuXuXuX",
"uXuXuXuXuXuXuXuXuXuXuXuX+ o & 5 e d d d d d d d d d d s a y t t t 8 > # o + uXuXuXuXuXuXuXuXuXuXuXuX",
"uXuXuXuXuXuXuXuXuXuXuX  o o 1 j G I I I I I I I I I I U C M m m m v i - o o   uXuXuXuXuXuXuXuXuXuXuX",
"uXuXuXuXuXuXuXuXuXuXo o o o 0 S W v.v.v.v.v.v.v.v.v.v.9.) ( / / / A x < o o o o uXuXuXuXuXuXuXuXuXuX",
"uXuXuXuXuXuXuXuXuXO o * 3 q l T x.[._.~.R.R.R.E.^.`.|.J.d.>.#.o. .! B g 6 ; # o O uXuXuXuXuXuXuXuXuX",
"uXuXuXuXuXuXuXuXuXO o 3 j F R 7.U.].P.V.f.f.f.g.S.E.}.!.D.h.4.:...` J V c i ; o O uXuXuXuXuXuXuXuXuX",
"uXuXuXuXuXuXuXuXuXO o q F W c.Y.T.).A.w.*.*.*.-.p.H.{.`./.E.N.3.O.{ ] ^ A c 6 o O uXuXuXuXuXuXuXuXuX",
"uXuXuXuXuXuXuXuXuX$ o r P x.[.`./.L.k.2.$.$.$.%.w.N.W.(.].}.C.t.+.} } } Q b 9 o $ uXuXuXuXuXuXuXuXuX",
"uXuXuXuXuXuXuXuXX X X r P x.`.P.V.j.f.s.a.a.a.a.d.g.j.S.E.[.C.t.+.} } } Q b 9 X X X uXuXuXuXuXuXuXuX",
"uXuXuXuXuXuXuX. o o o r P x./.V.w.<.i.V.L.L.L.K.m.r.>.i.G.].C.t.+.} } } Q b 9 o o o . uXuXuXuXuXuXuX",
"uXuXuXuXuXuXo o % , 2 k Y z.L.j.<.;.l.'.#XOXXX[.F.e.@.3.M.!.D.u.=.o...| ~ N p ; = @ o o uXuXuXuXuXuX",
"uXuXuXuXuXuXo o 4 f z L 5.0.k.f.i.l.@X;X3X>X%X}.I.B.y.a.h.b.j.d.u.2.-.X.' H n h u : o o uXuXuXuXuXuX",
"uXuXuXuXuXuXo o w D E 8.6.&.2.s.V.'.;X7XwX8X-X}.).E.Z.M.u.1.w.j.D.n.3.+.[ _ K Z x 7 o o uXuXuXuXuXuX",
"uXuXuXuXuXuXo o d I v.R.f.*.$.a.L.$X6XrXyXqX1X|.|.|.|.F.q.X.,.n.(.L.a.$.} } } / m t o o uXuXuXuXuXuX",
"uXuXuXuXuXuXo o d I v.R.f.*.$.a.L.$X6XrXyXqX1X|.|.|.|.F.q.X.,.n.(.L.a.$.} } } / m t o o uXuXuXuXuXuX",
"uXuXuXuXuXuXo o d I v.R.f.*.$.a.L.$X6XrXyXqX1X|.|.|.|.F.q.X.,.n.(.L.a.$.} } } / m t o o uXuXuXuXuXuX",
"uXuXuXuXuXuXo o d I v.R.f.*.$.a.L.$X5XeXtX0X<X|.|.|.|.F.q.X.,.n.(.L.a.$.} } } / m t o o uXuXuXuXuXuX",
"uXuXuXuXuXuXo o d I v.R.f.*.$.a.L.+X,X9XqX4X*X|.|.|.|.F.q.X.,.n.(.L.a.$.} } } / m t o o uXuXuXuXuXuX",
"uXuXuXuXuXuXo o d I v.R.f.*.$.a.L.oX&X:X2X=X$X|.|.|.|.F.q.X.,.n.(.L.a.$.} } } / m t o o uXuXuXuXuXuX",
"uXuXuXuXuXuXo o d I v.R.f.*.$.a.L.|. X.X.X.X X|.|.|.|.F.q.X.,.n.(.L.a.$.} } } / m t o o uXuXuXuXuXuX",
"uXuXuXuXuXuXo o d I v.R.f.*.$.a.L.|.|.|.|.|.|.|.|.|.|.F.q.X.,.n.(.L.a.$.} } } / m t o o uXuXuXuXuXuX",
"uXuXuXuXuXuXo o d I v.R.f.*.$.a.L.|.|.|.|.|.|.|.|.|.|.F.q.X.,.n.(.L.a.$.} } } / m t o o uXuXuXuXuXuX",
"uXuXuXuXuXuXo o d I v.R.f.*.$.a.L.|.|.|.|.|.|.|.|.|.|.F.q.X.,.n.(.L.a.$.} } } / m t o o uXuXuXuXuXuX",
"uXuXuXuXuXuXo o w D E 8.6.&.2.s.V.K.Q._.|.|.|.}.).E.Z.M.u.1.w.j.D.n.3.+.[ _ K Z x 7 o o uXuXuXuXuXuX",
"uXuXuXuXuXuXo o 4 f z L 5.0.k.f.i.s.S.Q.|.|.|.}.I.B.y.a.h.b.j.d.u.2.-.X.' H n h u : o o uXuXuXuXuXuX",
"uXuXuXuXuXuXo o % , 2 k Y z.L.j.<.-.s.K.|.|.|.[.F.e.@.3.M.!.D.u.=.o...| ~ N p ; = @ o o uXuXuXuXuXuX",
"uXuXuXuXuXuXuX. o o o r P x./.V.w.<.i.V.L.L.L.K.m.r.>.i.G.].C.t.+.} } } Q b 9 o o o . uXuXuXuXuXuXuX",
"uXuXuXuXuXuXuXuXX X X r P x.`.P.V.j.f.s.a.a.a.a.d.g.j.S.E.[.C.t.+.} } } Q b 9 X X X uXuXuXuXuXuXuXuX",
"uXuXuXuXuXuXuXuXuX$ o r P x.[.`./.L.k.2.$.$.$.%.w.N.W.(.].}.C.t.+.} } } Q b 9 o $ uXuXuXuXuXuXuXuXuX",
"uXuXuXuXuXuXuXuXuXO o q F W c.Y.T.).A.w.*.*.*.-.p.H.{.`./.E.N.3.O.{ ] ^ A c 6 o O uXuXuXuXuXuXuXuXuX",
"uXuXuXuXuXuXuXuXuXO o 3 j F R 7.U.].P.V.f.f.f.g.S.E.}.!.D.h.4.:...` J V c i ; o O uXuXuXuXuXuXuXuXuX",
"uXuXuXuXuXuXuXuXuXO o * 3 q l T x.[._.~.R.R.R.E.^.`.|.J.d.>.#.o. .! B g 6 ; # o O uXuXuXuXuXuXuXuXuX",
"uXuXuXuXuXuXuXuXuXuXo o o o 0 S W v.v.v.v.v.v.v.v.v.v.9.) ( / / / A x < o o o o uXuXuXuXuXuXuXuXuXuX",
"uXuXuXuXuXuXuXuXuXuXuX  o o 1 j G I I I I I I I I I I U C M m m m v i - o o   uXuXuXuXuXuXuXuXuXuXuX",
"uXuXuXuXuXuXuXuXuXuXuXuX+ o & 5 e d d d d d d d d d d s a y t t t 8 > # o + uXuXuXuXuXuXuXuXuXuXuXuX",
"uXuXuXuXuXuXuXuXuXuXuXuXuXo o o o o o o o o o o o o o o o o o o o o o o o uXuXuXuXuXuXuXuXuXuXuXuXuX",
"uXuXuXuXuXuXuXuXuXuXuXuXuXuXo o o o o o o o o o o o o o o o o o o o o o uXuXuXuXuXuXuXuXuXuXuXuXuXuX",
"uXuXuXuXuXuXuXuXuXuXuXuXuXuXuXuXuXuXuXuXuXuXuXuXuXuXuXuXuXuXuXuXuXuXuXuXuXuXuXuXuXuXuXuXuXuXuXuXuXuX",
"uXuXuXuXuXuXuXuXuXuXuXuXuXuXuXuXuXuXuXuXuXuXuXuXuXuXuXuXuXuXuXuXuXuXuXuXuXuXuXuXuXuXuXuXuXuXuXuXuXuX",
"uXuXuXuXuXuXuXuXuXuXuXuXuXuXuXuXuXuXuXuXuXuXuXuXuXuXuXuXuXuXuXuXuXuXuXuXuXuXuXuXuXuXuXuXuXuXuXuXuXuX",
"uXuXuXuXuXuXuXuXuXuXuXuXuXuXuXuXuXuXuXuXuXuXuXuXuXuXuXuXuXuXuXuXuXuXuXuXuXuXuXuXuXuXuXuXuXuXuXuXuXuX",
"uXuXuXuXuXuXuXuXuXuXuXuXuXuXuXuXuXuXuXuXuXuXuXuXuXuXuXuXuXuXuXuXuXuXuXuXuXuXuXuXuXuXuXuXuXuXuXuXuXuX",
"uXuXuXuXuXuXuXuXuXuXuXuXuXuXuXuXuXuXuXuXuXuXuXuXuXuXuXuXuXuXuXuXuXuXuXuXuXuXuXuXuXuXuXuXuXuXuXuXuXuX"
};
