/* XPM */
static char *result[] = {
/* columns rows colors chars-per-pixel */
"50 50 140 2 ",
"   c #393457",
".  c #383358",
"X  c #3E3959",
"o  c #433957",
"O  c #4A3C57",
"+  c #433E59",
"@  c #503F56",
"#  c #474159",
"$  c #4B445A",
"%  c #554256",
"&  c #5A4456",
"*  c #534C5C",
"=  c #5A525D",
"-  c #634956",
";  c #6A4C56",
":  c #634F59",
">  c #63555B",
",  c #635A5E",
"<  c #725055",
"1  c #7F5655",
"2  c #6A615F",
"3  c #4A4565",
"4  c #4D4868",
"5  c #514D6B",
"6  c #5C566A",
"7  c #5B5562",
"8  c #565270",
"9  c #5B5774",
"0  c #5C5872",
"q  c #645E6F",
"w  c #635C66",
"e  c #716860",
"r  c #7E7462",
"t  c #646079",
"y  c #855955",
"u  c #895B55",
"i  c #9A6454",
"p  c #A06754",
"a  c #A36954",
"s  c #A0775C",
"d  c #B37054",
"f  c #BA7354",
"g  c #867B63",
"h  c #897E64",
"j  c #C17753",
"k  c #C57953",
"l  c #D07E53",
"z  c #9A8B66",
"x  c #9F9368",
"c  c #998F75",
"v  c #A08562",
"b  c #A29166",
"n  c #A39668",
"m  c #A59869",
"M  c #A0977B",
"N  c #B1A46B",
"B  c #B9AA6C",
"V  c #D68153",
"C  c #DD8553",
"Z  c #DE8954",
"A  c #DD9F5E",
"S  c #E08653",
"D  c #E58852",
"F  c #F18E52",
"G  c #F99353",
"H  c #F99C57",
"J  c #F99F58",
"K  c #EFAA5F",
"L  c #F9A359",
"P  c #F8AC5D",
"I  c #F8B05F",
"U  c #C0A065",
"Y  c #DFAF65",
"T  c #C4B56E",
"R  c #CEB36B",
"E  c #DDB668",
"W  c #E4B566",
"Q  c #F8B461",
"!  c #F8BA64",
"~  c #F8BB69",
"^  c #D8C16E",
"/  c #D5C470",
"(  c #DCCB72",
")  c #F8C267",
"_  c #F8C569",
"`  c #F7CE6D",
"'  c #F8CB6B",
"]  c #F7D26E",
"[  c #F9CA79",
"{  c #E3D273",
"}  c #EFDD75",
"|  c #F7D670",
" . c #F7DC72",
".. c #F8D378",
"X. c #F7E476",
"o. c #F7E57A",
"O. c #F8E67F",
"+. c #6A6781",
"@. c #736F85",
"#. c #9A938B",
"$. c #87849A",
"%. c #8A879C",
"&. c #8C899E",
"*. c #A29B92",
"=. c #9B98A1",
"-. c #A5A2AA",
";. c #A9A6AD",
":. c #D6C989",
">. c #DED190",
",. c #F9CD82",
"<. c #F9DF8F",
"1. c #FADA96",
"2. c #F8E784",
"3. c #F9E08B",
"4. c #F8E88A",
"5. c #F9EA93",
"6. c #FAE09B",
"7. c #F9EC9D",
"8. c #D8D0AD",
"9. c #C8C2B2",
"0. c #E3DCB7",
"q. c #F2E6A0",
"w. c #FAEDA2",
"e. c #FAEFAE",
"r. c #E9E1BB",
"t. c #FBEDB2",
"y. c #FBEDBE",
"u. c #FBF0B5",
"i. c #FBF1B9",
"p. c #BEBDC8",
"a. c #DAD7CE",
"s. c #DAD7D1",
"d. c #DFDDD5",
"f. c #FCF5CB",
"g. c #E2E0DB",
"h. c #FDF7D5",
"j. c #FDF6DA",
"k. c #FDF8DB",
"l. c #FFFDF6",
"z. c None",
/* pixels */
"z.z.z.z.z.z.z.z.z.z.z.z.z.z.z.z.z.z.z.z.z.z.z.z.z.z.z.z.z.z.z.z.z.z.z.z.z.z.z.z.z.z.z.z.z.z.z.z.z.z.",
"z.z.z.z.z.z.z.z.z.z.z.z.z.z.z.z.z.z.z.z.z.z.z.z.z.z.z.z.z.z.z.z.z.z.z.z.z.z.z.z.z.z.z.z.z.z.z.z.z.z.",
"z.z.z.z.z.z.z.z.z.z.z.z.z.z.z.z.z.z.z.z.z.z.z.z.z.z.z.z.z.z.z.z.z.z.z.z.z.z.z.z.z.z.z.z.z.z.z.z.z.z.",
"z.z.z.z.z.z.z.z.z.z.z.z.z.z.z.z.z.z.z.z.z.z.z.z.z.z.z.z.z.z.z.z.z.z.z.z.z.z.z.z.z.z.z.z.z.z.z.z.z.z.",
"z.z.z.z.z.z.z.z.z.z.z.z.z.z.z.z.z.z.z.z.z.z.z.z.z.z.z.z.z.z.z.z.z.z.z.z.z.z.z.z.z.z.z.z.z.z.z.z.z.z.",
"z.z.z.z.z.z.z.z.z.z.z.z.z.z.z.z.z.z.z.z.z.z.z.z.z.z.z.z.z.z.z.z.z.z.z.z.z.z.z.z.z.z.z.z.z.z.z.z.z.z.",
"z.z.z.z.z.z.z.z.z.z.z.z.z.z.                                            z.z.z.z.z.z.z.z.z.z.z.z.z.z.",
"z.z.z.z.z.z.z.z.z.z.z.z.z.    .                                           z.z.z.z.z.z.z.z.z.z.z.z.z.",
"z.z.z.z.z.z.z.z.z.z.z.z.. . o 4 9 t q w , , , , w , , > : - - - - & O o .   z.z.z.z.z.z.z.z.z.z.z.z.",
"z.z.z.z.z.z.z.z.z.z.z.. . . 3 +.&.-.*.M x x x n x x x v s p p i p u ; O     . z.z.z.z.z.z.z.z.z.z.z.",
"z.z.z.z.z.z.z.z.z.z.    . . 5 $.p.d.0.>.( ( ( ( ( ( ( E A S S Z S f y %         z.z.z.z.z.z.z.z.z.z.",
"z.z.z.z.z.z.z.z.z.    X 3 6 @.;.s.k.t.3.| ] | | | X.X.` ! L L G G V p < % O X . X z.z.z.z.z.z.z.z.z.",
"z.z.z.z.z.z.z.z.z.    3 +.%.;.9.0.t.1.[ I ! ! ! _ | X.| ' ! I L G D k a u ; O . . z.z.z.z.z.z.z.z.z.",
"z.z.z.z.z.z.z.z.z.    8 %.p.g.0.q.3.[ ~ L L L L ! ' X.X. .| _ I H F D C f u % .   z.z.z.z.z.z.z.z.z.",
"z.z.z.z.z.z.z.z.z.    0 =.s.k.t.3.] ~ P L H H L I _ |  .X.X.` Q G G G G l i & X . z.z.z.z.z.z.z.z.z.",
"z.z.z.z.z.z.z.z.      6 #.8.t.1.[ ! ! ! ! ! I ! ! ! ) _ | X.` Q G G G G V i &       z.z.z.z.z.z.z.z.",
"z.z.z.z.z.z.z.        = c :.3.[ ~ P Q _ ] ] ] ] ) Q L ! ` X.` I H G G G l p @         z.z.z.z.z.z.z.",
"z.z.z.z.z.z.    X + $ 2 b ^ ] ! L L ~ ..2.o.o.X.' Q H P ) ] ' ! L H G G l a ; O O       z.z.z.z.z.z.",
"z.z.z.z.z.z.    $ , r z U W ) ! ! ~ ,.1.e.7.4.X.] _ Q ! ! ) ! ! Q P L G F j p y - O     z.z.z.z.z.z.",
"z.z.z.z.z.z.    = g N R W K I ! _ ..1.f.h.u.5.X. .| ] ) ! P I ) ' ) I H F S l d y &     z.z.z.z.z.z.",
"z.z.z.z.z.z.    , x ( ] ) L H ! ] 2.e.k.l.f.7.X.X.X.X.' I G P )  .] Q H G G G D a -   . z.z.z.z.z.z.",
"z.z.z.z.z.z.    , x ( ] I L H I ] 2.u.k.l.f.w.X.X.X.X.' I G P )  .] ! L G G G l p -     z.z.z.z.z.z.",
"z.z.z.z.z.z.    , x ( | ! L L ! ] 2.e.k.l.f.7.X.X.X.X.` I H L )  .] I H G G G D p - .   z.z.z.z.z.z.",
"z.z.z.z.z.z.    , x ( | ! L H ! ] 2.u.h.l.f.7.X.X.X.X.` I G L )  .] Q G G G G D p - .   z.z.z.z.z.z.",
"z.z.z.z.z.z.    , x ( | ! L H I | O.7.i.f.e.5.X.X.X.X.' I H P )  .| ! H G G G l p -     z.z.z.z.z.z.",
"z.z.z.z.z.z.    , x ( | ! L L ! | X.4.7.w.5.2.X.X.X.X.' Q G L )  .` ! H G G G C p -     z.z.z.z.z.z.",
"z.z.z.z.z.z.    , x ( | ! L H ! ] X.X.o.X.o.o.X.X.X.X.` I G P !  .| ! H G G G C p -     z.z.z.z.z.z.",
"z.z.z.z.z.z.    , x ( ] ! L H I ] X.X.X.X.X.X.X.X.X.X.' Q G P )  .` Q L G G G C p -     z.z.z.z.z.z.",
"z.z.z.z.z.z.    , x ( ] I H L ! ] X.X.X.X.X.X.X.X.X.X.' I H L )  .` ! H G G G C p - .   z.z.z.z.z.z.",
"z.z.z.z.z.z.    , x ( ] ) L L ! ] X.X.X.X.X.X.X.X.X.X.` Q G P )  .` ! H G G G S p -     z.z.z.z.z.z.",
"z.z.z.z.z.z.    = g N R Y K I I _ |  .X.X.X.X.X. .| ] ) I P I ! ' ) P H F S l d y &     z.z.z.z.z.z.",
"z.z.z.z.z.z.    # , g z U W ) ) I I ' | X.X.X.X.] _ Q ! ! ) ) ! Q P L G D j i 1 - O     z.z.z.z.z.z.",
"z.z.z.z.z.z.    X + $ 2 b ^ | ! P L ! ] X.X.X.X.' Q H P _ | ' ! L G G G V a ; O o X     z.z.z.z.z.z.",
"z.z.z.z.z.z.z.    .   = z /  .' I P Q _ ] ] ] ] ) Q L Q '  .` I H G G G V i &       . z.z.z.z.z.z.z.",
"z.z.z.z.z.z.z.z.      = z /  .| ' ! ! ! ! ! ! ! ! ! ) ' | X.' ! G G G G V i &     . z.z.z.z.z.z.z.z.",
"z.z.z.z.z.z.z.z.z..   = z / X. . .] ! P H H H H Q ) ]  .X.X.` I H G G G V i &     z.z.z.z.z.z.z.z.z.",
"z.z.z.z.z.z.z.z.z.    * g B ( { }  ._ Q L L L L ! ` X.X.| ] _ P H F D C f u %     z.z.z.z.z.z.z.z.z.",
"z.z.z.z.z.z.z.z.z.    $ 2 g m T { X.] _ ! ! ! ! ` ] X.| ' ) I P G D k a u ; O     z.z.z.z.z.z.z.z.z.",
"z.z.z.z.z.z.z.z.z.  . X $ * e n / X. . .] ] | | | X.X.] ! L H G G V a < % O o   X z.z.z.z.z.z.z.z.z.",
"z.z.z.z.z.z.z.z.z.z.  . . . * g B ( ( ( ( ( ( ( ( ( ( E A Z C C C f y @ .   . . z.z.z.z.z.z.z.z.z.z.",
"z.z.z.z.z.z.z.z.z.z.z.      $ 2 h x x x x x x x x x b v s i p p p u ; O     . z.z.z.z.z.z.z.z.z.z.z.",
"z.z.z.z.z.z.z.z.z.z.z.z.    X $ = , , , , , , , , , , > > - - : - & O X     z.z.z.z.z.z.z.z.z.z.z.z.",
"z.z.z.z.z.z.z.z.z.z.z.z.z.                .                     . .       z.z.z.z.z.z.z.z.z.z.z.z.z.",
"z.z.z.z.z.z.z.z.z.z.z.z.z.z.                                            z.z.z.z.z.z.z.z.z.z.z.z.z.z.",
"z.z.z.z.z.z.z.z.z.z.z.z.z.z.z.z.z.z.z.z.z.z.z.z.z.z.z.z.z.z.z.z.z.z.z.z.z.z.z.z.z.z.z.z.z.z.z.z.z.z.",
"z.z.z.z.z.z.z.z.z.z.z.z.z.z.z.z.z.z.z.z.z.z.z.z.z.z.z.z.z.z.z.z.z.z.z.z.z.z.z.z.z.z.z.z.z.z.z.z.z.z.",
"z.z.z.z.z.z.z.z.z.z.z.z.z.z.z.z.z.z.z.z.z.z.z.z.z.z.z.z.z.z.z.z.z.z.z.z.z.z.z.z.z.z.z.z.z.z.z.z.z.z.",
"z.z.z.z.z.z.z.z.z.z.z.z.z.z.z.z.z.z.z.z.z.z.z.z.z.z.z.z.z.z.z.z.z.z.z.z.z.z.z.z.z.z.z.z.z.z.z.z.z.z.",
"z.z.z.z.z.z.z.z.z.z.z.z.z.z.z.z.z.z.z.z.z.z.z.z.z.z.z.z.z.z.z.z.z.z.z.z.z.z.z.z.z.z.z.z.z.z.z.z.z.z.",
"z.z.z.z.z.z.z.z.z.z.z.z.z.z.z.z.z.z.z.z.z.z.z.z.z.z.z.z.z.z.z.z.z.z.z.z.z.z.z.z.z.z.z.z.z.z.z.z.z.z."
};
