/* XPM */
static char *result[] = {
/* columns rows colors chars-per-pixel */
"50 50 159 2 ",
"   c #393457",
".  c #383358",
"X  c #3E395A",
"o  c #433957",
"O  c #4A3C57",
"+  c #433E59",
"@  c #503F56",
"#  c #443F60",
"$  c #474159",
"%  c #4B445A",
"&  c #554256",
"*  c #5A4456",
"=  c #534C5C",
"-  c #5A535D",
";  c #634956",
":  c #6A4C56",
">  c #634D59",
",  c #635A5E",
"<  c #63555B",
"1  c #725055",
"2  c #7F5655",
"3  c #69605F",
"4  c #4A4666",
"5  c #4D4868",
"6  c #514D6B",
"7  c #565270",
"8  c #5A5673",
"9  c #5D5875",
"0  c #635964",
"q  c #645C72",
"w  c #716860",
"e  c #7E7462",
"r  c #64607C",
"t  c #855955",
"y  c #895B55",
"u  c #9A6454",
"i  c #A06754",
"p  c #A46954",
"a  c #A16A5A",
"s  c #A0775C",
"d  c #B37054",
"f  c #BA7354",
"g  c #867B64",
"h  c #897E64",
"j  c #A27D78",
"k  c #C17753",
"l  c #C57953",
"z  c #D07E53",
"x  c #998C66",
"c  c #9F9368",
"v  c #A08562",
"b  c #A2956A",
"n  c #A49568",
"m  c #B9AA6C",
"M  c #B1A46B",
"N  c #D68153",
"B  c #DD8553",
"V  c #DE8A58",
"C  c #DD9F5E",
"Z  c #E08653",
"A  c #E58852",
"S  c #F18E52",
"D  c #F99353",
"F  c #F99C56",
"G  c #F99F59",
"H  c #EFAA5F",
"J  c #F9A45A",
"K  c #F8AC5D",
"L  c #F8B05F",
"P  c #C0A065",
"I  c #DFAF65",
"U  c #C9B46D",
"Y  c #DDB668",
"T  c #F9A462",
"R  c #FAA46A",
"E  c #E4B566",
"W  c #F8B461",
"Q  c #F8BA64",
"!  c #F8BD6A",
"~  c #FAA774",
"^  c #D8C16E",
"/  c #D5C470",
"(  c #DCCB72",
")  c #DDCD79",
"_  c #F8C167",
"`  c #F8C569",
"'  c #F7CE6D",
"]  c #F8CB6B",
"[  c #F7D26E",
"{  c #F9C07E",
"}  c #E3D273",
"|  c #EFDD75",
" . c #F7D670",
".. c #F8D776",
"X. c #F7DC72",
"o. c #F8DC7B",
"O. c #F7E476",
"+. c #F7E479",
"@. c #F8E67F",
"#. c #6A6781",
"$. c #6D6983",
"%. c #737088",
"&. c #817E94",
"*. c #89869B",
"=. c #8A879C",
"-. c #A19884",
";. c #A39798",
":. c #9C99AB",
">. c #A19FAF",
",. c #A4A1B2",
"<. c #AAA8B7",
"1. c #E0A88B",
"2. c #FABD8A",
"3. c #DFD49E",
"4. c #FAC888",
"5. c #F9D183",
"6. c #FBC494",
"7. c #FADE9A",
"8. c #F8E585",
"9. c #F8E88A",
"0. c #F9E992",
"q. c #F9EC9E",
"w. c #FAE49B",
"e. c #FCC7A6",
"r. c #FADFA0",
"t. c #E1C6BB",
"y. c #FCDDBB",
"u. c #FAE1A1",
"i. c #FAEFAD",
"p. c #FAEDA2",
"a. c #FCE5BE",
"s. c #FBF0B4",
"d. c #FBF1BC",
"f. c #B7B5C1",
"g. c #BEBDC8",
"h. c #C6C4CE",
"j. c #CAC8D2",
"k. c #D4D3DB",
"l. c #E1DBC4",
"z. c #FDDBC6",
"x. c #FDE0CF",
"c. c #FCEFC2",
"v. c #FCF5CA",
"b. c #FCF6D3",
"n. c #FDF7D9",
"m. c #FDF8D9",
"M. c #DCDCE2",
"N. c #E3E2E7",
"B. c #EAEAEE",
"V. c #E5E4E9",
"C. c #FEECE1",
"Z. c #FEFAE6",
"A. c #FEFBEA",
"S. c #FEF2EA",
"D. c #F6F5F7",
"F. c #FFFCF5",
"G. c #F7F7F8",
"H. c #FFFFFE",
"J. c None",
/* pixels */
"J.J.J.J.J.J.J.J.J.J.J.J.J.J.J.J.J.J.J.J.J.J.J.J.J.J.J.J.J.J.J.J.J.J.J.J.J.J.J.J.J.J.J.J.J.J.J.J.J.J.",
"J.J.J.J.J.J.J.J.J.J.J.J.J.J.J.J.J.J.J.J.J.J.J.J.J.J.J.J.J.J.J.J.J.J.J.J.J.J.J.J.J.J.J.J.J.J.J.J.J.J.",
"J.J.J.J.J.J.J.J.J.J.J.J.J.J.J.J.J.J.J.J.J.J.J.J.J.J.J.J.J.J.J.J.J.J.J.J.J.J.J.J.J.J.J.J.J.J.J.J.J.J.",
"J.J.J.J.J.J.J.J.J.J.J.J.J.J.J.J.J.J.J.J.J.J.J.J.J.J.J.J.J.J.J.J.J.J.J.J.J.J.J.J.J.J.J.J.J.J.J.J.J.J.",
"J.J.J.J.J.J.J.J.J.J.J.J.J.J.J.J.J.J.J.J.J.J.J.J.J.J.J.J.J.J.J.J.J.J.J.J.J.J.J.J.J.J.J.J.J.J.J.J.J.J.",
"J.J.J.J.J.J.J.J.J.J.J.J.J.J.J.J.J.J.J.J.J.J.J.J.J.J.J.J.J.J.J.J.J.J.J.J.J.J.J.J.J.J.J.J.J.J.J.J.J.J.",
"J.J.J.J.J.J.J.J.J.J.J.J.J.J.                                            J.J.J.J.J.J.J.J.J.J.J.J.J.J.",
"J.J.J.J.J.J.J.J.J.J.J.J.J.                                                J.J.J.J.J.J.J.J.J.J.J.J.J.",
"J.J.J.J.J.J.J.J.J.J.J.J.    X 5 8 #.q r q r r r r r q q 0 ; ; ; ; * O X .   J.J.J.J.J.J.J.J.J.J.J.J.",
"J.J.J.J.J.J.J.J.J.J.J..     4 #.=.,.,.,.,.,.,.,.,.,.,.;.j a a u p y : O   .   J.J.J.J.J.J.J.J.J.J.J.",
"J.J.J.J.J.J.J.J.J.J.        6 *.g.N.N.N.V.V.N.N.N.N.N.t.1.V Z B B f t &   .     J.J.J.J.J.J.J.J.J.J.",
"J.J.J.J.J.J.J.J.J.    X 4 7 %.,.M.H.H.H.H.H.H.H.F.F.Z.y.6.T F D D N p 1 & O       J.J.J.J.J.J.J.J.J.",
"J.J.J.J.J.J.J.J.J.    4 #.=.<.j.B.H.H.H.H.H.H.H.A.b.d.w.5.! W J D A l p y : O     J.J.J.J.J.J.J.J.J.",
"J.J.J.J.J.J.J.J.J.    7 =.g.N.B.D.H.H.H.H.H.H.H.n.s.0.8.o..._ K D S A B f y *     J.J.J.J.J.J.J.J.J.",
"J.J.J.J.J.J.J.J.J.    9 :.M.H.H.H.H.H.H.H.F.F.A.c.w.X.X.X.O.' W F D D D z u *     J.J.J.J.J.J.J.J.J.",
"J.J.J.J.J.J.J.J.      9 :.M.H.H.H.H.H.H.F.Z.b.d.r.5.! ]  .O.' W D D D D N u *       J.J.J.J.J.J.J.J.",
"J.J.J.J.J.J.J..       9 :.M.H.H.H.H.H.H.H.b.s.0.o.! J W ' X.' W F D D D z i @         J.J.J.J.J.J.J.",
"J.J.J.J.J.J.    X # 4 $.,.M.H.H.H.H.H.H.F.v.q.O.` W F W _ X.' W J F D D z p : O O       J.J.J.J.J.J.",
"J.J.J.J.J.J.    5 r &.>.h.B.H.H.H.H.H.H.F.v.q.O. .` W W Q _ ! Q L K J D S k i t ; O     J.J.J.J.J.J.",
"J.J.J.J.J.J.    8 *.f.k.V.G.H.H.H.H.H.H.H.v.q.O... .' ` L K L ! ] _ K F S Z z d t *     J.J.J.J.J.J.",
"J.J.J.J.J.J.    q ,.M.H.H.H.H.F.H.F.H.H.F.v.q.O.O.O.O.] L F J _ X.[ Q J D D D A p ;     J.J.J.J.J.J.",
"J.J.J.J.J.J.    #.,.N.H.H.H.F.A.b.b.m.F.H.v.q.O.O.O.O.] L F K _ X.[ Q F D D D z i ;     J.J.J.J.J.J.",
"J.J.J.J.J.J.    r ,.N.H.H.H.F.b.s.i.v.Z.F.v.q.O.O.O.O.' L D J _ X.' L F D D D A i ; .   J.J.J.J.J.J.",
"J.J.J.J.J.J.    r ,.N.H.H.H.Z.d.0.8.i.b.F.v.q.O.O.O.O.' L D K _ X.' Q D D D D A i ; . . J.J.J.J.J.J.",
"J.J.J.J.J.J.    r ,.V.F.C.z.y.r.9.@.q.s.v.i.0.O.O.O.O.' L D K _ X.[ Q F D D D z u ;     J.J.J.J.J.J.",
"J.J.J.J.J.J.    r ,.N.S.z.e.2.4.o.+.9.q.p.0.8.O.O.O.O.] L D K _ X.[ Q F D D D B p ;     J.J.J.J.J.J.",
"J.J.J.J.J.J.    r ,.N.C.e.~ G Q [ O.+.+.O.+.O.O.O.O.O.] L D J _ X.[ W J D D D B p ;     J.J.J.J.J.J.",
"J.J.J.J.J.J.    q ;.l.c.6.R G Q [ O.O.O.O.O.O.O.O.O.O.[ L F J _ X.[ Q F D D D B u ;     J.J.J.J.J.J.",
"J.J.J.J.J.J.    0 -.3.7.! J J Q [ O.O.O.O.O.O.O.O.O.O.] L F J _ X.[ Q F D D D B p ;     J.J.J.J.J.J.",
"J.J.J.J.J.J.    , n ) ..! J F Q [ O.O.O.O.O.O.O.O.O.O.' L F J _ X.[ W G D D D B u ;     J.J.J.J.J.J.",
"J.J.J.J.J.J.    6 g M U Y H K L ] [ X.O.O.O.O.O.X. .[ _ L K L _ ] _ K F S Z z d t *     J.J.J.J.J.J.",
"J.J.J.J.J.J.    O 0 g x P E _ _ L L ]  .O.O.O.O.[ ] L Q _ _ Q Q W K J D A k u t ; O     J.J.J.J.J.J.",
"J.J.J.J.J.J.    X + % 3 n ^ [ Q K J L [ O.O.O.O.] L F L `  .] L J D D D N i : O o       J.J.J.J.J.J.",
"J.J.J.J.J.J.J..   .   - x / X.] L K L ] [ [ [ [ _ L J Q ] O.] L J D D D N u *         J.J.J.J.J.J.J.",
"J.J.J.J.J.J.J.J.      - x / X.[ _ _ Q Q Q L Q Q Q _ Q ] [ O.[ L D D D D N u *       J.J.J.J.J.J.J.J.",
"J.J.J.J.J.J.J.J.J..   - x ^ O.O.X.[ _ L J F J F L _  .X.O.O.[ L F D D D N u *     J.J.J.J.J.J.J.J.J.",
"J.J.J.J.J.J.J.J.J.    = g m ( } | X.] L J J F J L [ O.O. . .` K D S A B f y &     J.J.J.J.J.J.J.J.J.",
"J.J.J.J.J.J.J.J.J.    $ 3 g b U } X.[ _ L Q Q ! ]  .O.[ ] Q L J D A l i y : O     J.J.J.J.J.J.J.J.J.",
"J.J.J.J.J.J.J.J.J.    X % = 3 n / O.O.X. . . . .X.O.O.[ Q J J D D N p 1 & O X     J.J.J.J.J.J.J.J.J.",
"J.J.J.J.J.J.J.J.J.J.  . . . % x m ( ( ( ( ( ( ( ( ( ( Y C V B B V f y &         J.J.J.J.J.J.J.J.J.J.",
"J.J.J.J.J.J.J.J.J.J.J.      % 3 h c c c c c c c c c n x s i i i i y : O       J.J.J.J.J.J.J.J.J.J.J.",
"J.J.J.J.J.J.J.J.J.J.J.J.    X % - , , , , , , , , , < < > ; > > ; * O o     J.J.J.J.J.J.J.J.J.J.J.J.",
"J.J.J.J.J.J.J.J.J.J.J.J.J.                                                J.J.J.J.J.J.J.J.J.J.J.J.J.",
"J.J.J.J.J.J.J.J.J.J.J.J.J.J.                                            J.J.J.J.J.J.J.J.J.J.J.J.J.J.",
"J.J.J.J.J.J.J.J.J.J.J.J.J.J.J.J.J.J.J.J.J.J.J.J.J.J.J.J.J.J.J.J.J.J.J.J.J.J.J.J.J.J.J.J.J.J.J.J.J.J.",
"J.J.J.J.J.J.J.J.J.J.J.J.J.J.J.J.J.J.J.J.J.J.J.J.J.J.J.J.J.J.J.J.J.J.J.J.J.J.J.J.J.J.J.J.J.J.J.J.J.J.",
"J.J.J.J.J.J.J.J.J.J.J.J.J.J.J.J.J.J.J.J.J.J.J.J.J.J.J.J.J.J.J.J.J.J.J.J.J.J.J.J.J.J.J.J.J.J.J.J.J.J.",
"J.J.J.J.J.J.J.J.J.J.J.J.J.J.J.J.J.J.J.J.J.J.J.J.J.J.J.J.J.J.J.J.J.J.J.J.J.J.J.J.J.J.J.J.J.J.J.J.J.J.",
"J.J.J.J.J.J.J.J.J.J.J.J.J.J.J.J.J.J.J.J.J.J.J.J.J.J.J.J.J.J.J.J.J.J.J.J.J.J.J.J.J.J.J.J.J.J.J.J.J.J.",
"J.J.J.J.J.J.J.J.J.J.J.J.J.J.J.J.J.J.J.J.J.J.J.J.J.J.J.J.J.J.J.J.J.J.J.J.J.J.J.J.J.J.J.J.J.J.J.J.J.J."
};
