/* XPM */
static char *result[] = {
/* columns rows colors chars-per-pixel */
"50 50 159 2 ",
"   c #393457",
".  c #383358",
"X  c #3E395A",
"o  c #433957",
"O  c #4A3C57",
"+  c #503F56",
"@  c #443F60",
"#  c #474159",
"$  c #4B455A",
"%  c #554256",
"&  c #5A4456",
"*  c #534C5C",
"=  c #59525C",
"-  c #634956",
";  c #6A4C56",
":  c #634D59",
">  c #635A5E",
",  c #63555B",
"<  c #725055",
"1  c #7F5655",
"2  c #68605F",
"3  c #4B4666",
"4  c #5C5564",
"5  c #565270",
"6  c #5A5671",
"7  c #5D5875",
"8  c #635965",
"9  c #645C72",
"0  c #716964",
"q  c #64607C",
"w  c #726C75",
"e  c #855955",
"r  c #895B55",
"t  c #9A6454",
"y  c #A06754",
"u  c #A46954",
"i  c #A16A5A",
"p  c #A0775C",
"a  c #B37054",
"s  c #BA7354",
"d  c #867B64",
"f  c #897E64",
"g  c #A27D78",
"h  c #C17753",
"j  c #C57953",
"k  c #D07E53",
"l  c #9F9368",
"z  c #998E70",
"x  c #A08562",
"c  c #A0946F",
"v  c #A59974",
"b  c #B9AA6C",
"n  c #D68153",
"m  c #DD8553",
"M  c #DE8A58",
"N  c #DD9F5E",
"B  c #E08653",
"V  c #E58852",
"C  c #F18E52",
"Z  c #F99352",
"A  c #F99C56",
"S  c #F99A5B",
"D  c #F9A45A",
"F  c #F8AD5E",
"G  c #F8B05F",
"H  c #FA9D63",
"J  c #DDB668",
"K  c #FAA268",
"L  c #F8B461",
"P  c #F8BA64",
"I  c #FAAA78",
"U  c #F9B971",
"Y  c #DCCB72",
"T  c #D9CA7A",
"R  c #F8C167",
"E  c #F8C568",
"W  c #F7CE6D",
"Q  c #F8CB6B",
"!  c #F7D26E",
"~  c #F9CA78",
"^  c #F7D670",
"/  c #F7DC72",
"(  c #F7DF78",
")  c #F8D37B",
"_  c #F7E275",
"`  c #F7E57B",
"'  c #F8E27D",
"]  c #6D6983",
"[  c #6A6781",
"{  c #817E94",
"}  c #9A9286",
"|  c #89869B",
" . c #9B979C",
".. c #A19987",
"X. c #A3979A",
"o. c #9C99AB",
"O. c #A19FAF",
"+. c #A9A4A3",
"@. c #A4A1B2",
"#. c #C6BB8D",
"$. c #C6BC93",
"%. c #E0A88B",
"&. c #FBB88A",
"*. c #FBBB92",
"=. c #D8C982",
"-. c #FAC082",
";. c #E3D481",
":. c #F9D78C",
">. c #FCC19C",
",. c #FADC93",
"<. c #F8E584",
"1. c #F8E788",
"2. c #F1E28D",
"3. c #F9EA96",
"4. c #F9EB9A",
"5. c #D8CFA4",
"6. c #DFD5A3",
"7. c #FCCAAB",
"8. c #E7DCA8",
"9. c #FBD9AB",
"0. c #FBD4A4",
"q. c #E1C6BB",
"w. c #E8DFB0",
"e. c #FDD2B8",
"r. c #FAEDA5",
"t. c #FAEDAB",
"y. c #FBE3AA",
"u. c #FBE9B0",
"i. c #FBF0B5",
"p. c #FBF2BF",
"a. c #B7B5C1",
"s. c #BEBDC8",
"d. c #C6C4CE",
"f. c #DAD6C8",
"g. c #D4D3DB",
"h. c #DFDCD2",
"j. c #E1DCC8",
"k. c #FDDEC9",
"l. c #FDD8C1",
"z. c #F5EECD",
"x. c #FCF3C3",
"c. c #FCF5CB",
"v. c #FDE3D3",
"b. c #FEEAD9",
"n. c #FDF6D4",
"m. c #FDF8DE",
"M. c #FDF2D9",
"N. c #DDDCE2",
"B. c #E3E2E7",
"V. c #E5E4E9",
"C. c #EAEAED",
"Z. c #FEEEE4",
"A. c #FDFAE3",
"S. c #FEF3EC",
"D. c #FEFCEE",
"F. c #F6F5F7",
"G. c #FEFCF4",
"H. c #FFFFFF",
"J. c None",
/* pixels */
"J.J.J.J.J.J.J.J.J.J.J.J.J.J.J.J.J.J.J.J.J.J.J.J.J.J.J.J.J.J.J.J.J.J.J.J.J.J.J.J.J.J.J.J.J.J.J.J.J.J.",
"J.J.J.J.J.J.J.J.J.J.J.J.J.J.J.J.J.J.J.J.J.J.J.J.J.J.J.J.J.J.J.J.J.J.J.J.J.J.J.J.J.J.J.J.J.J.J.J.J.J.",
"J.J.J.J.J.J.J.J.J.J.J.J.J.J.J.J.J.J.J.J.J.J.J.J.J.J.J.J.J.J.J.J.J.J.J.J.J.J.J.J.J.J.J.J.J.J.J.J.J.J.",
"J.J.J.J.J.J.J.J.J.J.J.J.J.J.J.J.J.J.J.J.J.J.J.J.J.J.J.J.J.J.J.J.J.J.J.J.J.J.J.J.J.J.J.J.J.J.J.J.J.J.",
"J.J.J.J.J.J.J.J.J.J.J.J.J.J.J.J.J.J.J.J.J.J.J.J.J.J.J.J.J.J.J.J.J.J.J.J.J.J.J.J.J.J.J.J.J.J.J.J.J.J.",
"J.J.J.J.J.J.J.J.J.J.J.J.J.J.J.J.J.J.J.J.J.J.J.J.J.J.J.J.J.J.J.J.J.J.J.J.J.J.J.J.J.J.J.J.J.J.J.J.J.J.",
"J.J.J.J.J.J.J.J.J.J.J.J.J.J.                                            J.J.J.J.J.J.J.J.J.J.J.J.J.J.",
"J.J.J.J.J.J.J.J.J.J.J.J.J.                                                J.J.J.J.J.J.J.J.J.J.J.J.J.",
"J.J.J.J.J.J.J.J.J.J.J.J.    X $ = 2 9 9 7 [ [ 9 q q 9 9 8 - - - - & + X . . J.J.J.J.J.J.J.J.J.J.J.J.",
"J.J.J.J.J.J.J.J.J.J.J..     # 2 z c } X.@.@.@.O.@.@.O.X.g i y y y r ; O . . . J.J.J.J.J.J.J.J.J.J.J.",
"J.J.J.J.J.J.J.J.J.J.        * d b T 6.j.B.B.B.B.B.B.B.q.%.M m m B s r + . . . . J.J.J.J.J.J.J.J.J.J.",
"J.J.J.J.J.J.J.J.J.    X $ * 0 v =.3.p.A.H.H.H.H.H.H.H.v.7.I H H Z k y < & O o .   J.J.J.J.J.J.J.J.J.",
"J.J.J.J.J.J.J.J.J.    $ 2 f v #.6.x.M.D.H.H.H.H.H.H.H.Z.k.7.*.I S B j u r ; O     J.J.J.J.J.J.J.J.J.",
"J.J.J.J.J.J.J.J.J.    * f b =.8.z.D.G.G.H.H.H.H.H.H.H.F.S.Z.l.*.S C V m s r &     J.J.J.J.J.J.J.J.J.",
"J.J.J.J.J.J.J.J.J..   4 z T 4.p.A.H.H.H.H.H.H.H.H.H.H.H.H.H.v.*.H Z Z Z n t &     J.J.J.J.J.J.J.J.J.",
"J.J.J.J.J.J.J.J.      4 } 5.x.M.G.H.H.H.H.H.H.H.H.H.H.H.H.H.v.>.H Z Z Z n t &       J.J.J.J.J.J.J.J.",
"J.J.J.J.J.J.J.. . .   6  .f.A.D.G.H.H.H.H.H.H.H.H.H.H.H.H.H.v.*.K Z Z Z n t &         J.J.J.J.J.J.J.",
"J.J.J.J.J.J.      3 3 ] @.N.H.H.H.H.H.H.H.H.H.H.H.H.H.H.H.H.v.7.K Z Z Z n u ; O o X     J.J.J.J.J.J.",
"J.J.J.J.J.J.    3 q { O.d.C.H.H.H.H.H.H.H.H.H.H.H.H.H.H.H.H.z.0.U G D Z V h t 1 ; O     J.J.J.J.J.J.",
"J.J.J.J.J.J.    6 | a.g.B.F.H.H.H.H.H.H.H.H.H.H.H.H.H.H.H.H.M.y.) R F A C V n a e %     J.J.J.J.J.J.",
"J.J.J.J.J.J.    q @.B.H.H.H.H.H.H.H.H.H.H.H.H.H.H.H.H.G.G.G.M.t.<.! P A Z Z Z V t ;     J.J.J.J.J.J.",
"J.J.J.J.J.J.    q @.B.H.H.H.H.H.H.H.H.H.H.H.H.H.H.H.H.S.b.l.9.,.' ! P A Z Z Z V t -     J.J.J.J.J.J.",
"J.J.J.J.J.J.  . q @.B.H.H.H.H.H.H.H.H.H.H.H.H.H.H.H.H.b.e.&.&.) _ ! P Z Z Z Z k u -     J.J.J.J.J.J.",
"J.J.J.J.J.J.  . q @.B.H.H.H.H.H.H.H.H.H.H.H.H.H.H.H.H.k.*.S D R / W P Z Z Z Z m t -     J.J.J.J.J.J.",
"J.J.J.J.J.J.    [ O.B.H.H.H.H.H.H.H.H.H.H.H.H.H.D.A.n.9.&.S D R / ! P A Z Z Z m t -     J.J.J.J.J.J.",
"J.J.J.J.J.J.    9 @.B.H.H.H.H.H.H.H.H.H.H.H.H.H.m.x.r.:.U Z F P / ! L D Z Z Z m y -     J.J.J.J.J.J.",
"J.J.J.J.J.J.    q @.B.H.H.H.H.H.H.H.H.H.H.H.H.H.n.r.` Q L Z D R / ! L D Z Z Z m y ;     J.J.J.J.J.J.",
"J.J.J.J.J.J.    q @.B.H.H.H.H.H.H.H.H.H.H.D.A.n.i.3._ Q G A D R / ! P A Z Z Z m t -     J.J.J.J.J.J.",
"J.J.J.J.J.J.    q @.B.H.H.H.H.H.H.H.H.H.H.m.x.t.4.1._ Q G A D R / ! P A Z Z Z m y - . . J.J.J.J.J.J.",
"J.J.J.J.J.J.    q @.B.H.H.H.H.H.H.H.H.H.G.c.r.` ` ` _ Q L Z D R / ! P A Z Z Z m y ;     J.J.J.J.J.J.",
"J.J.J.J.J.J.    6 | a.g.B.F.H.H.H.H.G.A.n.i.3._ _ ! ! R L F L P Q R F A C m n a e &     J.J.J.J.J.J.",
"J.J.J.J.J.J.    5 ] ] O.d.C.H.H.H.G.m.x.t.4.1._ ! E L P P R R P L F D Z V h t 1 - O .   J.J.J.J.J.J.",
"J.J.J.J.J.J.    X @ 3 ] @.N.H.H.H.D.c.r.<.` ` _ Q L A G R / Q P D Z Z Z n u ; O o X     J.J.J.J.J.J.",
"J.J.J.J.J.J.J..   .   7 o.N.H.G.D.n.t.,.! ! ! ! R G D P Q _ Q G A Z Z Z n t &       . J.J.J.J.J.J.J.",
"J.J.J.J.J.J.J.J.      7 o.N.G.m.x.t.,.~ P L P L P P P Q ! _ Q P A Z Z Z n t & .     J.J.J.J.J.J.J.J.",
"J.J.J.J.J.J.J.J.J..   7 o.N.D.x.4.:.~ L A D A D G E ^ / _ _ ! G Z Z Z Z n t &     J.J.J.J.J.J.J.J.J.",
"J.J.J.J.J.J.J.J.J.    5 | s.h.w.2._ Q G D D D D P W _ _ / ! E G A C V m s r %     J.J.J.J.J.J.J.J.J.",
"J.J.J.J.J.J.J.J.J.    3 [ | +.$.Y _ ! E G R G P Q ^ _ ^ E R G D Z V j y r ; O     J.J.J.J.J.J.J.J.J.",
"J.J.J.J.J.J.J.J.J.  . X 3 5 w v Y _ / / ^ ^ ^ ^ / _ _ W P F A Z Z n y < % O X     J.J.J.J.J.J.J.J.J.",
"J.J.J.J.J.J.J.J.J.J.  . . . * d b Y Y Y Y Y Y Y Y Y Y J N V m m m s r % .       J.J.J.J.J.J.J.J.J.J.",
"J.J.J.J.J.J.J.J.J.J.J.      # 2 z l l c c l l l c c c x p t y y t r ; O     . J.J.J.J.J.J.J.J.J.J.J.",
"J.J.J.J.J.J.J.J.J.J.J.J.    o $ = > = = > , > > , > , , , : - - ; & O o     J.J.J.J.J.J.J.J.J.J.J.J.",
"J.J.J.J.J.J.J.J.J.J.J.J.J.                                      .         J.J.J.J.J.J.J.J.J.J.J.J.J.",
"J.J.J.J.J.J.J.J.J.J.J.J.J.J.                                            J.J.J.J.J.J.J.J.J.J.J.J.J.J.",
"J.J.J.J.J.J.J.J.J.J.J.J.J.J.J.J.J.J.J.J.J.J.J.J.J.J.J.J.J.J.J.J.J.J.J.J.J.J.J.J.J.J.J.J.J.J.J.J.J.J.",
"J.J.J.J.J.J.J.J.J.J.J.J.J.J.J.J.J.J.J.J.J.J.J.J.J.J.J.J.J.J.J.J.J.J.J.J.J.J.J.J.J.J.J.J.J.J.J.J.J.J.",
"J.J.J.J.J.J.J.J.J.J.J.J.J.J.J.J.J.J.J.J.J.J.J.J.J.J.J.J.J.J.J.J.J.J.J.J.J.J.J.J.J.J.J.J.J.J.J.J.J.J.",
"J.J.J.J.J.J.J.J.J.J.J.J.J.J.J.J.J.J.J.J.J.J.J.J.J.J.J.J.J.J.J.J.J.J.J.J.J.J.J.J.J.J.J.J.J.J.J.J.J.J.",
"J.J.J.J.J.J.J.J.J.J.J.J.J.J.J.J.J.J.J.J.J.J.J.J.J.J.J.J.J.J.J.J.J.J.J.J.J.J.J.J.J.J.J.J.J.J.J.J.J.J.",
"J.J.J.J.J.J.J.J.J.J.J.J.J.J.J.J.J.J.J.J.J.J.J.J.J.J.J.J.J.J.J.J.J.J.J.J.J.J.J.J.J.J.J.J.J.J.J.J.J.J."
};
