/* XPM */
static char *result[] = {
/* columns rows colors chars-per-pixel */
"50 50 166 2 ",
"   c #393457",
".  c #383358",
"X  c #3E3959",
"o  c #433957",
"O  c #4A3C57",
"+  c #433E59",
"@  c #503F56",
"#  c #4B445A",
"$  c #474159",
"%  c #554256",
"&  c #5A4456",
"*  c #534C5C",
"=  c #5A525D",
"-  c #634956",
";  c #6A4C56",
":  c #634F59",
">  c #635A5E",
",  c #63555B",
"<  c #725055",
"1  c #7F5655",
"2  c #69605F",
"3  c #4A4565",
"4  c #4D4868",
"5  c #514D6B",
"6  c #565270",
"7  c #5D5875",
"8  c #5B5774",
"9  c #635C68",
"0  c #645E72",
"q  c #716860",
"w  c #7E7462",
"e  c #64607C",
"r  c #6C6575",
"t  c #855955",
"y  c #895B55",
"u  c #9A6454",
"i  c #A06754",
"p  c #A36954",
"a  c #A0775C",
"s  c #B37054",
"d  c #BA7354",
"f  c #867B63",
"g  c #897E64",
"h  c #C17753",
"j  c #C57953",
"k  c #D07E53",
"l  c #998C66",
"z  c #9F9368",
"x  c #9E8D73",
"c  c #A08562",
"v  c #A39568",
"b  c #B1A46B",
"n  c #B9AA6C",
"m  c #D68153",
"M  c #DD8553",
"N  c #DE8954",
"B  c #DD9F5E",
"V  c #E08653",
"C  c #E58852",
"Z  c #F18E52",
"A  c #F99252",
"S  c #F99D57",
"D  c #F9975A",
"F  c #F99C5B",
"G  c #EFAA5F",
"H  c #F9A259",
"J  c #F8AC5D",
"K  c #F8B05F",
"L  c #F99C62",
"P  c #C0A065",
"I  c #DFAF65",
"U  c #C9B46D",
"Y  c #DDB668",
"T  c #CFB571",
"R  c #FAA16A",
"E  c #F9A063",
"W  c #E4B566",
"Q  c #F8B461",
"!  c #F8BA64",
"~  c #F9B669",
"^  c #F8BC6A",
"/  c #FAA774",
"(  c #E0B277",
")  c #FABA7C",
"_  c #F5B679",
"`  c #D8C16E",
"'  c #D5C470",
"]  c #DCCB72",
"[  c #F8C569",
"{  c #F8CA6B",
"}  c #F8C267",
"|  c #F7D26E",
" . c #F9CD77",
".. c #E3D273",
"X. c #EFDD75",
"o. c #F7D570",
"O. c #F7DC73",
"+. c #F8D27A",
"@. c #F8DA77",
"#. c #F7E376",
"$. c #F7E57B",
"%. c #6A6781",
"&. c #737088",
"*. c #8A879C",
"=. c #8A879C",
"-. c #A19881",
";. c #A29C98",
":. c #9C99AB",
">. c #A59DA4",
",. c #A4A2B2",
"<. c #AAA8B7",
"1. c #C3A88D",
"2. c #FBB78C",
"3. c #FBBE8D",
"4. c #FABE82",
"5. c #FBBB92",
"6. c #DFD39A",
"7. c #FACD88",
"8. c #F9D587",
"9. c #FCC29C",
"0. c #FAD89B",
"q. c #FADD97",
"w. c #F8E683",
"e. c #F8E788",
"r. c #F9E992",
"t. c #FAE19C",
"y. c #F9E798",
"u. c #E8C2A7",
"i. c #FCC5A3",
"p. c #FBD9AE",
"a. c #E1DBBF",
"s. c #FCD1B6",
"d. c #FDD4BA",
"f. c #FCDEBC",
"g. c #FBDFB1",
"h. c #FAEEAB",
"j. c #FAE7A3",
"k. c #FAEFB0",
"l. c #FBE8B9",
"z. c #FBF0B5",
"x. c #FBF2BB",
"c. c #BEBDC8",
"v. c #CAC8D2",
"b. c #DED5D3",
"n. c #FDDBC5",
"m. c #FDD7C0",
"M. c #FCEFC3",
"N. c #FCF4C5",
"B. c #FCF5CB",
"V. c #FEE5D5",
"C. c #FEE7D9",
"Z. c #FEEBDF",
"A. c #FCF6D3",
"S. c #FDF6D9",
"D. c #FDF8DC",
"F. c #DBDBE1",
"G. c #E3E2E7",
"H. c #EBEAEE",
"J. c #FEEEE5",
"K. c #FDF9E4",
"L. c #FEF5EF",
"P. c #FEFBEC",
"I. c #FFFBF4",
"U. c #FFFFFF",
"Y. c #FBF6F4",
"T. c None",
/* pixels */
"T.T.T.T.T.T.T.T.T.T.T.T.T.T.T.T.T.T.T.T.T.T.T.T.T.T.T.T.T.T.T.T.T.T.T.T.T.T.T.T.T.T.T.T.T.T.T.T.T.T.",
"T.T.T.T.T.T.T.T.T.T.T.T.T.T.T.T.T.T.T.T.T.T.T.T.T.T.T.T.T.T.T.T.T.T.T.T.T.T.T.T.T.T.T.T.T.T.T.T.T.T.",
"T.T.T.T.T.T.T.T.T.T.T.T.T.T.T.T.T.T.T.T.T.T.T.T.T.T.T.T.T.T.T.T.T.T.T.T.T.T.T.T.T.T.T.T.T.T.T.T.T.T.",
"T.T.T.T.T.T.T.T.T.T.T.T.T.T.T.T.T.T.T.T.T.T.T.T.T.T.T.T.T.T.T.T.T.T.T.T.T.T.T.T.T.T.T.T.T.T.T.T.T.T.",
"T.T.T.T.T.T.T.T.T.T.T.T.T.T.T.T.T.T.T.T.T.T.T.T.T.T.T.T.T.T.T.T.T.T.T.T.T.T.T.T.T.T.T.T.T.T.T.T.T.T.",
"T.T.T.T.T.T.T.T.T.T.T.T.T.T.T.T.T.T.T.T.T.T.T.T.T.T.T.T.T.T.T.T.T.T.T.T.T.T.T.T.T.T.T.T.T.T.T.T.T.T.",
"T.T.T.T.T.T.T.T.T.T.T.T.T.T.                                            T.T.T.T.T.T.T.T.T.T.T.T.T.T.",
"T.T.T.T.T.T.T.T.T.T.T.T.T.                                                T.T.T.T.T.T.T.T.T.T.T.T.T.",
"T.T.T.T.T.T.T.T.T.T.T.T.    X # = > > > > > > > > > > , : - - - - & O       T.T.T.T.T.T.T.T.T.T.T.T.",
"T.T.T.T.T.T.T.T.T.T.T..     $ 2 g z z z z z z v z z z c a i i u i y ; O       T.T.T.T.T.T.T.T.T.T.T.",
"T.T.T.T.T.T.T.T.T.T.        * f n ] ] ] ] ] ] ] ] ] ] Y B N V N M d t %         T.T.T.T.T.T.T.T.T.T.",
"T.T.T.T.T.T.T.T.T.    X $ * q v ' #.O.O.o.| o.o.O.#.#.| ! H S S A m i < & O       T.T.T.T.T.T.T.T.T.",
"T.T.T.T.T.T.T.T.T.    # 2 f v U ..O.| [ ! ! ! ! { o.$.o.{ ! K H A C j p t ; O     T.T.T.T.T.T.T.T.T.",
"T.T.T.T.T.T.T.T.T.    = f n ] ..X.O.{ Q H H H H ! { #.#.O.o.[ K D Z C M d y &     T.T.T.T.T.T.T.T.T.",
"T.T.T.T.T.T.T.T.T..   = l ' #.O.O.| ! K S H S S K [ o.@.w.e.+.~ S A A A m u &     T.T.T.T.T.T.T.T.T.",
"T.T.T.T.T.T.T.T.      = l ' #.| [ ! ! ! Q ! ! ! ! ! !  .q.k.0.) F A A A m u &   .   T.T.T.T.T.T.T.T.",
"T.T.T.T.T.T.T.        = l ' O.[ Q J Q [ o.| | | [ K H 7.p.S.f.5.L A A A m u & . .     T.T.T.T.T.T.T.",
"T.T.T.T.T.T.    X + # 2 v ` | ! J H ^ +.w.w.$.#.{ ^ L 5.m.Y.V.i./ L D A m i ; O o       T.T.T.T.T.T.",
"T.T.T.T.T.T.    # > w l n G } ! Q ^ 7.q.k.y.w.#.8.7.5.s.C.I.J.n.i.2./ D C h i t - O     T.T.T.T.T.T.",
"T.T.T.T.T.T.    = f b U I G K ! { +.q.x.A.x.r.#.r.l.V.J.L.U.Y.J.C.s.2.L Z V k s t &     T.T.T.T.T.T.",
"T.T.T.T.T.T.    , z ] o.! H S ! | w.k.D.I.B.j.w.j.A.U.U.U.U.U.U.U.C.i.R A A A M i -     T.T.T.T.T.T.",
"T.T.T.T.T.T.    , z ] o.! H S K | w.k.D.U.K.N.h.B.K.U.U.U.U.U.U.U.C.i.R A A A M i -     T.T.T.T.T.T.",
"T.T.T.T.T.T.    > z ] o.! H S Q | w.z.D.U.P.K.A.K.I.U.U.U.U.U.U.U.C.i.R A A A V i - .   T.T.T.T.T.T.",
"T.T.T.T.T.T.    > z ] o.! H H ! | w.h.D.U.U.U.U.U.U.U.U.U.U.U.U.U.C.i.L A A A M i -     T.T.T.T.T.T.",
"T.T.T.T.T.T.    > z ] o.! H S ! | e.h.D.U.U.U.U.U.U.U.U.U.U.U.U.U.C.i.R A A A M i -     T.T.T.T.T.T.",
"T.T.T.T.T.T.    > z ] | ! H S ! | e.k.D.U.U.U.U.U.U.U.U.U.U.U.U.U.C.i.R A A A M i -     T.T.T.T.T.T.",
"T.T.T.T.T.T.    > z ] o.! H S ! | w.k.D.U.U.U.U.U.U.U.U.U.U.U.U.U.C.i.R A A A M i -     T.T.T.T.T.T.",
"T.T.T.T.T.T.    > z ] o.! H F ) q.j.B.K.U.U.U.U.U.U.U.U.U.U.U.U.U.C.i.R A A A M i -     T.T.T.T.T.T.",
"T.T.T.T.T.T.    > v ] o.! H L 7.j.A.D.I.U.U.U.U.U.U.U.U.U.U.U.U.U.C.i.R A A A M i - .   T.T.T.T.T.T.",
"T.T.T.T.T.T.    > l ] o.! E L 9.V.U.U.U.U.U.U.U.U.U.U.U.U.U.U.U.U.C.i.L A A A M i -     T.T.T.T.T.T.",
"T.T.T.T.T.T.    = f b T ( _ 5.d.J.U.U.U.U.U.U.U.U.U.U.U.U.U.I.J.C.s.2.L Z V k s t &     T.T.T.T.T.T.",
"T.T.T.T.T.T.    $ 9 w x 1.u.d.V.L.U.U.U.U.U.U.U.U.U.U.U.U.U.J.n.i.2./ D C h u t - O     T.T.T.T.T.T.",
"T.T.T.T.T.T.    X + # r >.b.L.I.U.U.U.U.U.U.U.U.U.U.U.U.U.U.V.i./ L D A M p ; O o       T.T.T.T.T.T.",
"T.T.T.T.T.T.T.        8 :.F.U.U.U.U.U.U.U.U.U.U.U.U.U.I.P.K.f.3.L A A A k u &         T.T.T.T.T.T.T.",
"T.T.T.T.T.T.T.T.      8 :.F.U.U.U.U.U.U.U.U.U.U.U.U.U.P.A.x.0.) F A A A m u & .     T.T.T.T.T.T.T.T.",
"T.T.T.T.T.T.T.T.T..   8 :.F.U.U.U.U.U.U.U.U.U.U.U.U.U.D.k.r.+.~ F A A Z m u &     T.T.T.T.T.T.T.T.T.",
"T.T.T.T.T.T.T.T.T.    6 *.c.G.H.Y.U.U.U.U.U.U.U.I.I.P.M.t.o.} K S Z C M d y @     T.T.T.T.T.T.T.T.T.",
"T.T.T.T.T.T.T.T.T.    3 %.*.<.v.H.U.U.U.U.U.U.U.K.A.x.j.8.^ Q H A C j p y ; O     T.T.T.T.T.T.T.T.T.",
"T.T.T.T.T.T.T.T.T.    X 3 6 &.<.F.U.U.U.U.U.U.U.D.z.r.+.^ H F S A m p < % O o     T.T.T.T.T.T.T.T.T.",
"T.T.T.T.T.T.T.T.T.T.        4 =.c.G.G.G.G.G.G.G.a.6.] Y B N M M V d t @         T.T.T.T.T.T.T.T.T.T.",
"T.T.T.T.T.T.T.T.T.T.T.      3 %.*.,.,.,.,.,.,.,.;.x v c a u i i i y ; O       T.T.T.T.T.T.T.T.T.T.T.",
"T.T.T.T.T.T.T.T.T.T.T.T.    X 4 7 e e e e e e e e 9 9 , , - - - - & O o     T.T.T.T.T.T.T.T.T.T.T.T.",
"T.T.T.T.T.T.T.T.T.T.T.T.T.                                      . .       T.T.T.T.T.T.T.T.T.T.T.T.T.",
"T.T.T.T.T.T.T.T.T.T.T.T.T.T.                                            T.T.T.T.T.T.T.T.T.T.T.T.T.T.",
"T.T.T.T.T.T.T.T.T.T.T.T.T.T.T.T.T.T.T.T.T.T.T.T.T.T.T.T.T.T.T.T.T.T.T.T.T.T.T.T.T.T.T.T.T.T.T.T.T.T.",
"T.T.T.T.T.T.T.T.T.T.T.T.T.T.T.T.T.T.T.T.T.T.T.T.T.T.T.T.T.T.T.T.T.T.T.T.T.T.T.T.T.T.T.T.T.T.T.T.T.T.",
"T.T.T.T.T.T.T.T.T.T.T.T.T.T.T.T.T.T.T.T.T.T.T.T.T.T.T.T.T.T.T.T.T.T.T.T.T.T.T.T.T.T.T.T.T.T.T.T.T.T.",
"T.T.T.T.T.T.T.T.T.T.T.T.T.T.T.T.T.T.T.T.T.T.T.T.T.T.T.T.T.T.T.T.T.T.T.T.T.T.T.T.T.T.T.T.T.T.T.T.T.T.",
"T.T.T.T.T.T.T.T.T.T.T.T.T.T.T.T.T.T.T.T.T.T.T.T.T.T.T.T.T.T.T.T.T.T.T.T.T.T.T.T.T.T.T.T.T.T.T.T.T.T.",
"T.T.T.T.T.T.T.T.T.T.T.T.T.T.T.T.T.T.T.T.T.T.T.T.T.T.T.T.T.T.T.T.T.T.T.T.T.T.T.T.T.T.T.T.T.T.T.T.T.T."
};
