/* XPM */
static char *result[] = {
/* columns rows colors chars-per-pixel */
"50 50 156 2 ",
"   c #393457",
".  c #383358",
"X  c #3E3958",
"o  c #433957",
"O  c #4A3C57",
"+  c #433E59",
"@  c #503F56",
"#  c #474159",
"$  c #4B445A",
"%  c #554256",
"&  c #5A4456",
"*  c #534C5C",
"=  c #5A535D",
"-  c #634956",
";  c #6A4C56",
":  c #634D59",
">  c #635A5E",
",  c #63555B",
"<  c #725055",
"1  c #7F5655",
"2  c #69605F",
"3  c #635B60",
"4  c #635867",
"5  c #645C72",
"6  c #716860",
"7  c #7E7462",
"8  c #64607C",
"9  c #855955",
"0  c #895B55",
"q  c #9A6454",
"w  c #A06754",
"e  c #A46954",
"r  c #A16A5A",
"t  c #A0775C",
"y  c #B37054",
"u  c #BA7354",
"i  c #867B64",
"p  c #897E64",
"a  c #A27D78",
"s  c #C17753",
"d  c #C57953",
"f  c #D07E53",
"g  c #998C66",
"h  c #9F9368",
"j  c #A08562",
"k  c #A29166",
"l  c #A29569",
"z  c #A59869",
"x  c #B1A46B",
"c  c #B9AA6C",
"v  c #D68153",
"b  c #DD8553",
"n  c #DE8954",
"m  c #DE8A5B",
"M  c #DD9F5E",
"N  c #E08653",
"B  c #E58852",
"V  c #F18E52",
"C  c #F99352",
"Z  c #F99D57",
"A  c #F9975A",
"S  c #F99C5C",
"D  c #EFAA5F",
"F  c #F9A359",
"G  c #F8AC5D",
"H  c #F8B05F",
"J  c #FA9C63",
"K  c #C0A065",
"L  c #DFAF65",
"P  c #C4B56E",
"I  c #CEB36B",
"U  c #DDB668",
"Y  c #F9A163",
"T  c #FAA269",
"R  c #F9AA66",
"E  c #E4B566",
"W  c #F8B361",
"Q  c #F8BA64",
"!  c #F8BB69",
"~  c #FAA773",
"^  c #FAAB74",
"/  c #FAAC7A",
"(  c #F9B774",
")  c #FAB07E",
"_  c #F9BD7B",
"`  c #F9BC76",
"'  c #D8C16E",
"]  c #D5C470",
"[  c #DCCB72",
"{  c #DDCD79",
"}  c #F8C167",
"|  c #F8C669",
" . c #F7CE6D",
".. c #F8CA6B",
"X. c #F7D26E",
"o. c #F8C572",
"O. c #F9C37F",
"+. c #E3D273",
"@. c #EFDD75",
"#. c #F7D570",
"$. c #F8D776",
"%. c #F7DC72",
"&. c #F8D378",
"*. c #F7E476",
"=. c #F7E57A",
"-. c #F8E67F",
";. c #A19884",
":. c #A39095",
">. c #A29D9B",
",. c #A4A1B2",
"<. c #E0A88B",
"1. c #FBB78C",
"2. c #FBBB8B",
"3. c #FAB583",
"4. c #FBBB94",
"5. c #DFD49E",
"6. c #F9CD82",
"7. c #F9D88E",
"8. c #FBC595",
"9. c #FCC19D",
"0. c #FBCB98",
"q. c #FADE9A",
"w. c #F8E784",
"e. c #F8E88A",
"r. c #F9E397",
"t. c #F9EA93",
"y. c #FAE09B",
"u. c #F9EC9D",
"i. c #FCC5A4",
"p. c #FCCBAE",
"a. c #E1C6BB",
"s. c #FCCFB1",
"d. c #FCD2B4",
"f. c #FBDFB1",
"g. c #FDD4BB",
"h. c #FAEFAE",
"j. c #FAEDA2",
"k. c #FAEFB0",
"l. c #FCECBF",
"z. c #FCE5BE",
"x. c #FBF1B7",
"c. c #E1DBC4",
"v. c #FDDCC7",
"b. c #FDDECA",
"n. c #FDE0CF",
"m. c #FCF5CB",
"M. c #FDE3D3",
"N. c #FDF7D5",
"B. c #FDF8DB",
"V. c #E3E2E7",
"C. c #FEEDE2",
"Z. c #FEF2E6",
"A. c #FEF3EC",
"S. c #FFFBF6",
"D. c #FFFEFD",
"F. c None",
/* pixels */
"F.F.F.F.F.F.F.F.F.F.F.F.F.F.F.F.F.F.F.F.F.F.F.F.F.F.F.F.F.F.F.F.F.F.F.F.F.F.F.F.F.F.F.F.F.F.F.F.F.F.",
"F.F.F.F.F.F.F.F.F.F.F.F.F.F.F.F.F.F.F.F.F.F.F.F.F.F.F.F.F.F.F.F.F.F.F.F.F.F.F.F.F.F.F.F.F.F.F.F.F.F.",
"F.F.F.F.F.F.F.F.F.F.F.F.F.F.F.F.F.F.F.F.F.F.F.F.F.F.F.F.F.F.F.F.F.F.F.F.F.F.F.F.F.F.F.F.F.F.F.F.F.F.",
"F.F.F.F.F.F.F.F.F.F.F.F.F.F.F.F.F.F.F.F.F.F.F.F.F.F.F.F.F.F.F.F.F.F.F.F.F.F.F.F.F.F.F.F.F.F.F.F.F.F.",
"F.F.F.F.F.F.F.F.F.F.F.F.F.F.F.F.F.F.F.F.F.F.F.F.F.F.F.F.F.F.F.F.F.F.F.F.F.F.F.F.F.F.F.F.F.F.F.F.F.F.",
"F.F.F.F.F.F.F.F.F.F.F.F.F.F.F.F.F.F.F.F.F.F.F.F.F.F.F.F.F.F.F.F.F.F.F.F.F.F.F.F.F.F.F.F.F.F.F.F.F.F.",
"F.F.F.F.F.F.F.F.F.F.F.F.F.F.                                            F.F.F.F.F.F.F.F.F.F.F.F.F.F.",
"F.F.F.F.F.F.F.F.F.F.F.F.F.                                                F.F.F.F.F.F.F.F.F.F.F.F.F.",
"F.F.F.F.F.F.F.F.F.F.F.F.    X $ = > > > > > > > > > > , : : - - - & O o     F.F.F.F.F.F.F.F.F.F.F.F.",
"F.F.F.F.F.F.F.F.F.F.F..     # 2 p h h h h h h z h h h j t w w w w 0 ; O     . F.F.F.F.F.F.F.F.F.F.F.",
"F.F.F.F.F.F.F.F.F.F.        $ i c [ [ [ [ [ [ [ [ [ [ U M n b b b u 9 %       . F.F.F.F.F.F.F.F.F.F.",
"F.F.F.F.F.F.F.F.F.    X $ * 6 z ] *.%.%.X.X.X.X.%.%.=.X.Q F Z Z C v e < % O X .   F.F.F.F.F.F.F.F.F.",
"F.F.F.F.F.F.F.F.F.    $ > p z P +.*.X.| Q Q Q Q ..#.*.#...Q H F C B d e 0 ; O     F.F.F.F.F.F.F.F.F.",
"F.F.F.F.F.F.F.F.F.  . = p c [ +.@.%...H F F F F Q  .*.%.%.X.| H C V B b u 0 &     F.F.F.F.F.F.F.F.F.",
"F.F.F.F.F.F.F.F.F..   = g ] *.*.%.X.Q H F Z Z Z H | #.*.%.*. .W Z C C C f q &   . F.F.F.F.F.F.F.F.F.",
"F.F.F.F.F.F.F.F.      = g ] %.X.| Q Q Q W Q Q Q Q Q Q ..#.*.X.W C C C C v q &       F.F.F.F.F.F.F.F.",
"F.F.F.F.F.F.F.        = g ] %...H G W | X.X.X.X.} W F Q  .*. .H Z C C C f w @ o .     F.F.F.F.F.F.F.",
"F.F.F.F.F.F.    X + # 2 k ' X.} H F ! &.w.w.*.*. .W Z H } X...Q F Z C C f e ; O o       F.F.F.F.F.F.",
"F.F.F.F.F.F.    $ > 7 g c E } H W ! 6.q.h.t.e.*.X.| W W Q } Q Q W G F C V s q 9 - O     F.F.F.F.F.F.",
"F.F.F.F.F.F.    = i x I D D H } ..&.y.l.N.x.t.*.%.#.X.| H G H } ..} G Z V B f y 9 &     F.F.F.F.F.F.",
"F.F.F.F.F.F.    > h [ X.} F F H X.w.k.B.S.m.j.*.*.*.*. .H Z F } %.X.Q F C C C f w - .   F.F.F.F.F.F.",
"F.F.F.F.F.F.    > h [ X.H F Z H X.w.k.B.S.m.u.*.*.*.*...H Z G } %.X.W Z C C C N w -     F.F.F.F.F.F.",
"F.F.F.F.F.F.    > h [ #.} F F Q X.w.h.B.S.m.u.*.*.*.*. .H C F } %.X.W Z C C C N w -     F.F.F.F.F.F.",
"F.F.F.F.F.F.    > h [ X.H F Z Q X.w.h.B.S.m.j.*.*.*.*. .H C G } %.X.Q C C C C B w -     F.F.F.F.F.F.",
"F.F.F.F.F.F.    > h [ #.Q F Z H X.-.u.x.m.h.e.*.*.*.*...H C G Q %.X.W Z C C C f w -     F.F.F.F.F.F.",
"F.F.F.F.F.F.    > h [ #.H F F } X.=.e.t.j.t.w.*.*.*.*...H Z G } %.X.Q Z C C C b w -     F.F.F.F.F.F.",
"F.F.F.F.F.F.    > h [ #.} F F H X.=.*.=.=.=.=.*.*.*.*. .H C F } %.X.Q F C C C b w -     F.F.F.F.F.F.",
"F.F.F.F.F.F.    > h [ #.Q F Z H X.=.*.*.*.=.*.*.*.*.*. .H Z R O.r.7.` S C C C b w -     F.F.F.F.F.F.",
"F.F.F.F.F.F.    > h [ #.H F F } X.*.*.*.*.=.*.*.*.*.*...H Z ^ 8.m.f.2.Y C C C b w -     F.F.F.F.F.F.",
"F.F.F.F.F.F.    , h [ X.Q F F H X.*.*.*.*.*.*.=.*.*.*. .H Z ) s.Z.M.9.J C C C b w -     F.F.F.F.F.F.",
"F.F.F.F.F.F.    = i x I L D H H | #.%.%.*.*.*.*.%.#.X.o.` ) 4.p.b.g.1.J V N f y 9 &     F.F.F.F.F.F.",
"F.F.F.F.F.F.    $ > i g K E } } H H ..%.*.*.*.*.X.| W _ 8.d.p.i.4.1.~ A B s q 9 - O   . F.F.F.F.F.F.",
"F.F.F.F.F.F.    X + $ 2 z ]  .Q G F Q X.*.*.*.*...W Z 3.s.C.b.i.~ J A C N e ; O o   .   F.F.F.F.F.F.",
"F.F.F.F.F.F.F.        = g ] %.| H G W | X.X.X.X.o.( ~ i.n.S.M.4.J C C C f q - .       F.F.F.F.F.F.F.",
"F.F.F.F.F.F.F.F.      = g ] *. .| Q Q W Q Q Q Q _ 8.p.v.C.S.M.i.J C C C f w & .     F.F.F.F.F.F.F.F.",
"F.F.F.F.F.F.F.F.F..   = g ] *.*.%.X.} H Z Z Z Z 2.g.C.A.S.D.M.4.J C C C f q & o . F.F.F.F.F.F.F.F.F.",
"F.F.F.F.F.F.F.F.F.    * i c [ +.@.%.| W F Y J ~ i.n.D.S.A.C.g.1.J V B f s 0 @ .   F.F.F.F.F.F.F.F.F.",
"F.F.F.F.F.F.F.F.F.    $ > p z P +.*.X.| ! 3.8.p.v.C.D.C.v.p.4.~ A N d e 0 ; O .   F.F.F.F.F.F.F.F.F.",
"F.F.F.F.F.F.F.F.F.    X $ = 6 z ] *.%.%.$.y.z.B.Z.S.D.M.i./ J J C f e < @ O o .   F.F.F.F.F.F.F.F.F.",
"F.F.F.F.F.F.F.F.F.F.        $ i c [ [ [ { 5.c.V.V.V.V.a.<.m m b N u 0 @ o . . . F.F.F.F.F.F.F.F.F.F.",
"F.F.F.F.F.F.F.F.F.F.F..     # 2 p h h h l ;.>.,.,.,.,.:.a r w w w 0 ; O       F.F.F.F.F.F.F.F.F.F.F.",
"F.F.F.F.F.F.F.F.F.F.F.F.    o $ = > > > 3 4 8 8 8 8 5 5 4 : - - - & O o     F.F.F.F.F.F.F.F.F.F.F.F.",
"F.F.F.F.F.F.F.F.F.F.F.F.F.                              . .     . .       F.F.F.F.F.F.F.F.F.F.F.F.F.",
"F.F.F.F.F.F.F.F.F.F.F.F.F.F.                  .       . . .             F.F.F.F.F.F.F.F.F.F.F.F.F.F.",
"F.F.F.F.F.F.F.F.F.F.F.F.F.F.F.F.F.F.F.F.F.F.F.F.F.F.F.F.F.F.F.F.F.F.F.F.F.F.F.F.F.F.F.F.F.F.F.F.F.F.",
"F.F.F.F.F.F.F.F.F.F.F.F.F.F.F.F.F.F.F.F.F.F.F.F.F.F.F.F.F.F.F.F.F.F.F.F.F.F.F.F.F.F.F.F.F.F.F.F.F.F.",
"F.F.F.F.F.F.F.F.F.F.F.F.F.F.F.F.F.F.F.F.F.F.F.F.F.F.F.F.F.F.F.F.F.F.F.F.F.F.F.F.F.F.F.F.F.F.F.F.F.F.",
"F.F.F.F.F.F.F.F.F.F.F.F.F.F.F.F.F.F.F.F.F.F.F.F.F.F.F.F.F.F.F.F.F.F.F.F.F.F.F.F.F.F.F.F.F.F.F.F.F.F.",
"F.F.F.F.F.F.F.F.F.F.F.F.F.F.F.F.F.F.F.F.F.F.F.F.F.F.F.F.F.F.F.F.F.F.F.F.F.F.F.F.F.F.F.F.F.F.F.F.F.F.",
"F.F.F.F.F.F.F.F.F.F.F.F.F.F.F.F.F.F.F.F.F.F.F.F.F.F.F.F.F.F.F.F.F.F.F.F.F.F.F.F.F.F.F.F.F.F.F.F.F.F."
};
