/* XPM */
static char *result[] = {
/* columns rows colors chars-per-pixel */
"50 50 94 2 ",
"   c #1C1117",
".  c #1E1319",
"X  c #23151C",
"o  c #25181D",
"O  c #2B1D1C",
"+  c #2E201D",
"@  c #33241E",
"#  c #38261E",
"$  c #3E2A1F",
"%  c #1F1920",
"&  c #271720",
"*  c #221B22",
"=  c #2B1B23",
"-  c #301D27",
";  c #321E29",
":  c #2B2222",
">  c #24222B",
",  c #2D272A",
"<  c #312126",
"1  c #382722",
"2  c #3C2A22",
"3  c #35232B",
"4  c #39242E",
"5  c #3B282F",
"6  c #262731",
"7  c #272831",
"8  c #292B35",
"9  c #3D2531",
"0  c #3E2A32",
"q  c #2B313C",
"w  c #412E24",
"e  c #463225",
"r  c #4B3626",
"t  c #4E3827",
"y  c #473228",
"u  c #4D3728",
"i  c #4F3928",
"p  c #513A26",
"a  c #5A3F27",
"s  c #543D2A",
"d  c #593F28",
"f  c #422B35",
"g  c #462D39",
"h  c #482F3A",
"j  c #463138",
"k  c #4B333C",
"l  c #57402A",
"z  c #5B422B",
"x  c #5D4230",
"c  c #63462B",
"v  c #65492E",
"b  c #6B4C2D",
"n  c #624731",
"m  c #644A31",
"M  c #6B4E31",
"N  c #6F5133",
"B  c #745434",
"V  c #785736",
"C  c #7A5937",
"Z  c #76573A",
"A  c #7D5B3A",
"S  c #2E3642",
"D  c #2E3844",
"F  c #333942",
"G  c #313E4B",
"H  c #4F3740",
"J  c #4F3840",
"K  c #513941",
"L  c #33414E",
"P  c #354351",
"I  c #384755",
"U  c #354856",
"Y  c #374B5A",
"T  c #3A4C5C",
"R  c #3B5363",
"E  c #3C5768",
"W  c #3E596B",
"Q  c #40586A",
"!  c #425D70",
"~  c #436275",
"^  c #46667A",
"/  c #48697E",
"(  c #815E3C",
")  c #84613F",
"_  c #866341",
"`  c #8A6643",
"'  c #8C6845",
"]  c #4A6E83",
"[  c #4A7186",
"{  c #4C748A",
"}  c #4D788E",
"|  c #527D94",
" . c #56849D",
".. c None",
/* pixels */
"............................                  .     . .         .     . ............................",
"..........................o 3 3 3 o . 3 3 3 3 * X < 3 3 3 =   = 3 3 3 < X ..........................",
"..................X X X X o j J H = : J H H J < X j K H J 0 . 0 K K K f X X X . X ..................",
"..............    3 f j j j h f f = = g h f 9 = o 9 h f 0 = . 3 f h 0 ; X : f h 3   . ..............",
"............= < < 4 f f j g 4 ; - & X < 3 - & X X = 3 - & o   = ; ; = = - f k k f : < = ............",
"........... f K K < X = 9 9 o .       . . . . . .   .   . .       . X o j g f f k K K f . ..........",
"........& 3 f h h - . X o = 2 e 2 e w e w w e w w w w e e w w e w w w w < = & = 3 h f 9 & X ........",
"....... & 9 9 4 3 - O + o 1 s z z z n z c z l z m c m z l z c z z c z r # @ + O - 4 4 - = X   ......",
"....    o - - = X 2 s p s z B M l N C C C N l v V V V Z z v V b b V c z c d s s 2 . . . .     . ....",
"....X < 3 o & & 2 r d z v M B b l N C C C N z M C V V Z z v C M N ( M z N M M b l $ o o 4 9 - X ....",
"..X & f f o X + z z z c B A C M z N C C C N z M C C C C c v C M N ` N z B V C C M s + = j k f & X ..",
". = 9 f g k = 1 N c z c V _ ( M l N C C B Z l M C C ) _ m v C b B ` N d c N C C M s O . o 4 f f =   ",
"  = f f 4 ; 1 u V v l c C ) A M l N C C C B z M C C A A m v C M B _ N z c V ) A b s e +   = 4 ; & . ",
"X = f f ; . y m V m l c C ' A M l N C C C N l M C V C V x v C M V _ M z c C ` A M l l e . o = - o . ",
"= - ; 3 = . s B C m z c C ` ( b l B ) _ A Z z v V M V _ c c b C ) A b l c V ` A M l M s . . X X . . ",
"& & & & = # c V C v l c C ` ( b l N ( ) A B z M B b V ` c z c ) _ C v l c V ` A M l N c # X X < < 3 ",
". . . . @ z N C C v z v A ) A M l N C C C Z z M B b C ` c z v ( ) A M z z C ) A N l M M a 1 & k H H ",
"j 0 0 . 2 M Z C C v z M A ' A M z N ( ) A N l b B b C ) m z v A ) C M z B B B ) V z B C N 1 & f h g ",
"k k 0 + @ l B C C v c V ) ) A M z b A ' A B z M B b B ' c c b ( A A M z B N b ) Z l M C C w * 9 f f ",
"f ,       . z C C M z V C A C M s c B _ ) N z M B b C ) m v C C C C m m B N b ) Z l B C C w o 9 f 9 ",
"3 = X G q   @ 2 2 # # 2 m A A M l c B ) ) B z m C B A _ m m C ) ) C M z B b b C N z N A _ e o 3 4 ; ",
"& o % E E q 8 8 q q > . l ) A N s c B ' ( B z M C A A ) m c C ) ) C v z B B B B M l N A _ e . = = = ",
". . * E }  .[ /  .[ E * 2 C C M l c B ' ( B z m C C C C x c C C C C M c B C B V M l b C A e . . . . ",
"0 = % E ~ U L L U P q % l C C M s c B ) ( B z b C C ) A m m C C C C v z B B B V M z B A ) 2 o , 4 9 ",
"J 3 % T P   . .     %   l B C M z c B ' A N z M C C A ` x v C A C C m x V B b V M d b ( ' y = h H H ",
"f < . * %   + : + + @ @ l C C M l z B ' A B z b C C C C v v A A ) C v x B V V V M a c B ' y & f f f ",
"9 - & . . O e s l l 2 l m C C M l v C ' ) B z v B C C V x c B A ` C m x B V C C M d c B ' y X ; 9 ; ",
"= - = . O 2 m C C m c V C C C M z N A ' A B z z M B C V z z M A ` A v z N B B N m s c B ' y X = - - ",
"X X X . # N Z V C v z Z C A C N z N C A C B z v B C V V v z b A ` A n u 1 1 < 1 w d c B ` y . X . & ",
"- < : X 2 C C V C v z C A A C b l b C C C B z c B V C V z z v ) A d y 1 X > 8 % O w w c ` y X - ; ; ",
"K K k O w C C C C v z B ) ' A N l N C C C B z c b B C B z z b A N X . .   P ~ 6 . . . w ` y = k H K ",
"h h f o w C N N C M x V A A A b l B C C B B z z b ) ) B c z b A M X L ~ ~ [ | ] ~ ! 6 y ` y = f h h ",
"9 9 3 & w V b b ( b x B A A V M z N C C C B z c b ) ) V z z b ( M X Q  .[ ^ ^ / }  .S 2 ' y & 4 4 9 ",
"- - = X w C b B ` M c B ) ` ( M l N C C C N l z b ) ) V c z c ( M X Q { 7 o o . Y  .S e ` y X = - - ",
"o o & . w V b B ` N d M ( _ ( M z N V b B B z c N ) ) V z z c V c X T ^ >       L { q e ` y . o & & ",
"& & * . w C b B ` N d m V ` A M s B B b B B l z b ) ) B c c b B z O F R q 8 8 , L E 8 e _ w X * O = ",
"k k j * w C b B ` M a c V ` ( M s B V B V B z z N ) ) V c c B C m 1 + q [ }  .} E * : u A w & j k k ",
"j f 3 X O u c V ` N z c V ` A M z M B B B B z z b ) ( V n c B B N i # , I R T T F O s m V w & h h h ",
"f - . % * . i B ( n p a B ` ( M s B B v B B z c B ) ) C z z v B B b r @ X   X   O 2 Z _ V w o 9 f 9 ",
"f - & U G . o @ 1 - o O n _ A M d B B c C A z m C ) ) C c n V C B c z e @ @ @ + 2 s A _ V w X - ; ; ",
", : % E ! I L L P G q . s ` A M l N B c ( ( z M C ) A B z m C C B b z s s t i d x l A _ C 2 . * X O ",
"- + % E  . .{ /  .{ E > s ` A M z N B c ( ( z M C C C Z c m C C B c z x B N b ( Z z A _ C 2 . X X   ",
"o . % E R q 8 q S q > . u ) C N z b B b C A z M A ) ) V z m C C B c a c V N b ( Z x A _ V w * 0 g g ",
"= * . L F     o X X o o s A C M z b B c ( ( z b A ) ( Z c m C C B b a c B B B _ Z l Z _ V w = j k h ",
"K 4   .     + @ @ @ # @ x ' A M l M B c A A z v C C C C c m C C B c c c V C V _ Z d b ( C w X 9 f 9 ",
"j f - X   + r a z l t z Z ' A c e b B c N N z N C C C V z m C C C B c z B C C V b d B B N $ X f f f ",
"9 9 9 X O $ l b B z l Z A ( C z $ c b c v z p v C B B B d c C C B B z d B V B b d i b N c # X ; f 4 ",
"- - - X @ c c v b t e B B b v i $ a b c c z $ z C b c c e p C b c b t e B B c c p 2 a c b 1 X ; - - ",
"o & X . o $ $ $ $ @ O w w $ $ # O @ $ $ $ # O # w w $ $ O @ e w $ $ @ O w $ $ $ # O # $ $ o   X X X ",
"                                                                        X                         X "
};
