/* XPM */
static char *result[] = {
/* columns rows colors chars-per-pixel */
"50 50 104 2 ",
"   c #393457",
".  c #393458",
"X  c #3E3958",
"o  c #413957",
"O  c #4D3E56",
"+  c #403B58",
"@  c #464059",
"#  c #4C465A",
"$  c #4F485B",
"%  c #514056",
"&  c #594456",
"*  c #514A5B",
"=  c #57505C",
"-  c #5B545D",
";  c #654A56",
":  c #6B4C56",
">  c #655C5E",
",  c #765255",
"<  c #7B5555",
"1  c #765858",
"2  c #6A615F",
"3  c #76645D",
"4  c #766C61",
"5  c #796F61",
"6  c #7C7262",
"7  c #865A55",
"8  c #8E5D55",
"9  c #976255",
"0  c #9A6454",
"q  c #AC6D54",
"w  c #B26F54",
"e  c #AC7859",
"r  c #B87254",
"t  c #867B64",
"y  c #C47853",
"u  c #CA7B53",
"i  c #D27F53",
"p  c #AC865F",
"a  c #8D8265",
"s  c #978664",
"d  c #968A66",
"f  c #9A8C66",
"g  c #AB9465",
"h  c #A79A69",
"j  c #AB9E6A",
"k  c #B79A65",
"l  c #B1A36A",
"z  c #D78153",
"x  c #DB8353",
"c  c #E28753",
"v  c #E88A52",
"b  c #F28F52",
"n  c #E1985A",
"m  c #F69152",
"M  c #F99352",
"N  c #F99A56",
"B  c #F99F58",
"V  c #F8A45A",
"C  c #F6A95D",
"Z  c #F8AA5D",
"A  c #C4AC6A",
"S  c #D7AE66",
"D  c #C2B36D",
"F  c #C8B16B",
"G  c #C8B96E",
"H  c #E4AC63",
"J  c #F8B561",
"K  c #F4BD66",
"L  c #F8BD65",
"P  c #F8BA6A",
"I  c #D1C070",
"U  c #DCCC72",
"Y  c #E0C06C",
"T  c #F8C166",
"R  c #F8C468",
"E  c #F7CF6D",
"W  c #F8CB6B",
"Q  c #F7D36F",
"!  c #E0CF72",
"~  c #F8CF77",
"^  c #F9CB7F",
"/  c #E6D473",
"(  c #EEDC75",
")  c #F7D770",
"_  c #F7DB72",
"`  c #F7E376",
"'  c #F7E57B",
"]  c #FADB94",
"[  c #F8E684",
"{  c #F8E98C",
"}  c #F9E992",
"|  c #F9EB9C",
" . c #FAEDA3",
".. c #FAEEAB",
"X. c #FBE8B2",
"o. c #FBF0B3",
"O. c #FBF1B9",
"+. c #FCF5CD",
"@. c #FCF6D4",
"#. c #FDF9DD",
"$. c #FEFCEF",
"%. c #FEFDF4",
"&. c #FFFEFA",
"*. c None",
/* pixels */
"*.*.*.*.*.*.*.*.*.*.*.*.*.*.*.*.*.*.*.*.*.*.*.*.*.*.*.*.*.*.*.*.*.*.*.*.*.*.*.*.*.*.*.*.*.*.*.*.*.*.",
"*.*.*.*.*.*.*.*.*.*.*.*.*.*.*.*.*.*.*.*.*.*.*.*.*.*.*.*.*.*.*.*.*.*.*.*.*.*.*.*.*.*.*.*.*.*.*.*.*.*.",
"*.*.*.*.*.*.*.*.*.*.*.*.*.*.*.*.*.*.*.*.*.*.*.*.*.*.*.*.*.*.*.*.*.*.*.*.*.*.*.*.*.*.*.*.*.*.*.*.*.*.",
"*.*.*.*.*.*.*.*.*.*.*.*.*.*.*.*.*.*.*.*.*.*.*.*.*.*.*.*.*.*.*.*.*.*.*.*.*.*.*.*.*.*.*.*.*.*.*.*.*.*.",
"*.*.*.*.*.*.*.*.*.*.*.  . .                 X .     . X                       *.*.*.*.*.*.*.*.*.*.*.",
"*.*.*.*.*.*.*.*.*.*.*.  . X X X + + + + + + + X + X X X + + + X o + X X       *.*.*.*.*.*.*.*.*.*.*.",
"*.*.*.*.*.*.*.*.*.*.  . . # - 2 4 4 4 4 4 5 4 4 5 4 4 3 1 1 , , , , : & O . . . *.*.*.*.*.*.*.*.*.*.",
"*.*.*.*.*.*.*.*.    . . . = 6 f j j j j j j j j j j l g p e q q q q 0 < & .   .     *.*.*.*.*.*.*.*.",
"*.*.*.*.*.*.*.          . 2 d D ! ! ! ! ! ! U / ! ! ! Y H n c c c c u 9 : .           *.*.*.*.*.*.*.",
"*.*.*.*.*.*.*.    X O # = t l U ` _ _ ) ) ) Q ) _ ` ` Q R Z V N N M x w 7 & O O X     *.*.*.*.*.*.*.",
"*.*.*.*.*.*.*.  . @ - 4 a j G / ` Q W L R T T R E Q ` _ W R J Z N M v u q 8 , & o     *.*.*.*.*.*.*.",
"*.*.*.*.*.*.*.  . $ 4 f D I ! ( _ E L Z Z Z Z Z K Q _ ` Q Q W L Z M b c i y 0 , O     *.*.*.*.*.*.*.",
"*.*.*.*.*.*.*.  . = a D ` ` ` ` ) T Z M M M M N J R _ ` ` ` ` W J N M M M M y 8 &     *.*.*.*.*.*.*.",
"*.*.*.*.*.*.      = a G ` ` Q Q W T J Z Z Z V Z J T W Q _ _ ` W J N M M M M y 8 &       *.*.*.*.*.*.",
"*.*.*.*.*.      . = a G ` Q W L J L T T T T T L L J J T E ) ` R J N M M M M y 8 &         *.*.*.*.*.",
"*.*.*.*..   .     = a l ` Q L Z Z J R Q ) ) ) Q R J V Z L Q ` W J M M M M M u 8 O         . *.*.*.*.",
"*.*.*.*.    + @ # 2 f F ) W J Z V P ~ [ [ [ ` _ W J V Z J W ) R J V N N M M u 0 : O O X     *.*.*.*.",
"*.*.*.*.    * 2 6 s k S R L L J P ^ ] ..| } [ ` Q R J J L T R T L J Z V N M x r 0 < ; O     *.*.*.*.",
"*.*.*.*.  + > t j A S H Z J L R ~ ] X.+.O. .{ ` _ Q W R J J Z J L R R J V M v i u q 7 ; X   *.*.*.*.",
"*.*.*.*.  + 3 h U Q T Z M Z L Q [ ..+.%.#.o.{ ` ` ` ` E L Z N Z R ) Q L V M M M b i q , +   *.*.*.*.",
"*.*.*.*.  + 5 j U ) T C M Z L ) [ ..@.&.#.O.} ` ` ` ` Q T V M Z R ) ) L V M M M M c q , o   *.*.*.*.",
"*.*.*.*.  + 5 j U ) L C M Z L ) [ X.@.&.#.O.} ` ` ` ` Q L V M J R _ ) R V M M M M c q , o   *.*.*.*.",
"*.*.*.*.  + 5 j ! ) T Z M Z T ) [ ..@.&.#.O.} ` ` ` ` ) L V M Z R ) ) T Z M M M M c q , o   *.*.*.*.",
"*.*.*.*.  + 3 j ! ) L Z M Z T ) [ ..+.%.@.o.{ ` ` ` ` ) L V N Z R ) ) T V M M M M c q , o   *.*.*.*.",
"*.*.*.*.X + 4 j ! ) T C M Z T ) [ | o.+.O. .[ ` ' ` ` ) L V M Z R _ ) L Z M M M M c q , +   *.*.*.*.",
"*.*.*.*.  + 5 j ! ) T C M Z L ) ' { }  .| { [ ' ` ` ` Q L Z N Z R ) ) R Z M M M M c q , o   *.*.*.*.",
"*.*.*.*.  + 4 j ! ) T C M Z L ) ` ' ' [ ' ' ` ` ` ` ` ) L V M Z R ) ) T V M M M M c q , X   *.*.*.*.",
"*.*.*.*.  + 4 j ! Q T Z M V T ) ` ` ` ` ` ` ` ` ` ` ` ) L V N Z R _ ) T Z M M M M c q , o   *.*.*.*.",
"*.*.*.*.  + 5 j ! ) T Z M Z T ) ` ` ` ` ` ` ` ` ` ` ` Q L Z M Z R ) ) T V M M M M c q , o   *.*.*.*.",
"*.*.*.*.  + 4 j U ) T Z M Z T ) ` ` ` ` ` ` ` ` ` ` ` Q L V N Z R ) ) T V M M M M c q , X   *.*.*.*.",
"*.*.*.*.. + 4 h U E L Z M Z T Q ` ` ` ` ` ` ` ` ` ` ` Q L Z N Z R ) Q L V M M b b i q , o   *.*.*.*.",
"*.*.*.*.. X - a h A S H Z J T R W ) ` ` ` ` ` ` _ Q W R L J Z J T R T J V M v i u q 7 ; X   *.*.*.*.",
"*.*.*.*.    $ 2 5 d k H R T J J J R ) ` ` ` ` ` E R J J L L R T J J Z Z N M x r 0 , : O     *.*.*.*.",
"*.*.*.*.. X + # # 2 f G _ W J Z V J E ` ` ` ` ` R J V Z L W ) R J V N N M m u 0 : O o o     *.*.*.*.",
"*.*.*.*.        . = a l ` Q T Z C J R Q ) ) ) E T J V Z T Q ` W J N M M M M y 8 &         X *.*.*.*.",
"*.*.*.*.*.      . = a D ` Q W T J L L R T T T T L L J T W ) ` R J N M M m m y 8 &         *.*.*.*.*.",
"*.*.*.*.*.*.      = a D ` ` Q Q W L J Z Z Z Z Z J T R Q ) ` ` W Z N M M M M y 8 &       *.*.*.*.*.*.",
"*.*.*.*.*.*.*.    = a D ` ` ` ` ) R Z M M M m N J R ` ` ` ` ` W J N M M M M y 8 &     *.*.*.*.*.*.*.",
"*.*.*.*.*.*.*.    $ 4 f D I U _ _ E L Z V Z C Z L E ` _ ) Q W J Z N b c i y 0 , O     *.*.*.*.*.*.*.",
"*.*.*.*.*.*.*.    @ - 4 a h G / ` Q W T T L R R W ) ` ) W R J Z V M v u q 8 , ; o     *.*.*.*.*.*.*.",
"*.*.*.*.*.*.*.    X @ $ = t l U ` ` _ ) ) ) _ _ _ _ ` ) T J N N M M x w 7 & O o o     *.*.*.*.*.*.*.",
"*.*.*.*.*.*.*.    .       2 d D ! ! ! ! ! ! ! ! / ! ! Y H n c c c c u 9 ;   X         *.*.*.*.*.*.*.",
"*.*.*.*.*.*.*.*.        . = 6 d j j j j j j j j j j j g p e q q q q 0 < &     .     *.*.*.*.*.*.*.*.",
"*.*.*.*.*.*.*.*.*.*..     # - 2 4 4 4 5 3 4 4 5 4 4 4 3 3 1 , , , < : & O       *.*.*.*.*.*.*.*.*.*.",
"*.*.*.*.*.*.*.*.*.*.*.      X X @ X X + + X X @ X X X + + + + X X o X X       *.*.*.*.*.*.*.*.*.*.*.",
"*.*.*.*.*.*.*.*.*.*.*.                          . .             .             *.*.*.*.*.*.*.*.*.*.*.",
"*.*.*.*.*.*.*.*.*.*.*.*.*.*.*.*.*.*.*.*.*.*.*.*.*.*.*.*.*.*.*.*.*.*.*.*.*.*.*.*.*.*.*.*.*.*.*.*.*.*.",
"*.*.*.*.*.*.*.*.*.*.*.*.*.*.*.*.*.*.*.*.*.*.*.*.*.*.*.*.*.*.*.*.*.*.*.*.*.*.*.*.*.*.*.*.*.*.*.*.*.*.",
"*.*.*.*.*.*.*.*.*.*.*.*.*.*.*.*.*.*.*.*.*.*.*.*.*.*.*.*.*.*.*.*.*.*.*.*.*.*.*.*.*.*.*.*.*.*.*.*.*.*.",
"*.*.*.*.*.*.*.*.*.*.*.*.*.*.*.*.*.*.*.*.*.*.*.*.*.*.*.*.*.*.*.*.*.*.*.*.*.*.*.*.*.*.*.*.*.*.*.*.*.*."
};
