/* XPM */
static char *result[] = {
/* columns rows colors chars-per-pixel */
"50 50 109 2 ",
"   c #2E3D1D",
".  c #353B1E",
"X  c #3B391F",
"o  c #3E3B20",
"O  c #443F1F",
"+  c #443620",
"@  c #4B3421",
"#  c #453820",
"$  c #503723",
"%  c #543B25",
"&  c #5A3F28",
"*  c #13461A",
"=  c #1C431B",
"-  c #134B1B",
";  c #184C19",
":  c #12561C",
">  c #19501C",
",  c #125B1C",
"<  c #1A5C1B",
"1  c #23411C",
"2  c #2D461E",
"3  c #264B1E",
"4  c #2B4F1E",
"5  c #33481F",
"6  c #2A511E",
"7  c #205818",
"8  c #10661C",
"9  c #1D621A",
"0  c #13691B",
"q  c #1B6D1A",
"w  c #1B711B",
"e  c #2A6416",
"r  c #2C6D17",
"t  c #226519",
"y  c #206D19",
"u  c #277317",
"i  c #2C7516",
"p  c #247118",
"a  c #287518",
"s  c #2C7E19",
"d  c #327515",
"f  c #3F7415",
"g  c #337A15",
"h  c #3D7F13",
"j  c #3A6528",
"k  c #437617",
"l  c #4D701C",
"z  c #427B1C",
"x  c #4F4E29",
"c  c #56462A",
"v  c #5C412A",
"b  c #524D29",
"n  c #5D492C",
"m  c #445227",
"M  c #535E22",
"N  c #64462D",
"B  c #604B2B",
"V  c #6F4E32",
"C  c #704F33",
"Z  c #725034",
"A  c #7F593A",
"S  c #6E7E2A",
"D  c #776735",
"F  c #736933",
"G  c #7D6539",
"H  c #7F6A38",
"J  c #7C7234",
"K  c #835C3C",
"L  c #85633D",
"P  c #88603F",
"I  c #806939",
"U  c #8D6341",
"Y  c #906643",
"T  c #956945",
"R  c #996C47",
"E  c #9C6E48",
"W  c #A4744C",
"Q  c #AA784F",
"!  c #B67F51",
"~  c #B87F51",
"^  c #3E8113",
"/  c #3A8A17",
"(  c #3E8C18",
")  c #418513",
"_  c #468C13",
"`  c #528719",
"'  c #568B19",
"]  c #439216",
"[  c #4B9314",
"{  c #4E9914",
"}  c #529E14",
"|  c #5B9E15",
" . c #559118",
".. c #56A114",
"X. c #5BA415",
"o. c #64AA15",
"O. c #69AE15",
"+. c #67A518",
"@. c #6DB116",
"#. c #72B516",
"$. c #628B21",
"%. c #6C8029",
"&. c #799127",
"*. c #789F21",
"=. c #BB8254",
"-. c #C48755",
";. c #C68957",
":. c #CE8E59",
">. c None",
/* pixels */
">.>.>.>.>.>.>.>.>.>.>.>.>.>.>.>.^ ..} { h u 8 8 8 h h } ] } } >.8 >.>.>.>.>.>.>.>.>.>.>.>.>.>.>.>.>.",
">.>.>.>.>.>.>.>.>.>.>.>.>.>.>.) ^ X.} #.) o.#.O...) } } } } } 8 8 >.>.>.>.>.>.>.>.>.>.>.>.>.>.>.>.>.",
">.>.>.>.>.>.>.>.>.>.>.>.>.>.} } #.#.#.#.) #.#.@.@.o...} } ^ ^ [ 8 8 >.>.>.>.>.>.>.>.>.>.>.>.>.>.>.>.",
">.>.>.>.>.>.>.>.>.>.>.>.>./ } } O.#.O.@.@.#.#.#.#.#.} } [ [ ] } / 0 >.>.>.>.>.>.>.>.>.>.>.>.>.>.>.>.",
">.>.>.>.>.>.>.>.>.>.>.>.>.8 } } } } } #.#.#...} ..} } } } { ..} ( , : >.>.>.>.>.>.>.>.>.>.>.>.>.>.>.",
">.>.>.>.>.>.>.>.>.>.>.>.>.8 o.o...o.} #.#.#.#.#.#.#...} ' } w n 8 : : : >.>.>.>.>.>.>.>.>.>.>.>.>.>.",
">.>.>.>.>.>.>.>.>.>.>.>.^ q #.#.#.#.#.#.#.#.#.#.#.#...} } N q n 8 , 8 8 8 0 >.>.>.>.>.>.>.>.>.>.>.>.",
">.>.>.>.>.>.>.>.>.>.} } | X.} #.#.#.#.o.#.#.#.#.O.} } } { h N h 0 q h h } } >.>.>.>.>.>.>.>.>.>.>.>.",
">.>.>.>.>.>.>.h >.h } ..#.#.#...#.O.} } o.#.#.#.{ ..} } [ M k h h _ } ^ ^ _ } 8 8 8 >.>.>.>.>.>.>.>.",
">.>.>.>.>.>.^ [ [ F h ..#.#.#.O.#.#.} O.o.#.#.X.^ { } _ } ' } [ ^ _ } } } ^ h 8 8 8 , >.>.>.>.>.>.>.",
">.>.>.>.^ h ) ....} I ` @.*.#.#.#.#.#.#.O.h ^ h ^ h h ^ { _ ) } { } [ } } 0 0 8 0 8 : - * >.>.>.>.>.",
">.>.>.} { ) #.#.#.....L H +.#.@...X...O.h h { { [ ^ h ^ } { } } } { } } } h g 8 : : : - * >.>.>.>.>.",
">.>.>.} } #.#.o.} @.#.J ..X.} } } } } } } } } } / u h } } } } } } } } 0 ] h : : , 8 8 : * >.>.>.>.>.",
">.>.>.} } } #.@.@.#.#.#.#.#.} X.@.@.} } } ) } } z n x h l [ } } g ) 9 : < : 8 : 8 8 : : * >.>.>.>.>.",
">.>.h { } #.#.#.#.#.#.#.@.#.O.o.#.#...} { ^ ^ g 8 8 h n B ^ h h q 8 8 8 : : , 8 8 8 - : * * >.>.>.>.",
">.>.>.h | #.} #.#.#.#.#.o.@.#.#.o.@.) } } { ..^ { 8 x B h h h h 0 0 8 8 : : 8 8 8 8 : : : * >.>.>.>.",
">.h h F _ #.} O.#.#.#.#...#.#.#.{ { h } } } } } _ m N ^ ) } } } h 8 : : : : : : : , : : : * * >.>.>.",
">.- 8 j &.#.} } L ..#.#.o.} #.#.h q h ^ _ } } } } }  .^ ..} ..{ h u h 8 8 8 - * : : : : : * * >.>.>.",
">.e e [ $.S %.I h O.#.o.X._ h h , q h O _ } ] } } } } _ { ..} _ i h h u 8 8 : * - : : * * * * * >.>.",
">.>.^ } } } } K _ ) ^ ^ ^ k h : , 9 O g } } ) ^ } } } } [ { { { q h h h 8 8 : : * : * * * * * >.>.>.",
">.h ^ ) { } } $.D h _ } ) k p 8 8 5 p h ^ ^ _ ^ } _ } } ..^ y 8 8 8 8 : : : : : * - : : - >.>.>.>.>.",
">.>.>.h h ^ } } L $.} } i O 8 8 6 8 8 8 h h ^ 0 g h < : - - : : 8 8 8 * * * 1 * * : : : * * * >.>.>.",
">.>.8 g h { _ } ^ } } } w 8 @ 2 2 , 8 - - 8 8 : - * * - : 8 8 8 8 8 , * * * + * : : : @ * * * >.>.>.",
">.>.>.8 8 w } } ^ } } } ] 9 9 : O @ * * , : : : - - g q g 8 8 8 8 8 8 : : * * o o : * + * * * * >.>.",
">.: 8 , 8 ^ } } ) [ } } } } ..: , < O i g q 8 g q q ^ ^ h 8 8 8 8 8 , : * * * * 1 o   - * * * * >.>.",
">.>.* , 0 _ } ..} } } } } ) ) } [ q 9 h h ^ 8 y h ^ ^ ^ i : 8 8 , 8 , : : : * = + - - * * * * * >.>.",
">.* * , h ^ ) { } } } } } } } } ) h h h h g 8 h h h h k < - : 8 : : : : : * * @ : : : : * * * >.>.>.",
">.>.>.^ h i h p ^ i } { _ { } } ^ h h ^ q g h h h t r * * * 8 8 8 8 , : : - : : : : : - * * >.>.>.>.",
">.>.>.; : 8 0 i h h g ^ ^ h ^ ^ u h h h 8 8 0 0 8 , : * - : : : , 8 8 8 8 0 : : : : - * * * >.>.>.>.",
">.>.* * * : r h ^ ^ i g q h ^ h u 8 u * * , 8 : : : 1 : : , 8 8 8 8 8 8 8 8 : : : * * * * >.>.>.>.>.",
">.>.>.>.* * * 3 : - * - 8 @ ^ h ^ 7 8 * * : : : : : O : : : 8 8 8 8 : - : : : * : * * * * >.>.>.>.>.",
">.>.>.>.* - - : 2 # 2 .   = * , : - * - : : - : : : 2 2 - , 8 8 : : : : : : - * * * >.>.>.>.>.>.>.>.",
">.>.>.>.>.>.>.>.* : : o 8 8 8 8 : : : 8 : : : * - - : @ - : : = : : : * : : * * * * >.>.>.>.>.>.>.>.",
">.>.>.>.>.>.>.>.>.>.* # 8 8 8 8 : 8 8 8 8 : : - * * * = . * * + * * - * * * * >.>.>.>.>.>.>.>.>.>.>.",
">.>.>.>.>.>.>.>.>.>.- 0 6 8 8 8 8 8 8 8 8 : * : o * = * 1   + * * * * * * * >.>.>.>.>.>.>.>.>.>.>.>.",
">.>.>.>.>.>.>.>.>.>.>.8 8 8 : , 8 8 8 : : : * * @ 1   * * . o o = * * * >.>.>.>.>.>.>.>.>.>.>.>.>.>.",
">.>.>.>.>.>.>.>.>.>.>.>.>.>.>.: : : * * * * 1 @ @ 1 * = * @ @ @ >.>.>.>.>.>.>.>.>.>.>.>.>.>.>.>.>.>.",
">.>.>.>.>.>.>.>.>.>.>.>.>.>.>.>.- * o + * * O @ @ = o = @ @ @ @ >.>.>.>.>.>.>.>.>.>.>.>.>.>.>.>.>.>.",
">.>.>.>.>.>.>.>.>.>.>.>.>.>.>.>.>.>.>.N * * N @ N % $ @ @ % @ @ >.>.>.>.>.>.>.>.>.>.>.>.>.>.>.>.>.>.",
">.>.>.>.>.>.>.>.>.>.>.>.>.>.>.>.>.>.>.@ v @ N v $ N N @ @ v @ @ @ >.>.>.>.>.>.>.>.>.>.>.>.>.>.>.>.>.",
">.>.>.>.>.>.>.>.>.>.>.>.>.>.>.>.>.>.@ % Y % N N @ N C @ @ N % @ @ >.>.>.>.>.>.>.>.>.>.>.>.>.>.>.>.>.",
">.>.>.>.>.>.>.>.>.>.>.>.>.>.>.>.@ @ @ C E N K K & K K @ @ N N @ @ @ >.>.>.>.>.>.>.>.>.>.>.>.>.>.>.>.",
">.>.>.>.>.>.>.>.>.>.>.>.>.>.>.>.@ @ K Q Q K P Y Z P P & @ N N & @ @ @ @ >.>.>.>.>.>.>.>.>.>.>.>.>.>.",
">.>.>.>.>.>.>.>.>.>.>.>.>.>.>.>.@ ~ :.;.E K P Q Z P P K @ N N N @ @ @ @ >.>.>.>.>.>.>.>.>.>.>.>.>.>.",
">.>.>.>.>.>.>.>.>.>.>.>.>.>.>.>.:.:.:.-.Z Q ~ ~ K E K P & & N N N @ @ >.>.>.>.>.>.>.>.>.>.>.>.>.>.>.",
">.>.>.>.>.>.>.>.>.>.>.>.>.>.>.>.:.:.:.K E :.:.-.A Q Q Q T @ N N N N >.>.>.>.>.>.>.>.>.>.>.>.>.>.>.>.",
">.>.>.>.>.>.>.>.>.>.>.>.>.>.>.>.>.:.K C :.:.:.U v Q Q Q Q Z @ N N N >.>.>.>.>.>.>.>.>.>.>.>.>.>.>.>.",
">.>.>.>.>.>.>.>.>.>.>.>.>.>.>.>.>.N N :.:.:.:.@ O P Q Q Q R N @ >.>.>.>.>.>.>.>.>.>.>.>.>.>.>.>.>.>.",
">.>.>.>.>.>.>.>.>.>.>.>.>.>.>.>.>.>.>.>.:.:.:.@ @ $ Q Q Q K >.>.>.>.>.>.>.>.>.>.>.>.>.>.>.>.>.>.>.>.",
">.>.>.>.>.>.>.>.>.>.>.>.>.>.>.>.>.>.>.>.>.>.>.@ @ @ >.>.>.>.>.>.>.>.>.>.>.>.>.>.>.>.>.>.>.>.>.>.>.>."
};
