/* XPM */
static char *result[] = {
/* columns rows colors chars-per-pixel */
"50 50 211 2 ",
"   c #76AE2E",
".  c #78AF2F",
"X  c #6BBD27",
"o  c #6FB729",
"O  c #6EBC29",
"+  c #7BBF27",
"@  c #74B42C",
"#  c #79B52E",
"$  c #73BB2C",
"%  c #7ABB2E",
"&  c #77AD30",
"*  c #7CAD33",
"=  c #7EA439",
"-  c #76B531",
";  c #7CB433",
":  c #76BC32",
">  c #7ABA33",
",  c #7FB639",
"<  c #7DBC3A",
"1  c #5FCE26",
"2  c #66C425",
"3  c #69C226",
"4  c #65C925",
"5  c #67C628",
"6  c #6CC22B",
"7  c #66CA29",
"8  c #6ACA2A",
"9  c #71C127",
"0  c #7CC427",
"q  c #76CB27",
"w  c #7BCF23",
"e  c #73C42D",
"r  c #7CC22C",
"t  c #7BC92B",
"y  c #6AD02F",
"u  c #6EC931",
"i  c #74C232",
"p  c #7BC234",
"a  c #71CC35",
"s  c #76C739",
"d  c #7BC33B",
"f  c #7BC93D",
"g  c #909A36",
"h  c #979F3F",
"j  c #82BB2C",
"k  c #8ABF2C",
"l  c #82A534",
"z  c #82AC37",
"x  c #83A339",
"c  c #8BA53B",
"v  c #85AD3A",
"b  c #8CAC3D",
"n  c #91A63C",
"m  c #9BA73F",
"M  c #94AB3C",
"N  c #9BAD3B",
"B  c #83B435",
"V  c #89B337",
"C  c #83BB34",
"Z  c #8ABB36",
"A  c #84B33B",
"S  c #8BB43C",
"D  c #83BB3B",
"F  c #8CBB3B",
"G  c #93BC35",
"H  c #92B53D",
"J  c #9CB43E",
"K  c #93BA3C",
"L  c #9CBC3C",
"P  c #A8B73E",
"I  c #A5BB3B",
"U  c #85C327",
"Y  c #82CB25",
"T  c #84C42E",
"R  c #89C62A",
"E  c #8CCB2B",
"W  c #96CF29",
"Q  c #99D729",
"!  c #83C234",
"~  c #87C435",
"^  c #84C13C",
"/  c #8AC43C",
"(  c #8CC93B",
")  c #95C335",
"_  c #9DC437",
"`  c #9BCB36",
"'  c #92C23B",
"]  c #96CD3C",
"[  c #9CCC3D",
"{  c #94D233",
"}  c #A0C73E",
"|  c #A8CD3C",
" . c #929E42",
".. c #8EA440",
"X. c #85AF40",
"o. c #8DAB42",
"O. c #94A442",
"+. c #9BA443",
"@. c #94AC44",
"#. c #9BAC43",
"$. c #94AD49",
"%. c #9CAD4B",
"&. c #86B441",
"*. c #8CB443",
"=. c #85BC42",
"-. c #8BBB44",
";. c #8EB448",
":. c #8DBB4A",
">. c #94B342",
",. c #9BB443",
"<. c #92BA43",
"1. c #9CBA43",
"2. c #94B44C",
"3. c #9BB34C",
"4. c #93BB4C",
"5. c #99BD4D",
"6. c #8FBA53",
"7. c #96B551",
"8. c #9BB453",
"9. c #95BC52",
"0. c #9BBC55",
"q. c #9EB458",
"w. c #9DBD5A",
"e. c #A1AB47",
"r. c #A2AB4A",
"t. c #ACAD4D",
"y. c #A3B544",
"u. c #A8B543",
"i. c #A1BA42",
"p. c #AABD43",
"a. c #A1B44B",
"s. c #AAB24A",
"d. c #A2BB4B",
"f. c #A4AB54",
"g. c #ACAD53",
"h. c #A7A758",
"j. c #A6AD5C",
"k. c #ACAD5C",
"l. c #B0AB56",
"z. c #A4B453",
"x. c #A9B255",
"c. c #A2BB54",
"v. c #A9BD56",
"b. c #A4B45B",
"n. c #ACB55C",
"m. c #A2BB5C",
"M. c #A8B859",
"N. c #B2B257",
"B. c #B5BC5D",
"V. c #AEAE65",
"C. c #B1AD66",
"Z. c #AAB662",
"A. c #A5BD62",
"S. c #ABBC65",
"D. c #ADBB6A",
"F. c #B0B666",
"G. c #B7B66A",
"H. c #B5BC6D",
"J. c #BABB6E",
"K. c #AFBF72",
"L. c #B4BE73",
"P. c #BABA74",
"I. c #C2BD7A",
"U. c #C8BB7D",
"Y. c #84C343",
"T. c #8AC245",
"R. c #84C846",
"E. c #86C049",
"W. c #8CC34B",
"Q. c #84CB4A",
"!. c #8BCA4B",
"~. c #93C746",
"^. c #9DC047",
"/. c #93C24D",
"(. c #8EC351",
"). c #8ECB58",
"_. c #93C254",
"`. c #9AC256",
"'. c #96C55A",
"]. c #9BC35B",
"[. c #94CB5D",
"{. c #A3C14C",
"}. c #A8C84A",
"|. c #A3C357",
" X c #A2C25D",
".X c #ADC659",
"XX c #B2CC5B",
"oX c #9BC361",
"OX c #96CF61",
"+X c #9CCB66",
"@X c #A3C364",
"#X c #A9C265",
"$X c #A6C967",
"%X c #A4C46A",
"&X c #AAC36B",
"*X c #A1CA6A",
"=X c #B4C16F",
"-X c #ADC471",
";X c #A6CA71",
":X c #AACD71",
">X c #B4C372",
",X c #B9C275",
"<X c #B2CA77",
"1X c #B5C679",
"2X c #B9C47A",
"3X c #B2CC7F",
"4X c #C1C773",
"5X c #C0C479",
"6X c #B5CA81",
"7X c #CCC584",
"8X c #C1C88A",
/* pixels */
"+ $ 5 o 6 d Y.=.D > $ Q.; 7 ; < a '.w.A ,.4X4.D #.C A o 2 U $ e @ i R.].;.=.< : f , 1 $ : 7 T.d @ + ",
"o 2 o @ > m.2.T.y ; e < 7.:.A <.m.o.h z ' @X@XA Y.I U X @ o 2 @ - *.>X4.].u B 6 < *.D A , =.- v @ q ",
"o 3 3 6 $ ` ) *.; C :.i =.: A *.- i.H B @.< 7.A %.i.> X X o X 6 : : } ' *.; Z 4.p , : , b O Z % # $ ",
"2 2 # o.; * ; c > $ *.; e o A B D l.;X:.4.4.%.@.N u.v @ @ 2 6 A @.B * * v > $ *., e $ A ; < %.Y.O 6 ",
"  o F > * $ =.[.^ % >.; 6 - s OXD.:.<.S 6.;XOXS.} t.].> @ & $ 2.B # $ T.'.^ $ 1.- X - d ).%X=.F # - ",
"Y 6 T.< K 6 D @Xb 4.@X< > E > =.W.:.4.=.q.w.Y.w.m H.'.:.> T r `.^ K 6 D @Xb 5.oX; k R < =.E.:.-.: < ",
"@ 8 9.].K 3 - > o W.<X=.- ; : D &X].A.g.@.m.^ : n j.9.W.: ; f 9. XF 2 > > o W.<X< - > > =.%X].0.*.; ",
"A *.9.9.d C $ 5 R m.*.; i 6 - 0.;.2.D c J r.b 5 J z n * _ ,.q.0.0.d B $ 3 E m.*.; : O : 0.*.*.> * C ",
"F j.0.*.= =.d B =.:.: *._.4.F H A b M S 1.1.,.C t '.c.V ,.#.C.0.$.* =.< B =.:.$ S `.4.F *.z b b $ V ",
"C z o.b i :.-.S *X9.=.A.3XH.y./.].:X@.1.B D B G 1.(.*.H A >.V @.V v W.:.A -X/.=.&X6XG.1./.[.%X>.K @ ",
"B A > T & - o v A.>X_.D @XP.$., &.: *.$XD 4.i *.F 0.>.C 4.S F B e & ; o d S.&X8.=.#XL.$.p D 6 ] ].$ ",
"V V ].d > 6 6 $ 2.'.2.e < A.% $ @ U T , D 5.e % $ <.1.].d J 1.oX=.u o $ ; W.'.:.E ^ m.> $ 2 2 - ; > ",
"e F ].T.Y.^ : A < A % @ > O @ o o X o @ % > > 2 Z ! < - ; ! 1.0.:.;.< > ; B A ; 4 > @ $ 0 X O X 5 6 ",
"-.< o.A <.-.v ~ V b ; : @ 2 @ 3 o 2 2 @ B e ; z ( 1.C p O.m.f o.A <.T.o.F > b @ : @ o 0 4 o 2 X o % ",
"< _.3.>.$ C b #.%X%X!.W.* 8 - R 3 @ 2 2 > $ X C K > A.7.9.=.9.3.S > v J 3.+X+X(.W.% ; e O X 3 o o $ ",
"D 0.B 3.].R.3.x.K._.2X5.A 0.E.$ 4 @ @ @ F =.W.=.; @ =.A.B -.0., 3.|.T.d.n.S.w.,XT.A `.-.X O O O # B ",
"C Z.O.J.@X2.=.z.w. XD.5.; 0.-.X @ 6 A & ,./.0.A.b > -.*.* S F.O.I.@X~.=.g.x.@XD.4.B 9.f @ & e > @ < ",
"< b @.2X X2.; ,.v *.h.< v : > X ; < - 2.{.D d 0.B % B # * ^ v $.1XM.:.; %.A $.f.> B A ; @ i i - $.B ",
"D 8.m $ v x 2.v.>.H P S S < % i p 2.>.%X/.$ ; $ ; >X$X{ < =.2.e.; v = 4.M.<.J u.F D i > > p 3.D oXd ",
"7.m.K u.H.!.(.w.S.r.^ ).:.6 z 4.Q. XD , D r C V T =.:.=.7.0.m.J u.J.:.(.].A.%.| '.=.: : -.9.m.< ; d ",
"i.,.z.#.^.:.< W.m.$.&.].R.< r T.-.%.V p > ; ].F % =.H..X-.3.r.z.#.!.5.> 9.m.@.Y.].-.Z * =.<.%.v $ ; ",
"b `.0.f.^.q.A A.$.b &XW.].'.>.S X.#.p T.H 2.#X|.S v 0.7.y.@.M.c.%.d.(.< A.*.B &X4.b.'.$.S F #.Z D ; ",
"C < b.k.r.V z g +.a.f.P.U.o.r $ # K >X1X<.' *.$.@.1.; >.H L D b.k.y.B c g +.a.h.P.U...; @ 8 1.;X;X6 ",
"G / M i.P H H #.J L *.b n 3.a.) a.v.D Z.4.C v ,.u.d.F 1.,.i.K @.#.P H H @.K K >.b n a.d.F s.d.D q.i ",
"1.8X>.L % A b b - XXR.m.>.-X5X9.>.M.3.H V i / i.p.H.5.D S }.8X>.L e ^ M S @ ].-.m.b 1X5X8.#.|.>.H # ",
"i -X$.H , < D ; > R.(. Xh.4.S.b.,.A.H.j e f d.c.b S.^ % # ^ 2XO.*., D A ; e W.7..Xf._.@Xx.1.S.A.% j ",
"@ D ..XXY., : 6 5 =.w.:...z =.o.+.A.S.c j M.H.c.m Z t $ $ $ 2.O.@X^ : : o @ :.m.=. .; T...%. XZ.l 9 ",
"$ * *.D.: ; @ 3 v z @.; ; > ; b ,.A = N G S F.Z.N H 9 o X E $ <.D.i ; @ X < z @.- A @ z M ,.v x b j ",
"@ # >., * X =.=.< S D D.D T.#.< 3.B.N.x.Z N M J G V < 3 Y 9 > <.: * 3 Y.Y.B V S L.f ;.%.< 3.G.N.t.V ",
"0 @ i @ d W.%X0.:.&.r 9.< p B D Y.@XV.K 1.7X'.A %.V > @ 0 X X > 6 *.0.%X_.2.&.Z Q.A u , -.f $Xb.V K ",
"o 2 $ @ A L.9.].a ; B < 9.(.b }.b.o.m > -.&X#Xd 4.J # X 3 X @ 5 * Y.L.4.].a A i < 0.4.v 2.w.o.+.; T ",
"@ X X i > ` _ 2., / }.< < : A >.* u.H A $.> %.i #.J < E @ X O % - ; , D $.v / 6.d B i A o.@ p.S B D ",
"4 2 * $.B * ; v > $ @.> - 5 A C S g.$X;.3._.3.#.M u.; $ @ o 3 A *.; * * c > % o.; t o A B F h.].=.s ",
"  $ <.C ; $ =.oX^ # } $ & O , oX$X3.*.D (.-XOXA.J g.w.p % 6 $ ,.z * : !.[.D % H ; O - d OX%X<.<.v < ",
"E 3 `.T.L 6 < ].*.5.+XZ j 9 p }.!./.3.*.0.].-.b.h H.w.:.; % % ].D L ; D @XA 9.*X> k E < =.!.:.4.d B ",
"# a 9.'.F 3 ; > @ W.1X/ $ Z < ] #XA.m.z.O.q.=.: n q.7.7.* A ^ _. XZ $ C ~ @ (.<X, - > < =.&X].0.f.> ",
"V 2.0.0.d A $ 6 R m.*.@ > $ - 9.*.&.A c y.e.V $ J x c B b %.b.0.0.&.B : 6 X c.A ; i 6 @ 7.S $.> * V ",
"S j.w.o.z =.d A *.(.# *.A.5.H F A @.>.S I >.L V ! +XM.V #.e.V.b.@.; d d S :.:.$ F oX3.K >.A @.b % B ",
"r * V S i -.=.S %X'.=.@X3XP.1.W.'.oX,.i.A <.B < K W.&.K D <.z M S i 4.&.S :X_.:.$X6XG.,.W.(.oXS ~ # ",
"; B ; r * @ O z  X>Xz.<  XL.@.p < O [ &XD 4.< *.F '.1.A 3.H S B > @   O v A.&X8.D  XL.2.p < 6 ] 9.$ ",
"; C 9.d ; 6 O % 3.'.2.E ^ m.> $ 2 X $ ; D :.- $ > H 1.[.C ,.1.*Xd < 6 6 > 7._.:.W Y.w.% $ 2 2 $ # $ ",
"$ D :.Y.Y.( < A - A @ 3 : @ $ w X X X 3 % A > X V Z p 6 - D ,.0.T.T.T.> A ; v @ 6 : @ $ 0 X o X 3 3 ",
"i % A > *.=.X.C V o.> > $ o + 2 o 3 2 o p 9 8 E K ' F C O.].< o., ;.D v C S b % > $ $ 0 2 o 2 X o 3 ",
"$ d D >.$ C b %.%XoX_.W.% ; t o X 6 o @ C 6 $ V H B A.4.7.=.0.3.@.> C @.3.@XoX_.T.$ ; e o 2 3 o o o ",
"% D $ F _.f <.z.%X_.>X4.A ].:.X X o O ; >.f R.=.; $ -.w.A <.w.z c. Xf 3.n.#X].H.-.A `.D 3 o X $ o $ ",
"9 D z ;.R.A : <.=.0.D.4.; 4.d : * 6 A ; <.3.q.@XM > =.D ; F S.O.I. X*.=.z.9.%XS.=.; =.a @ . 5 @ @ 2 ",
"O @ ; < % - @ > ; B $.> ; * - $ p : - 8.2.D ! 4.; j V 6 @ D v $.=X9.2.; >.z o.o.$ > ; @ o 6 2 2 @ o ",
"@ ; @ 6 $ @ > D ; C G C < e # > i 2.D oX-.q @ o > @X_.; < D $.M $ v = <.`.S B _ $ % 6 X X 3 * X X X ",
"  @ 4 0 5 q X ; : # Q f : $ 6 ^ :.9.< @ e # # e 4 4 ; < Y.2.4.~ u. Xf ^ *.=.A Q i $ o 4 X * @ 2 @ 2 ",
"Y w o o @ 3 o 6 @ $ 7 e B % @ % < A # 3   W ^ @ 4 $ r @ # ) Z S V > i @ 6 < e 7 $ % $ @ X 9 o @ X @ "
};
