/* XPM */
static char *result[] = {
/* columns rows colors chars-per-pixel */
"50 50 114 2 ",
"   c #2F1C19",
".  c #361C17",
"X  c #3C1C15",
"o  c #311C19",
"O  c #35211B",
"+  c #3A251C",
"@  c #3D2A1D",
"#  c #3B2621",
"$  c #3E2921",
"%  c #431C13",
"&  c #491C11",
"*  c #4B2115",
"=  c #43241C",
"-  c #49241B",
";  c #422F1F",
":  c #4D291E",
">  c #532416",
",  c #562719",
"<  c #542A1D",
"1  c #5B2C1D",
"2  c #44301F",
"3  c #622F1E",
"4  c #63301F",
"5  c #422C21",
"6  c #4B2D21",
"7  c #5B2523",
"8  c #5B2E20",
"9  c #453121",
"0  c #4A3525",
"q  c #4E3927",
"w  c #4B352E",
"e  c #4E3828",
"r  c #533125",
"t  c #5A3222",
"y  c #553926",
"u  c #543D2B",
"i  c #5C3C29",
"p  c #4E3730",
"a  c #4F3931",
"s  c #523B33",
"d  c #643322",
"f  c #693422",
"g  c #603825",
"h  c #6D3925",
"j  c #623E2B",
"k  c #6E3C28",
"l  c #703A26",
"z  c #733E29",
"x  c #57402D",
"c  c #5A422E",
"v  c #5F4731",
"b  c #5E463C",
"n  c #64412C",
"m  c #6D412B",
"M  c #73432D",
"N  c #7B452E",
"B  c #7F482F",
"V  c #614731",
"C  c #6E4530",
"Z  c #614833",
"A  c #6B4A32",
"S  c #61493D",
"D  c #774631",
"F  c #754A32",
"G  c #7C4A32",
"H  c #7C4E3A",
"J  c #664E42",
"K  c #705243",
"L  c #7D5746",
"P  c #7E5845",
"I  c #775D4F",
"U  c #7A6052",
"Y  c #842F2D",
"T  c #803A2D",
"R  c #B53939",
"E  c #844D33",
"W  c #9F4838",
"Q  c #865136",
"!  c #895136",
"~  c #8D5639",
"^  c #935B3D",
"/  c #97603F",
"(  c #835641",
")  c #8C634E",
"_  c #9C6443",
"`  c #9F6845",
"'  c #96684E",
"]  c #8B6651",
"[  c #826851",
"{  c #846A5D",
"}  c #8A6F5D",
"|  c #936B53",
" . c #96705B",
".. c #98745E",
"X. c #A26B47",
"o. c #A46D49",
"O. c #A7704A",
"+. c #AA734C",
"@. c #896F62",
"#. c #8D7365",
"$. c #917562",
"%. c #997660",
"&. c #977B67",
"*. c #9E7B65",
"=. c #967B6C",
"-. c #987E6E",
";. c #9C8171",
":. c #A6846D",
">. c #A78774",
",. c #AA8C75",
"<. c #B3927C",
"1. c #B39580",
"2. c #C6A993",
"3. c None",
/* pixels */
"3.3.3.3.3.3.3.3.3.3.3.3.3.3.3.3.3.3.3.3.3.3.3.3.3.3.3.3.3.3.3.3.3.3.3.3.3.3.3.3.3.3.3.3.3.3.3.3.3.3.",
"3.3.3.3.3.3.3.3.3.3.3.3.3.3.3.3.3.3.3.3.3.3.3.3.3.3.3.3.3.3.3.3.3.3.3.3.3.3.3.3.3.3.3.3.3.3.3.3.3.3.",
"3.3.3.3.3.3.3.3.3.3.3.3.3.3.3.3.3.3.3.3.3.3.3.3.3.3.3.3.3.3.3.3.3.3.3.3.3.3.3.3.3.3.3.3.3.3.3.3.3.3.",
"3.3.3.3.3.3.3.3.3.3.3.3.3.3.3.3.3.3.3.3.3.3.3.3.3.3.3.3.3.3.3.3.3.3.3.3.3.3.3.3.3.3.3.3.3.3.3.3.3.3.",
"3.3.3.3.3.3.3.3.3.3.3.3.3.3.3.3.3.3.3.3.3.3.3.3.3.3.3.3.3.3.3.3.3.3.3.3.3.3.3.3.3.3.3.3.3.3.3.3.3.3.",
"3.3.3.3.3.3.3.3.3.3.3.3.3.3.3.3.3.3.3.3.3.3.3.3.3.3.3.3.3.3.3.3.3.3.3.3.3.3.3.3.3.3.3.3.3.3.3.3.3.3.",
"3.3.3.3.3.3.3.3.3.3.3.3.3.3.3.3.3.3.3.3.3.3.3.3.3.3.3.3.3.3.3.3.3.3.3.3.3.3.3.3.3.3.3.3.3.3.3.3.3.3.",
"3.3.3.3.3.3.3.3.3.3.3.3.3.3.3.3.3.3.3.3.3.3.3.3.3.3.3.3.3.3.3.3.3.3.3.3.3.3.3.3.3.3.3.3.3.3.3.3.3.3.",
"3.3.3.3.3.3.3.3.3.3.3.3.3.3.3.3.3.3.3.3.    3.3.3.3.3.3.3.3.3.3.3.3.3.3.3.3.3.3.3.3.3.3.3.3.3.3.3.3.",
"3.3.3.3.3.3.3.3.3.3.3.3.3.3.3.o o 3.3.  O 0 $     3.3.o o o 3.3.3.3.3.3.3.3.3.3.3.3.3.3.3.3.3.3.3.3.",
"3.3.3.3.3.3.3.3.3.3.3.3.3.3.  O + 3.  O + x 0 O   3.o O + o 3.3.3.3.3.3.3.3.3.3.3.3.3.3.3.3.3.3.3.3.",
"3.3.3.3.3.3.3.3.3.3.3.3.3.3.  # x +   O $ c c 9 o o o $ u o   o o 3.3.3.3.3.3.3.3.3.3.3.3.3.3.3.3.3.",
"3.3.3.3.3.3.3.3.3.3.o o o     @ v e $ @ 2 c v x + + 5 u x o 5 $ o 3.3.3.3.3.3.3.3.3.3.3.3.3.3.3.3.3.",
"3.3.3.3.3.3.3.3.3.  o + O o   $ v v q ; 9 c v x $ 5 u v c + u 0   3.3.3.3.3.3.3.3.3.3.3.3.3.3.3.3.3.",
"3.3.3.3.3.3.3.3.3.  5 u u + + 0 v v q 9 2 c v x 9 9 u v v u v 0         o 3.3.3.3.3.3.3.3.3.3.3.3.3.",
"3.3.3.3.3.3.3.3.3.  $ e Z 0 5 0 v c x 0 2 x v x 9 0 u v u v v 0 O   + O o 3.3.3.3.3.3.3.3.3.3.3.3.3.",
"3.3.3.3.3.3.3.3.3.    @ v v x 0 v v v x 2 c V c 2 V Z x 2 v v x @ O @ +   3.3.3.3.3.3.3.3.3.3.3.3.3.",
"3.3.3.3.3.3.3.3.3.3.  O 0 c x c v Z v x 2 g M G F G G m t q x q 9 @ @ + O 3.3.3.3.3.3.3.3.3.3.3.3.3.",
"3.3.3.3.3.3.3.3.3.3.O + @ c v v v c c n i N ~ / / / ^ ~ B g c y 2 @ 2 +   3.3.3.3.3.3.3.3.3.3.3.3.3.",
"3.3.3.3.3.3.3.3.3.O + 2 2 x v v v 2 t l ~ X.+.+.+.O.O.+.X.! m t 2 2 @ @     3.3.3.3.3.3.3.3.3.3.3.3.",
"3.3.3.3.3.3.3.3.3.  O + 9 0 x v v t h Q / +.+.+.+.+.+.+.+./ / Q n 2 2 @ + o 3.3.3.3.3.3.3.3.3.3.3.3.",
"3.3.3.3.3.3.3.3.3.    O $ $ 0 x n m E ^ +.+.+.+.+.+.+.+.+.+.+.` Q y 9 ; @ o 3.3.3.3.3.3.3.3.3.3.3.3.",
"3.3.3.3.3.3.3.3.3.3.    o . # 0 f E E ^ +.+.+.+.+.+.+.+.+.+.+.+.` Q y ; @   o 3.3.3.3.3.3.3.3.3.3.3.",
"3.3.3.3.3.3.3.3.3.3.3.  o o . 6 N Q ! ^ +.+.+.+.+.+.+.+.+.+.+.+.o.~ m y ; + o 3.3.3.3.3.3.3.3.3.3.3.",
"3.3.3.3.3.3.3.3.3.3.o o o   o 5 N Q ! ^ +.+.+.+.+.+.+.+.+.+.+.+.o.! ! k 9 ; O 3.3.3.3.3.3.3.3.3.3.3.",
"3.3.3.3.3.3.3.3.3.o o o   o   O ; N ! ^ +.+.+.+.+.+.+.+.+.+.+.+.o.! ! N t 2 O 3.3.3.3.3.3.3.3.3.3.3.",
"3.3.3.3.3.3.3.3.3.o o o o o o o o D ! ^ ` +.+.+.+.+.+.+.+.+.+.+.^ ! ! N t 2 O 3.3.3.3.3.3.3.3.3.3.3.",
"3.3.3.3.3.3.3.3.3.O . . # # # . o D ! ! ! X.+.+.+.+.+.+.+.+.+./ ! ! ! N f @ O 3.3.3.3.3.3.3.3.3.3.3.",
"3.3.3.3.3.3.3.3.3.8 8 j @.} L i o D ! ! ! ~ X.+.+.+.+.+.+.+./ ^ ! ! ! E M O o 3.3.3.3.3.3.3.3.3.3.3.",
"3.3.3.3.3.3.3.3.3.f f M | :.| C r E ! ! ! ! / / ` X./ ` ` ` ~ ! ! ! ! ! M o o 3.3.3.3.3.3.3.3.3.3.3.",
"3.3.3.3.3.3.3.3.3.f f f f %.[ A ! ! ! ! ! ! ! ! ! ! ! ! ! ! ! ! ! ! ! ! M o o 3.3.3.3.3.3.3.3.3.3.3.",
"3.3.o o o o o   3.= = = = s v A ! ! ! ! ! ! ! ! ! ! ! ! ! ! ! ! ! ! ! ! G < O 3.3.3.3.3.3.3.3.3.3.3.",
"3.o $ a   a p   3.  - 7 o 5 s D ! ! ! ! ! ! ! ! ! ! ! ! ! ! ! ! ! ! ! ! E 3 % o 3.3.3.3.3.3.3.3.3.3.",
"3.o b $.# =.@.  o   l R o z ! ! ! ! ! ! ! ! ! ! ! ! ! ! ! ! ! ! ! ! ! ! E f + o o 3.  o o o o 3.3.3.",
"o o S &.# ;.@.    - z R j E ! ! ! ! ! ! ! ! ! ! ! ! ! ! ! ! ! ~ ! ! ! ! E f % X o o < < 7 6 .   3.3.",
"o O S } # ;.-.p + d E ! ! ! ! ! ! ! ! ! ! ! ! ! ! ! ! ! ~ ~ ~ ~ ! ! ! ! N 4 & X o o 1 8 8 d 5 . o 3.",
"o 0 v b . ;.2.>.f z ! ! ! E ! ! ! ! ! ! ! ! ! ! ! ! ! ! ~ X.o.^ ! ! ! N 4 & & X o & * % - f d = o 3.",
"o $ u x O ;.2.<.) ~ ! ! ! _ _ _ _ ~ ! ! ! ! ! ! E N E ~ X.+.+.X.^ ! E 4 , & & & % & X . O : d -   o ",
"  o 5 x o #.1.,.,.' ( ~ ~ o.o.O.+.~ ! ! ! E E ! E h E _ O.+.+.+.o.E h , & & & & & & . o o o 8 = o   ",
"o   5 x O w U ,.,.>.' ~ X.O.+.+.+.~ ! ! ! z B ! E h z ^ +.+.+.+.X.l , > & & & & & & 3.3.3.o ; + o   ",
"o   + 0 o o a I I ] ( ! +.+.+.+.+.~ ! ! ! h z N N h z ~ +.+.+.X.^ N > & & & & & X X 3.3.3.o ; @ O   ",
"o     o o   o o o 7 f z o.o.o.o.O.~ ! ! ! l f 3 4 f 4 E o.+.+./ ! ! 1 & % % & X o   3.3.3.o @ ; @   ",
"3.3.3.3.o   o   o X = 6 f f f k N E ! ! ! E 8 = = = - 4 E ^ ^ ~ ! ! 1 & & & . . 3.3.3.3.3.3.; ; + o ",
"3.3.3.3.o o   o o     o X X X * 3 N E ! ! ! r       . * 8 l E ! ! N , & % % . 3.3.3.3.3.3.3.; 2 @ o ",
"3.3.3.3.3.3.3.o   o o     o o . & 4 B ! ! ! r o o o   o . & M ! E h > & %   3.3.3.3.3.3.3.3.3.2 + o ",
"3.3.3.3.3.3.3.3.3.3.  o o   o . & 3 l z z d : 3.3.3.o o o . : i l 4 3 > %   3.3.3.3.3.3.3.3.3.O O o ",
"3.3.3.3.3.3.3.3.3.3.3.o o o o . & 3 f f d * 3.3.3.3.3.  o o   = 3 f 4 3 -   3.3.3.3.3.3.3.3.3.3.    ",
"3.3.3.3.3.3.3.3.3.3.3.  o o o 3.& 3 f f f 3.3.3.3.3.3.3.      o = f 4 4 1 o 3.3.3.3.3.3.3.3.3.3.3.3.",
"3.3.3.3.3.3.3.3.3.3.+   @   3.3.L k H ( f 3.3.3.3.3.3.+ o + O w K f ( H 8 o 3.3.3.3.3.3.3.3.3.3.3.3.",
"3.3.3.3.3.3.3.3.3.5 + O 9 O 3.3.>.D ]  .f 3.3.3.3.3.5 @ O @ + J *.h ..) 8 o 3.3.3.3.3.3.3.3.3.3.3.3."
};
