/* XPM */
static char *result[] = {
/* columns rows colors chars-per-pixel */
"50 50 159 2 ",
"   c #130022",
".  c #1D0223",
"X  c #1A0C2A",
"o  c #1E0228",
"O  c #2A042E",
"+  c #280724",
"@  c #3C072F",
"#  c #350C2E",
"$  c #3F112F",
"%  c #351A2B",
"&  c #320632",
"*  c #390730",
"=  c #340934",
"-  c #390931",
";  c #2C2C2C",
":  c #302F2D",
">  c #3B342D",
",  c #362235",
"<  c #2F3131",
"1  c #3B3B3A",
"2  c #343738",
"3  c #4E0F0A",
"4  c #49100E",
"5  c #5D1D0F",
"6  c #491414",
"7  c #581F18",
"8  c #5E1F13",
"9  c #5E2319",
"0  c #692313",
"q  c #6A2617",
"w  c #762C18",
"e  c #762C18",
"r  c #773014",
"t  c #7D311A",
"y  c #4A0A2C",
"u  c #550B28",
"i  c #590E29",
"p  c #44142F",
"a  c #4B1D36",
"s  c #4D2323",
"d  c #5E3228",
"f  c #562738",
"g  c #572434",
"h  c #5F3734",
"j  c #6D2128",
"k  c #6E3C2D",
"l  c #6B3E3D",
"z  c #4D4636",
"x  c #504634",
"c  c #7D4939",
"v  c #725A38",
"b  c #363D45",
"n  c #393C43",
"m  c #3D3C4C",
"M  c #463F47",
"N  c #45385C",
"B  c #3D464B",
"V  c #3F4B4E",
"C  c #344E74",
"Z  c #454B4D",
"A  c #4A434D",
"S  c #49524F",
"D  c #51554E",
"F  c #424E51",
"G  c #53465F",
"H  c #485458",
"J  c #4A5659",
"K  c #545C5E",
"L  c #64594B",
"P  c #646350",
"I  c #7B7251",
"U  c #525F62",
"Y  c #604A6B",
"T  c #5A6569",
"R  c #5E6D71",
"E  c #70616F",
"W  c #656072",
"Q  c #637276",
"!  c #67767A",
"~  c #69777C",
"^  c #6B7A7E",
"/  c #74797A",
"(  c #83361B",
")  c #863A1D",
"_  c #8D3F1E",
"`  c #873E21",
"'  c #92431F",
"]  c #8E4324",
"[  c #9B4E29",
"{  c #9D5629",
"}  c #9A5A2E",
"|  c #8A5039",
" . c #935B33",
".. c #AE5E29",
"X. c #A95A23",
"o. c #A8622F",
"O. c #B76B2F",
"+. c #A06736",
"@. c #AF6534",
"#. c #BC7131",
"$. c #C36F2E",
"%. c #C17834",
"&. c #827C5E",
"*. c #C88239",
"=. c #D2843E",
"-. c #E98F35",
";. c #EE983F",
":. c #E6913B",
">. c #AE8D49",
",. c #9F987D",
"<. c #B38661",
"1. c #CF8F40",
"2. c #C79F4E",
"3. c #CF9545",
"4. c #D49342",
"5. c #D59D4E",
"6. c #EEA250",
"7. c #F1A551",
"8. c #ECBA56",
"9. c #E6B45D",
"0. c #F2BF57",
"q. c #F4B568",
"w. c #F5BB70",
"e. c #705B89",
"r. c #6E7D82",
"t. c #797B88",
"y. c #778589",
"u. c #7C898E",
"i. c #76838A",
"p. c #7E8E93",
"a. c #868E8B",
"s. c #8B809F",
"d. c #859394",
"f. c #949A9C",
"g. c #979D96",
"h. c #BAB298",
"j. c #9790A8",
"k. c #9992AA",
"l. c #A08CA0",
"z. c #A39DA9",
"x. c #96A3AC",
"c. c #A1ACA8",
"v. c #B8A9B8",
"b. c #A7B2B6",
"n. c #B8BAB1",
"m. c #F9CF8D",
"M. c #F5D79F",
"N. c #F8D89E",
"B. c #FCDCA0",
"V. c #E6D9B5",
"C. c #F5E2B3",
"Z. c #B7BEC8",
"A. c #BAB8C5",
"S. c #C7BCC7",
"D. c #C7C6CC",
"F. c #D1D7E3",
"G. c #F2F2F5",
"H. c #FDFDFD",
"J. c None",
/* pixels */
"J.J.J.J.J.J.J.J.J.J.J.J.J.J.J.J.J.J.J.J.J.J.J.J.J.J.J.J.J.J.J.J.J.J.J.J.J.J.J.J.J.J.J.J.J.J.J.J.J.J.",
"J.J.J.J.J.J.J.J.J.J.J.J.J.J.J.J.J.J.J.J.J.J.J.J.J.J.J.J.J.J.J.J.J.J.J.J.J.J.J.J.J.J.J.J.J.J.J.J.J.J.",
"J.J.J.J.J.J.J.J.J.J.J.J.J.J.J.J.J.J.J.J.J.J.J.J.J.J.J.J.J.J.J.J.J.J.J.J.J.J.J.J.J.J.J.J.J.J.J.J.J.J.",
"J.J.J.J.J.J.J.J.J.J.J.J.J.J.J.J.J.J.J.J.J.J.J.J.J.J.J.J.J.J.J.J.J.J.J.J.J.J.J.J.J.J.J.J.J.J.J.J.J.J.",
"J.J.J.J.J.J.J.J.J.J.J.J.J.J.J.J.J.J.J.J.J.J.J.J.J.J.J.J.J.J.J.J.J.J.J.J.J.J.J.J.J.J.J.J.J.J.J.J.J.J.",
"J.J.J.J.J.J.J.J.J.J.J.J.J.J.J.J.J.J.J.J.J.J.J.J.J.J.J.J.J.J.J.J.J.J.J.J.J.J.J.J.J.J.J.J.J.J.J.J.J.J.",
"J.J.J.J.J.J.J.J.J.J.J.J.J.J.J.J.J.J.J.J.J.J.J.J.J.J.J.J.J.J.J.J.J.J.J.J.J.J.J.J.J.J.J.J.J.J.J.J.J.J.",
"J.J.J.J.J.J.J.J.J.J.J.J.J.J.J.J.J.J.J.J.J.J.J.J.J.J.J.J.J.J.J.J.J.J.J.J.J.J.J.J.J.J.J.J.J.J.J.J.J.J.",
"J.J.J.J.J.J.J.J.J.J.J.J.J.J.J.J.J.J.J.J.J.J.J.J.J.J.J.J.J.J.J.J.J.J.J.J.J.J.J.J.J.J.J.J.J.J.J.J.J.J.",
"J.J.J.J.J.J.J.J.J.J.J.J.J.J.J.J.J.J.J.J.J.J.J.J.J.J.J.J.J.J.J.J.J.J.J.J.J.J.J.J.J.J.J.J.J.J.J.J.J.J.",
"J.J.J.J.J.J.J.J.J.J.J.J.J.J.J.J.J.J.J.J.J.J.J.J.J.J.J.J.J.J.J.J.J.J.J.J.J.J.J.J.J.J.J.J.J.J.J.J.J.J.",
"J.J.J.J.J.J.J.J.J.J.J.J.J.J.J.J.J.J.J.J.J.t t t t t J.J.J.J.J.J.J.J.J.J.J.J.J.J.J.J.J.J.J.J.J.J.J.J.",
"J.J.J.J.J.J.J.J.J.J.J.J.J.J.J.J.J.J.J.t t t t t t 0 w t J.J.J.J.J.J.J.J.J.J.J.J.J.J.J.J.J.J.J.J.J.J.",
"J.J.J.J.J.J.J.J.J.J.J.J.J.J.J.J.J.J.J.t t t t t 0 3 0 w J.J.J.J.J.J.J.J.J.J.J.J.J.J.J.J.J.J.J.J.J.J.",
"J.J.J.J.J.J.J.J.J.J.J.J.J.J.J.J.J.J.J.t t t t t r r r e J.J.J.J.J.J.J.J.J.J.J.J.J.J.J.J.J.J.J.J.J.J.",
"J.J.J.J.J.J.J.J.J.J.J.J.J.J.J.J.J.J.t t t t ( ' ;.;.;.5 w J.J.J.J.J.J.J.J.J.J.J.J.J.J.J.J.J.J.J.J.J.",
"J.J.J.J.J.J.J.J.J.J.J.J.J.J.J.J.J.J.t t t t ) -.B.B.M.9 w J.J.J.J.J.J.J.J.J.J.J.J.J.J.J.J.J.J.J.J.J.",
"J.J.J.J.J.J.J.J.J.J.J.J.J.J.J.J.J.t t t t w . % B.B., 4 w J.J.J.J.J.J.J.J.J.J.J.J.J.J.J.J.J.J.J.J.J.",
"J.J.J.J.J.J.J.J.J.J.J.J.J.J.J.J.J.t t t _ =.n.C B.B.C 6 w J.; ; J.J.J.J.J.J.J.J.J.J.J.J.J.J.J.J.J.J.",
"J.J.J.J.J.J.J.J.J.J.J.J.J.J.J.J.J.t t t ) @.C.h.B.B.h.9 w J.>.x J.J.J.J.J.J.J.J.J.J.J.J.J.J.J.J.J.J.",
"J.J.J.J.J.J.J.J.J.J.J.J.J.J.J.J.J.t t t t ] q.B.B.N.q.9 w 3.4.v J.J.J.J.J.J.J.J.J.J.J.J.J.J.J.J.J.J.",
"J.J.J.J.J.J.J.J.J.J.J.J.J.J.J.J.J.t t w t ) $.w.w.<.X.0 o.1.#.J.J.J.J.J.J.J.J.J.J.J.J.J.J.J.J.J.J.J.",
"J.J.J.J.J.J.J.J.J.J.J.J.J.J.J.J.J.( ' ` k c ` 7.6.h s t 4.#.J.J.J.J.J.J.J.J.J.J.J.J.J.J.J.J.J.J.J.J.",
"J.J.J.J.J.J.J.J.J.J.J.J.J.J.J.J.J.{ #.+.F / | m.N.g.K  ...J.J.J.J.J.J.J.J.J.J.J.J.J.J.J.J.J.J.J.J.J.",
"J.J.J.J.J.J.J.J.J.J.J.J.J.J.J.J.J.8.0.2.< H a.:.N.N.p.J } o.J.J.J.J.J.J.J.J.J.J.J.J.J.J.J.J.J.J.J.J.",
"J.J.J.J.J.J.J.J.J.J.J.J.J.J.J.J.< v 0.2.< H p.a.d.d.p.u.1 } J.J.J.J.J.J.J.J.J.J.J.J.J.J.J.J.J.J.J.J.",
"J.J.J.J.J.J.J.J.J.J.J.J.J.J.J.u.T > z z B V U p.p.p.p.p.b s J.J.J.J.J.J.J.J.J.J.J.J.J.J.J.J.J.J.J.J.",
"J.J.J.J.J.J.J.J.J.J.J.J.J.J.J.p.y.K : J.J.V V U T U U Z < ; J.J.J.J.J.J.J.J.J.J.J.J.J.J.J.J.J.J.J.J.",
"J.J.J.J.J.J.J.J.J.J.J.J.J.J.J.! p.i.J.J.D.V F Q Q Q Q < ; 2 V J.J.J.J.J.J.J.J.J.J.J.J.J.J.J.J.J.J.J.",
"J.J.J.J.J.J.J.J.J.J.J.J.J.J.~ R ^ p.J.Z.f.H Q p.p.p.d.U b V V J.J.J.J.J.J.J.J.J.J.J.J.J.J.J.J.J.J.J.",
"J.J.J.J.J.J.J.J.J.J.J.J.J.J.p.r.T u.D.t.M I c.W E E W ,.A B V V J.J.J.J.J.J.J.J.J.J.J.J.J.J.J.J.J.J.",
"J.J.J.J.J.J.J.J.J.J.J.J.J.J.p.d.i.f.S.& g 9.V.@ u u * 3.a b B B J.J.J.J.J.J.J.J.J.J.J.J.J.J.J.J.J.J.",
"J.J.J.J.J.J.J.J.J.J.J.J.J.J.i.i.b.G.v.= p o.5.u u u u [ p b X   J.J.J.J.J.J.J.J.J.J.J.J.J.J.J.J.J.J.",
"J.J.J.J.J.J.J.J.J.J.J.J.J.J.  m x.k.= O . - i u u u u @         J.J.J.J.J.J.J.J.J.J.J.J.J.J.J.J.J.J.",
"J.J.J.J.J.J.J.J.J.J.J.J.J.J.  X N e.O   . y u u u u u +   J.    J.J.J.J.J.J.J.J.J.J.J.J.J.J.J.J.J.J.",
"J.J.J.J.J.J.J.J.J.J.J.J.J.J.  G A.s.O   + u u u u u u     J.J.J.J.J.J.J.J.J.J.J.J.J.J.J.J.J.J.J.J.J.",
"J.J.J.J.J.J.J.J.J.J.J.J.J.J.z.A.F.j.O   . u u u u u +     J.J.J.J.J.J.J.J.J.J.J.J.J.J.J.J.J.J.J.J.J.",
"J.J.J.J.J.J.J.J.J.J.J.J.J.J.H.G.A.Y o   . u u y u u .     J.J.J.J.J.J.J.J.J.J.J.J.J.J.J.J.J.J.J.J.J.",
"J.J.J.J.J.J.J.J.J.J.J.J.J.J.H.H.l.O X 9 a u u & u u s s J.J.J.J.J.J.J.J.J.J.J.J.J.J.J.J.J.J.J.J.J.J.",
"J.J.J.J.J.J.J.J.J.J.J.J.J.J.J.J.J.# d %.o.u u & u j $.%.J.J.J.J.J.J.J.J.J.J.J.J.J.J.J.J.J.J.J.J.J.J.",
"J.J.J.J.J.J.J.J.J.J.J.J.J.J.J.J.J.g *.0.5.u y & u O.8.0.J.J.J.J.J.J.J.J.J.J.J.J.J.J.J.J.J.J.J.J.J.J.",
"J.J.J.J.J.J.J.J.J.J.J.J.J.J.J.J.J.l 0.0.5.u & & = 8.0.0.J.J.J.J.J.J.J.J.J.J.J.J.J.J.J.J.J.J.J.J.J.J.",
"J.J.J.J.J.J.J.J.J.J.J.J.J.J.J.J.J.Z I 0.5.u & & = D 8.0.J.J.J.J.J.J.J.J.J.J.J.J.J.J.J.J.J.J.J.J.J.J.",
"J.J.J.J.J.J.J.J.J.J.J.J.J.J.J.J.J.V S L f - & & & V P J.J.J.J.J.J.J.J.J.J.J.J.J.J.J.J.J.J.J.J.J.J.J.",
"J.J.J.J.J.J.J.J.J.J.J.J.J.J.J.J.J.~ R B J.J.& & = ! ~ J.J.J.J.J.J.J.J.J.J.J.J.J.J.J.J.J.J.J.J.J.J.J.",
"J.J.J.J.J.J.J.J.J.J.J.J.J.J.J.J.J.p.y.J.J.J.& & J.p.p.J.J.J.J.J.J.J.J.J.J.J.J.J.J.J.J.J.J.J.J.J.J.J.",
"J.J.J.J.J.J.J.J.J.J.J.J.J.J.J.J.J.p.p.J.J.J.J.& J.p.p.J.J.J.J.J.J.J.J.J.J.J.J.J.J.J.J.J.J.J.J.J.J.J.",
"J.J.J.J.J.J.J.J.J.J.J.J.J.J.J.J.J.^ r.J.J.J.J.J.J.p.^ J.J.J.J.J.J.J.J.J.J.J.J.J.J.J.J.J.J.J.J.J.J.J.",
"J.J.J.J.J.J.J.J.J.J.J.J.J.J.J.J.J.V V J.J.J.J.J.J.p.F F J.J.J.J.J.J.J.J.J.J.J.J.J.J.J.J.J.J.J.J.J.J.",
"J.J.J.J.J.J.J.J.J.J.J.J.J.J.J.J.J.J.J.J.J.J.J.J.J.J.J.J.J.J.J.J.J.J.J.J.J.J.J.J.J.J.J.J.J.J.J.J.J.J."
};
