/* XPM */
static char *result[] = {
/* columns rows colors chars-per-pixel */
"50 50 214 2 ",
"   c #010000",
".  c #0B0601",
"X  c #060A0E",
"o  c #0B0B09",
"O  c #030706",
"+  c #190E01",
"@  c #160804",
"#  c #031600",
"$  c #181602",
"%  c #030719",
"&  c #0D151B",
"*  c #151515",
"=  c #240401",
"-  c #3B0001",
";  c #241402",
":  c #28180A",
">  c #371D07",
",  c #221A13",
"<  c #133209",
"1  c #382503",
"2  c #343604",
"3  c #2E230E",
"4  c #0C053A",
"5  c #11092F",
"6  c #29142D",
"7  c #341E2D",
"8  c #240032",
"9  c #292927",
"0  c #242E31",
"q  c #31363A",
"w  c #450002",
"e  c #4B0001",
"r  c #480B03",
"t  c #5B0003",
"y  c #550000",
"u  c #690000",
"i  c #790502",
"p  c #711500",
"a  c #422500",
"s  c #4A2A07",
"d  c #433905",
"f  c #573602",
"g  c #5C3A18",
"h  c #6D3E00",
"j  c #673B13",
"k  c #652915",
"l  c #51382B",
"z  c #064D00",
"x  c #4C5400",
"c  c #744200",
"v  c #7A4600",
"b  c #764806",
"n  c #794717",
"m  c #6C4300",
"M  c #72543C",
"N  c #090047",
"B  c #354852",
"V  c #3C586D",
"C  c #346670",
"Z  c #5E4E53",
"A  c #475868",
"S  c #68696A",
"D  c #606C70",
"F  c #930001",
"G  c #9A0202",
"H  c #890004",
"J  c #A40004",
"K  c #AB0003",
"L  c #B30104",
"P  c #C70202",
"I  c #DB0002",
"U  c #E40101",
"Y  c #EB0102",
"T  c #F50101",
"R  c #FD0101",
"E  c #844B00",
"W  c #8B4E00",
"Q  c #875A05",
"!  c #935300",
"~  c #985A03",
"^  c #884E17",
"/  c #A25B01",
"(  c #A95F00",
")  c #896602",
"_  c #867900",
"`  c #987303",
"'  c #817210",
"]  c #AD6200",
"[  c #AB6C00",
"{  c #B46500",
"}  c #B66900",
"|  c #AA770A",
" . c #A86515",
".. c #B5731A",
"X. c #995821",
"o. c #AC5624",
"O. c #996936",
"+. c #9C702A",
"@. c #B57229",
"#. c #AB7739",
"$. c #B67737",
"%. c #AE6F29",
"&. c #C67000",
"*. c #C27432",
"=. c #8A7558",
"-. c #936E4C",
";. c #B07249",
":. c #1B9000",
">. c #2E8B01",
",. c #29A500",
"<. c #5B825C",
"1. c #B7890C",
"2. c #B6A700",
"3. c #B6AD06",
"4. c #B79333",
"5. c #C8850C",
"6. c #D79B10",
"7. c #DEA503",
"8. c #C7B901",
"9. c #DBBE03",
"0. c #E8A501",
"q. c #FCB801",
"w. c #F4A701",
"e. c #CE8F3B",
"r. c #F3953E",
"t. c #FB9A3C",
"y. c #E78B37",
"u. c #DFCF04",
"i. c #FBCA01",
"p. c #F8D701",
"a. c #E5D400",
"s. c #FBE801",
"d. c #FEF601",
"f. c #BB8248",
"g. c #BC8B5D",
"h. c #BB8E64",
"j. c #B39472",
"k. c #B5A772",
"l. c #C78748",
"z. c #CA8E58",
"x. c #CE9159",
"c. c #DA9552",
"v. c #D78C4B",
"b. c #E89649",
"n. c #FD9C44",
"m. c #F49946",
"M. c #E39853",
"N. c #D1A24E",
"B. c #FDA34A",
"V. c #FCA94A",
"C. c #E8A85A",
"Z. c #FFA859",
"A. c #F8BB58",
"S. c #E1A34C",
"D. c #C99666",
"F. c #D89D7C",
"G. c #D5AA7D",
"H. c #FAAE62",
"J. c #FFBC6D",
"K. c #FFBB67",
"L. c #FCBB76",
"P. c #E8AE70",
"I. c #FCC379",
"U. c #FFC169",
"Y. c #064B86",
"T. c #3B6288",
"R. c #2570BD",
"E. c #5B7787",
"W. c #6F7881",
"Q. c #1E78D5",
"!. c #328297",
"~. c #718896",
"^. c #5E81A3",
"/. c #7A9BB2",
"(. c #7AA0B0",
"). c #3B86CC",
"_. c #6E9ECE",
"`. c #7EA5CF",
"'. c #928E8A",
"]. c #B4998E",
"[. c #B8AA82",
"{. c #8094A6",
"}. c #9CA6B2",
"|. c #B2B2B1",
" X c #AFB3B2",
".X c #C7A786",
"XX c #D7AC81",
"oX c #E1B783",
"OX c #FABD86",
"+X c #FFC28B",
"@X c #F8C689",
"#X c #EAC89D",
"$X c #FFCB93",
"%X c #F7C492",
"&X c #F4C98D",
"*X c #F5D7A9",
"=X c #93B7C9",
"-X c #8CB1CE",
";X c #A5BEC8",
":X c #98BDE0",
">X c #B1CADB",
",X c #9DCBE6",
"<X c #B8D2E9",
"1X c #B5E9FA",
"2X c #CCC8C8",
"3X c #C4D5DC",
"4X c #DDDCDA",
"5X c #D7F5FE",
"6X c #CFF3FB",
"7X c #E4E4E4",
"8X c #EBEAE8",
"9X c #F4F4F4",
"0X c #EEF5F8",
"qX c None",
/* pixels */
"qXqXqXqXqXqXqXqXqXqXqXqXqXqXqXqXqXqXqXqXqXqXqXqXqXqXqXqXqXqXqXqXqXqXqXqXqXqXqXqXqXqXqXqXqXqXqXqXqXqX",
"qXqXqXqXqXqXqXqXqXqXqXqXqXqXqXqXqXqXqXqXqXqXqX& qXqXqXqXqXqXqXqXqXqXqXqXqXqXqXqXqXqXqXqXqXqXqXqXqXqX",
"qXqXqXqXqXqXqXqXqXqXqXqXqXqXqXqXqXqXqXqXqXqXqX`.qXqXqXqXqXqXqXqXqXqXqXqXqXqXqXqXqXqXqXqXqXqXqXqXqXqX",
"qXqXqXqXqXqXqXqXqXqXqXqXqXqXqXqXqXqXqXqXqXqXqX1XX qXqXqXqXqXqXqXqXqXqXqXqXqXqXqXqXqXqXqXqXqXqXqXqXqX",
"qXqXqXqXqXqXqXqXqXqXqXqXqXqXqXqXqXqXqXqXqXqXq 6XX qXqXqXqXqXqXqXqXqXqXqXqXqXqXqXqXqXqXqXqXqXqXqXqXqX",
"qXqXqXqXqXqXqXqXqXqXqXqXqXqXqXqXqXqXqXqXqXqXA 3XqXqXqXqXqXqXqXqXqXqXqXqXqXqXqXqXqXqXqXqXqXqXqXqXqXqX",
"qXqXqXqXqXqXqXqXqXqXqXqXqXqXqXqXs.s.qXqXqXqX~.5Xq qXqXqXqXqXqXqXqXqXqXqXqXqXqXqXqXqXqXqXqXqXqXqXqXqX",
"qXqXqXqXqXqXqXqXqXqXqXqXqXqXqXqXqXi.qXqXqX  ,X0Xo qXqXqXqXqXqXqXqXqXqXqXqXqXqXqXqXqXqXqXqXqXqXqXqXqX",
"qXqXqXqXqXqXqXqXqXqXqXqXqXqXqXq.qXqXqXqXqXE.>X9X9 qXqXqXqXqXqXqXqXqXqXqXqXqXqXqXqXqXqXqXqXqXqXqXqXqX",
"qXqXqXqXqXqXqXqXqXqXqXqXqXqXp.d.qXqXqXqXqX/.4X9Xo qXqXqXqXqXqXqXqXqXqXqXqXqXqXqXqXqXqXqXqXqXqXqXqXqX",
"qXqXqXqXqXqXqXqXqXqXqXqXqXqXqXi.i.qXqXqX% =X4X0Xo qXqXqXqXqXqXqXqXqXqXqXqXqXqXqXqXqXqXqXqXqXqXqXqXqX",
"qXqXqXqXqXqXqXqXqXqXqXqXqXqXqXqXqXqXqXqX& ;X'.~.O qX  qXqXqXqXqXqXqXqXqXqXqXqXqXqXqXqXqXqXqXqXqXqXqX",
"qXqXqXqXqXqXqXqXqXqXqXqXqXqXqXqXqXqXqXqX% R.Q._.:X{.).A qXqXqXqXqXqXqXqXqXqXqXqXqXqXqXqXqXqXqXqXqXqX",
"qXqXqXqXqXqXqXqXqXqXqXqXqXqXqXqXqXqXqX  & T.^.-X=X-X~.D   qXqXqXqXqXqXqXqXqXqXqXqXqXqXqXqXqXqXqXqXqX",
"qXqXqXqXqXqXqXqXqXqXqXqXqXqXqXqXqXqXqX  1 c.OXh.-X>X}.* (.=X0 qXqXqXqXqXqXqXqXqXqXqXqXqXqXqXqXqXqXqX",
"qXqXqXqXqXqXqXqXqXqXqXqXqXqXqXqXqXqXqX; X.k.M o b.`.(.5X2X2X1X0 qXqXqXqXqXqXqXqXqXqXqXqXqXqXqXqXqXqX",
"qXqXqXqXqXqXqXqXqXqXqXqXqXqXqXqXqXs >  .A x.D ].l ` =XS 7X|.8X=XB qXqXqXqXqXqXqXqXqXqXqXqXqXqXqXqXqX",
"qXqXqXqXqXqXqXqXqXqXqXqXqXqXqXqXn V.C.#.|.D.3X.XOX1.oXj.9 0X8X7X>XV qXqXqXqXqXqXqXqXqXqXqXqXqXqXqXqX",
"qXqXqXqXqXqXqXqXqXqXqXqXqXqXqXqXe.Z.oX$Xz..X0Xh.oXf.X.oX9 * S 7X X5XE.qXqXqXqXqXqXqXqXqXqXqXqXqXqXqX",
"qXqXqXqXqXqXqXqXqXqXqXqXqXqXqXqXe.Z.+XOX+X$Xj.P.x.$XM..XqXqXqX  O Z  XX qXqXqXqXqXqXqXqXqXqXqXqXqXqX",
"qXqXqXqXqXqXqXqXqXqXqXqXqXqXqXqXs V.L.$X$X+X+.D.c.#X].b qXqXqXqXqXqXqXqXqXqXqXqXqXqXqXqXqXqXqXqXqXqX",
"qXqXqXqXqXqXqXqXqXqXqXqXqXqXqXqX  | &... .5.0.u.G.].u.d.qXqXqXqXqXqXqXqXqXqXqXqXqXqXqXqXqXqXqXqXqXqX",
"qXqXqXqXqXqXqXqXqXqXqXqXqXqXqXqX  0.p.l. .q.w.q.4.1.d.1.qXqXqXqXqXqXqXqXqXqXqXqXqXqXqXqXqXqXqXqXqXqX",
"qXqXqXqXqXqXqXqXqXqXqXqXqXqXqXqXqX) 9.H.;.6.7.q.3.s.8.x qXqXqXqXqXqXqXqXqXqXqXqXqXqXqXqXqXqXqXqXqXqX",
"qXqXqXqXqXqXqXqXqXqXqXqXqXqXqXqXqX. ` f C.XXb 7.2.6 ) qXqXqXqXqXqXqXqXqXqXqXqXqXqXqXqXqXqXqXqXqXqXqX",
"qXqXqXqXqXqXqXqXqXqXqXqXqXqXqXqXqXqX  . | O O.-.n 7 l qXqXqXqX, qXqXqXqXqXqXqXqXqXqXqXqXqXqXqXqXqXqX",
"qXqXqXqXqXqXqXqXqXqXqXqXqXqXqXqXqX+ X.V.*.@   O 5 & =.qXqXqX; XXqXqXqX  qXqXqXqXqXqXqXqXqXqXqXqXqXqX",
"qXqXqXqXqXqXqXqXqXqXqXqXqXqXqXqXn S.I.OX+.9 o O 4 N M qXqX> C.=.  g %.v.^ qXqXqXqXqXqXqXqXqXqXqXqXqX",
"qXqXqXqXqXqXqXqXqXqXqXqXqXqX. $.L.h.g.D.-.*X#X=.7 6 Z [., K.+Xx.D.&X=.A.j + qXqXqXqXqXqXqXqXqXqXqXqX",
"qXqXqXqXqXqXqXqXqXqXqXqXqXqX. t.Z.I.I.m.Z.m.r.J.U...% @XP.$XF.@X+Xc.A.^ ;.qXqXqXqXqXqXqXqXqXqXqXqXqX",
"qXqXqXqXqXqXqXqXqXqXqXqXqXqX  e.B.n.B.t.n.B.e.*.o.2 >.4.+XJ.m.M.@X#.f.f.@.qXqXqXqXqXqXqXqXqXqXqXqXqX",
"qXqXqXqXqXqXqXqXqXqXqXqXqXqXqX; #.r.n.n.n.*.*.) 3.) >.6 j r.B.B.U.P.C.^ + qXqXqXqXqXqXqXqXqXqXqXqXqX",
"qXqXqXqXqXqXqXqXqXqXqXqXqXqXqX  :.2 V.B.b.+.< x _ < N 4 Y.1 @.@.j g s   qXqXqXqXqXqXqXqXqXqXqXqXqXqX",
"qXqXqXqXqXqXqXqXqXqXqXqXqXqXqX  :.z d m.;.      % N 8 k !.d qXqXqXqXqXqXqXqXqXqXqXqXqXqXqXqXqXqXqXqX",
"qXqXqXqXqXqXqXqXqXqXqXqXqXqXqXqX# ,.:.$ r F r = w P T C <.8.qXqXqXqXqXqXqXqXqXqXqXqXqXqXqXqXqXqXqXqX",
"qXqXqXqXqXqXqXqXqXqXqXqXqXqXqXqXqX# . qX- I I F u w Y 2.a.; qXqXqXqXqXqXqXqXqXqXqXqXqXqXqXqXqXqXqXqX",
"qXqXqXqXqXqXqXqXqXqXqXqXqXqXqXqXqXqXqXqXt U Y @ qXe R   2 qXqXqXqXqXqXqXqXqXqXqXqXqXqXqXqXqXqXqXqXqX",
"qXqXqXqXqXqXqXqXqXqXqXqXqXqXqXqXqXqXqX  H T F qXqXw T qXqXqXqXqXqXqXqXqXqXqXqXqXqXqXqXqXqXqXqXqXqXqX",
"qXqXqXqXqXqXqXqXqXqXqXqXqXqXqXqXqXqXqX  K Y e qXqXw T qXqXqXqXqXqXqXqXqXqXqXqXqXqXqXqXqXqXqXqXqXqXqX",
"qXqXqXqXqXqXqXqXqXqXqXqXqXqXqXqXqXqXqX- Y I   qXqXt T u qXqXqXqXqXqXqXqXqXqXqXqXqXqXqXqXqXqXqXqXqXqX",
"qXqXqXqXqXqXqXqXqXqXqXqXqXqXqXqXqX  @ K R i qXqXqXt Y F w   qXqXqXqXqXqXqXqXqXqXqXqXqXqXqXqXqXqXqXqX",
"qXqXqXqXqXqXqXqXqXqXqXqXqXqXqXqX- J L G U K y qXt F U T R G + qXqXqXqXqXqXqXqXqXqXqXqXqXqXqXqXqXqXqX",
"qXqXqXqXqXqXqXqXqXqXqXqXqXqXqXqX+ L J R R R P   G J Y T P W &.> qXqXqXqXqXqXqXqXqXqXqXqXqXqXqXqXqXqX",
"qXqXqXqXqXqXqXqXqXqXqXqXqXqXqX  c f i U P p f qX1 f f Q [ [ { } !   qXqXqXqXqXqXqXqXqXqXqXqXqXqXqXqX",
"qXqXqXqXqXqXqXqXqXqXqXqXqXqXqXa v v c m b { /   s c c E ] { ( ( } c qXqXqXqXqXqXqXqXqXqXqXqXqXqXqXqX",
"qXqXqXqXqXqXqXqXqXqXqXqXqXqXqXh c c c h ~ / W   . h v c h ! { / { /   qXqXqXqXqXqXqXqXqXqXqXqXqXqXqX",
"qXqXqXqXqXqXqXqXqXqXqXqXqXqXqXa v v v s { &.a qXqX  . + f E } E ( 1 qXqXqXqXqXqXqXqXqXqXqXqXqXqXqXqX",
"qXqXqXqXqXqXqXqXqXqXqXqXqXqXqXqX  + ; ; ~ !   qXqXqXqXqX  a E c   qXqXqXqXqXqXqXqXqXqXqXqXqXqXqXqXqX",
"qXqXqXqXqXqXqXqXqXqXqXqXqXqXqXqXqXqXqXqX.   qXqXqXqXqXqXqXqX.   qXqXqXqXqXqXqXqXqXqXqXqXqXqXqXqXqXqX",
"qXqXqXqXqXqXqXqXqXqXqXqXqXqXqXqXqXqXqXqXqXqXqXqXqXqXqXqXqXqXqXqXqXqXqXqXqXqXqXqXqXqXqXqXqXqXqXqXqXqX"
};
