/* XPM */
static char *result[] = {
/* columns rows colors chars-per-pixel */
"50 50 230 2 ",
"   c #689F1E",
".  c #57A71D",
"X  c #6AA91A",
"o  c #6FB817",
"O  c #74B51B",
"+  c #6B9B23",
"@  c #6A9629",
"#  c #6E9B35",
"$  c #729935",
"%  c #759E3B",
"&  c #7A9E3F",
"*  c #5EAD25",
"=  c #6AA229",
"-  c #76A828",
";  c #78B928",
":  c #6BAB36",
">  c #74A332",
",  c #79A737",
"<  c #75AC36",
"1  c #73A43B",
"2  c #7BA43C",
"3  c #7DAB3B",
"4  c #7DB332",
"5  c #7AB53B",
"6  c #7A9C43",
"7  c #7C9748",
"8  c #7DA344",
"9  c #7BAB42",
"0  c #7DB946",
"q  c #8CB82A",
"w  c #82AB3C",
"e  c #8BAD3D",
"r  c #87B737",
"t  c #81B239",
"y  c #8DBC3C",
"u  c #90BF3F",
"i  c #8CD01B",
"p  c #88C528",
"a  c #93C33B",
"s  c #849F46",
"d  c #849C4A",
"f  c #869655",
"g  c #8E9D5A",
"h  c #939C5A",
"j  c #9C9B5D",
"k  c #A29F5E",
"l  c #82A544",
"z  c #8DAD45",
"x  c #85A14A",
"c  c #8BA44E",
"v  c #84A948",
"b  c #8AAC4B",
"n  c #84B542",
"m  c #8BB442",
"M  c #8CBB42",
"N  c #8CB04C",
"B  c #95BC43",
"V  c #97B847",
"C  c #93B34C",
"Z  c #9AB44E",
"A  c #94BB4A",
"S  c #8BA354",
"D  c #86A855",
"F  c #8CAC54",
"G  c #94A453",
"H  c #9EA454",
"J  c #93AC54",
"K  c #9CAB55",
"L  c #95A55B",
"P  c #9CA45B",
"I  c #94AB5E",
"U  c #9AAD5C",
"Y  c #8DB857",
"T  c #9BB354",
"R  c #94BB52",
"E  c #9CBB53",
"W  c #96B25A",
"Q  c #9CB459",
"!  c #9BBB5D",
"~  c #A5A75A",
"^  c #A4A45C",
"/  c #A4AC5D",
"(  c #ACAC5D",
")  c #B1AF5F",
"_  c #A3B355",
"`  c #A3BB53",
"'  c #A2B45B",
"]  c #ACB25A",
"[  c #A6BC5D",
"{  c #ACBA5B",
"}  c #B2B35E",
"|  c #B2BB5C",
" . c #BBBE5D",
".. c #9F9D61",
"X. c #9B9969",
"o. c #A39F64",
"O. c #A29E6A",
"+. c #A39C72",
"@. c #96A262",
"#. c #9BA363",
"$. c #96AE63",
"%. c #9CAC65",
"&. c #9EA46C",
"*. c #9DB363",
"=. c #9DBC64",
"-. c #9BB46C",
";. c #A5A364",
":. c #AAA565",
">. c #A4AB64",
",. c #ADAB64",
"<. c #A5A26A",
"1. c #ABA56B",
"2. c #A4AC6B",
"3. c #ADAA6C",
"4. c #B2AD65",
"5. c #B0A769",
"6. c #B3AC6C",
"7. c #B9AE6E",
"8. c #A3B462",
"9. c #ADB263",
"0. c #A5BC63",
"q. c #AABB66",
"w. c #A4B36B",
"e. c #ACB36A",
"r. c #B4B363",
"t. c #B9B565",
"y. c #B4B965",
"u. c #BBBB64",
"i. c #B5B26C",
"p. c #BAB46C",
"a. c #B4BB6B",
"s. c #BDBA6B",
"d. c #ADA572",
"f. c #A8A775",
"g. c #ACAB74",
"h. c #ACA579",
"j. c #B0A672",
"k. c #B4AC73",
"l. c #BAAE74",
"z. c #B4A67C",
"x. c #B5AC7A",
"c. c #BAAE7A",
"v. c #A3B573",
"b. c #ADB374",
"n. c #AABB73",
"m. c #ADB479",
"M. c #B5B273",
"N. c #BBB374",
"B. c #B5BB72",
"V. c #BCBA74",
"C. c #B5B37A",
"Z. c #BCB37C",
"A. c #B4BB7B",
"S. c #BBBB7C",
"D. c #C0BB67",
"F. c #C3BD6E",
"G. c #C1B575",
"H. c #C2BD74",
"J. c #C1B57D",
"K. c #C2BB7C",
"L. c #C8BA7C",
"P. c #8FC042",
"I. c #9AC349",
"U. c #A3C049",
"Y. c #A6C459",
"T. c #B6C35F",
"R. c #ABC16A",
"E. c #BDC163",
"W. c #B6C16E",
"Q. c #B3C174",
"!. c #B6C379",
"~. c #BDC37D",
"^. c #C7C767",
"/. c #C2C273",
"(. c #C2C27C",
"). c #CAC77A",
"_. c #B4AA82",
"`. c #BCAF81",
"'. c #B5B284",
"]. c #BDB382",
"[. c #B6BD83",
"{. c #BDB984",
"}. c #BDB489",
"|. c #BDBC89",
" X c #C1B584",
".X c #C4BA84",
"XX c #C8BC86",
"oX c #C4B68A",
"OX c #C5BA8B",
"+X c #C9BC8D",
"@X c #C6B792",
"#X c #C5BB91",
"$X c #CBBD93",
"%X c #CEBE99",
"&X c #D0BF97",
"*X c #D0BF99",
"=X c #B7C386",
"-X c #BDC282",
";X c #BDC092",
":X c #C4C283",
">X c #C9C384",
",X c #CCCD82",
"<X c #C5C28B",
"1X c #CBC28B",
"2X c #CDC98D",
"3X c #D0CE8E",
"4X c #C5C292",
"5X c #CBC293",
"6X c #CDCA94",
"7X c #CEC39A",
"8X c #CCCA9B",
"9X c #D1C394",
"0X c #D3C993",
"qX c #D2C39D",
"wX c #D4C99E",
"eX c #D1D395",
"rX c #CCC6A0",
"tX c #D4C6A2",
"yX c #D5CAA4",
"uX c #D8CAA7",
"iX c #D5CCAA",
"pX c #D9CCAB",
"aX c #D8D2A4",
"sX c #DAD0AC",
"dX c #D7CCB1",
"fX c #D9CFB2",
"gX c #DBD1B3",
"hX c #D7D2B8",
"jX c #DDD5BB",
"kX c #E0D7BF",
/* pixels */
"i ; < =.=X5X9X$XZ u Q.<X[.3.3.;X#X_.S 6 F 0.=.W M < 9 9 1 9 I v.D 8 ; < 5 n l 3 N tX%Xg.e - + @ +   ",
"p ; , w.<X6X5X.Xa E :X5X$X].3.].g.T z n ! ~.=XA.R.y Q v.$.-.=X'.%.6 M 4 Y [.m.I I wX$XC.V - - O X   ",
"p 4 3 J w.g.M.E B 0.+X9X$Xc.1.3.^ _ W.8.' e.3.3.,.B S.OXm.w.n.}.g.d l 4 ! [.S.>.@.5X$Xw.z w - ; O X ",
"4 4 t z K r.e.Z V E b.x.j.l.k.6.,.a.<XN.{.<X{.,.] { N.j.<.>.y.g.;.g G C *.w.3.%.L g.w.U J U c > - o ",
"1 p r V [ .X.X0.C R.,.1.].$X$X+XOXK..XOXwXpXwXH.) Z.Z.k.;.,.r.4.4.~ / B.A.M.1.' ' J U n.=X[.m.@.% O ",
"n Y.[ E R.7X7Xk.a.6XN.S.rXgXpXuXyX$XZ.OX%XtXtX+X( +X*X+XN.4.p.K.).u.9.{.7XOXk.N.-X` a.8XrX8X@X'.d @ ",
"R.8X(.Y.Y.{.$X1.1XpX XZ.5XtXtX*XqX9X Xj.c.$X&X XH oX$X@Xc.1.N.yXyX/.9.N.$X].Z.7XwXy.B.6XtX%X%X}.3.$ ",
"[.#X+Xa.' e.k.:.2X5XM.6.j.Z.+X#XoXoX`.6.,.j.l.6.) o.5.1.o.4.Z.9X$X.Xl.j.l.j.C.7X#X<.,.j.'.OX}.x.<.1 ",
"}.OXc.x.M.i.p.| 9.~ ( N.N.7.;.o.j j j t.u.t.t.} D.N.i.4.6.4.p.oXoXz.Z.c.l.l.6.<.k 4.Z.s.{ ' K d 1 > ",
"O.U >.OXyX#Xk.0XhXOX5XiX9XG.s.9XhXOXN.4.p.G.7.4.N.pX}.4.r.7.6.k.d.c.7XtXZ..XyXpX XwXgX:XT.{ Q.n.F 6 ",
"l m / k.x.j.k.wXgX@X+XyXwX X.XpXtXd.OXZ.L.oX Xl.l.yXZ.V.K.N.4.) 4.6.x.x.j. XuXyXoX5XsX+XK.>X$Xm.g I ",
"t R.=X#X{.l.N.qXpX+XOXwX%X XL.@X_.j.9XZ. X$XoXN.t.>Xt.<X+XG.t.s.6X4XOX].k..XwXtXoX+XpXOXJ..XoX+.&.v.",
"b -XtXuX%X].k. X@Xz.c.+X Xx.G.c.6.{.7Xc.k. XZ.p.u.s.r..X].p.H..XyXtXtX$Xl.Z.oXoXl.J.$XC.l.l.d.+.f.v.",
"S C.OX9X$Xc.3.i.d.;.k.c.l.Z.oXl.l.Z.].p.r.i.p.t.E.u.s.l.j.N.>X XoX$XtXoXx.4.d.3.^ k.N.k.oXJ.j.+.<.$.",
"N J 3.].`.6.4.K.Z.]..Xl.Z.wXpXc.+X6.4.u.u.s.s. .E.t.K.N.M.OX7XJ.1.x.oXx.3.p.S.x.M.Z.6.+XiX#Xz.d.g 8 ",
"0 N ' e.1.3..XfXpXtXpX X#XpX$Xx.+X].6.r.V.#X5Xi.} ;.OXoXOX$X5X+Xl.6.6.:.6.5XpXyXtXpXl.7XyX].z._.X.7 ",
"Y T !.eX1X.X.XtXtXtXtXZ.oXtX$Xg.OX$Xj.6..XtXqXXX^ k OX$X]. X$XoX5.pXfX$X.X$XtXtXqXtXk.$XwXZ.h._.d.7 ",
"F e.5XwX&XJ.l.].$X*XoXx.].$XoXo..X$Xz.4.N.$XqX&X,.4.M.j.1.6.k.d. XpXtXOXG.l.oX$X*XoX5.oX$Xg.O._.g.3 ",
"0 =.S.OXl.1.6.6.1.1.1.( 1.1.1.6.l.d.d.{.].].$XOX;.4.s.p.C.#X X1.].oXoXd.5.6.5.1.;.,.,.3.1.1.1.+.g w ",
"5 I.[ H..X+X5X.X4.4.W.6X#Xx.l.#X7Xx.{.7XOX6.:.1.4..X5XK.OX%XOX:.s.6..XL.*X5XZ.,.r.).rX{.j.{.#X_.L e ",
"r B { :XqXyXyX&Xj.p.0XsX*X XJ.tXtXoXZ.OXZ.6.9.( } $XqX&XOXoX{.1.r.p.9XqXuXyX.X6.H.aXfX$XZ.+XrX@X2.w ",
"I.{ t.1XtXqXqX+X1.J.wXqX$X Xl.$X].Z.6.N.k.S.>XH.4.Z.&X&XZ.M.l.N.p.s.tXtX9X*X Xj.>XuXqX@Xl. XOXk.L 2 ",
"Y.Z.M.Z.OXOXoXc.:.$XqXqX$X`.5.k.1.p.J.V.i..XwX+X^ 1. XoXp.4.N. X X6.oXoX#X Xj.k.wXqX*X$Xk.6.3.J w 2 ",
"I.n.,.,.:.3.:.o.p.XXoX$XoXl.5.( i.K.wXwX(.G.Z.].,.4.6.6.4.r.7. Xc.1.6.j.1.o.1.N.OX$X$Xc.6.,._ y 4 3 ",
"M C V V _ 4.,.) t.7.1.o.^ 7.D.t.7.D.K.+X.Xt.4.( 4.D.p.7.4.t.D.,.^ ) 4.6.4.4.7.r.4.;.~ ( p.t.` a r 9 ",
"!.I.m Q 3.;.4.N.,X9XoX6..XqX+Xc.+XJ.p.t.t.H./. .D.$X2X/.u./.3XOXr.} c.5.1.7.oX9X+Xs.,.9X9X XS.B.C t ",
"|.` B.4X+Xc.6.5XqXqXqXZ. XtX$Xc.OX$XZ.t.H.9X9XL.) $X&X>Xp.B.1XOX3.5XqXoX6.Z.9XtXqX9Xj.&XqX XM.(.M.L ",
"f.2.5XyX$Xc.1. X*XqX@Xj.c.*XoXo. X&Xc.( p.1X9X.X( p.oXN.,.y.N.z.c.tXqXoX5.x.OX*X*XOX1.+X&Xz.3.K.{.X.",
"G 2.OXOX`.l.5.6.i.Z.1.<.5.x.5.1.l.x.<.~ ( V.+X X( r.B.t.,.r.r.3.Z.$X@Xx.j.6.k.x.`.1.:.x.k.1.4.y.%.f ",
"z E 8.S. X X$XN.( 7.c.}.].6.1.7.N.6.;.( ] ,.p.N.) ( K.J.M.6.t.N.J.c. XJ.+XOXk.5.l.}.OXZ.1.6.p.e.C , ",
"` A C B.0XyXgX$Xk.G.tXdX7X].N.+X+XXX6.p.s.N.N.p.4.(  X}.k.7.H.XXG.6.9X0XpXuX.Xk.L.gXhX#XN.J..X.X' 4 ",
"|.w.! :XyXtX9X$Xd.N.qXqX$XZ.Z.tX$X X1.5..XwXyX5X6.( 4.3.6.s.K.*Xc.G.tXtXqXqXoXk.L.uXyXOXN.(.6XOXf.6 ",
"m.g.>.A.#X$X$X Xo.5XqX*X$X X1.x.+.4.7.l.Z.$X7X%X].y.V.+X Xk.Z.$X`.5.@X$X&XoXc.j.yXqX*X$XJ.s.i.2.K l ",
"R b./ P ;.<.1.;.^.+X%X%XOXx.5.1.,.G.2Xl.1.5.:.:.1.] .X$X].5.k.oXoXo.1.O.O.1.4.^.$XqXqX].1.o.;.4.e.0.",
"& g L Z { s.N.7. .7.1.<.<.l.l.J.p.Z.+X X5XpX1Xr.} r.3.1...;.6.6.;.o.l.p.N.N.p.s.k.1.X.5.k.l.l.7.a.-.",
"2 r C ] V.5X5Xc.G.XXk.6.$XpXtX9XqXoX].$XtXyXqXOX( .XOX].6.4.t.t.s.4.s.OX9XoXl.G.+X,.N.rXyX8X7X+X3.x ",
"n.R.a.p.Z.5X$Xj.XXyX X XrXfXpXtXuX*X Xc.+XqXqX+X^ $XqX$Xc.5.N.1X9X^.p.oXqXOXc.5XyXl.OXpXpXtXtXtX[.g ",
"}.$X>XN.l. X X1.9XyXZ.c.OX$XqX*X*X$X X5.k.oXoXZ.~ x. X`.k.1.Z.tXqXXXl.c.oXx.x.qX7Xj.Z.OX7X9X7X$XoX#.",
"0.].].Z.l.l.k.1.+X].6.k.l.c.].`.x.x.j.6.4.6.l.4.t.3.3.1.1.5.l.*X$X Xc.l.l.j.l.OXZ.3.l.k.Z.Z.S.B.d.@.",
"q U <.Z.oX Xl.J.|.1.k..X.Xp.,.g.g.1.;. .D.p.t.r.t.OXN.4.4.5.6.oX Xx.oXoXc.G.].C.,.N.1XJ.r.,.y.e.P x ",
"7 l L }.rXOXl.aXkX@X4XaX6XH.F.eXjX#X X4.N.K.l.4.N.pX].i.i.6.6.5.;.l.7XrXZ. XgXsX:XwXjX+XT.).aXsXm.S ",
"; z P ;.<.<.l.qXpX$X+XqXtXOX+XyX$X;.5XK.XX$XoXc.k.tXB.>X1XK.} ] t.1.1.;.1. XyXtXOX+XpX$X.X9XtX].;.m.",
"3 v.#X8X#XV.9.4XpX#XOXqX%X XG.`.d.Z.tXC.c.$XoXZ.r.W.r.4X$XN.D./.yXyX7XOXN. XtXqX{.+XpXoXa.a.b.2.e.w.",
"8 f.#XqX$XC.T =.x.<.x.].x.5.l.l.6.{.7XN.6.l.l.r. .^ ,.Z.x.p./..XwXqXtX$Xl.k.C.g.O.c.{.1./ _ _ Q w.%.",
"8 g h.#XOX3.C Y >.3.k.e.i.OX4XN.S.N.N.t.u.r.t. .u.,.s.l.j.{.1XK.l.oX$XoX3.' e.d.5.J.k.a.E.U.B m v 9 ",
"1 6 S %.2.T R !.-X+X<Xa.B.6X6Xi.{.l.4.r.t.K..Xr.u.,..XZ.Z.<X7XK.Z 8.l.1.T 0.{.+X$X7X6.1X,X0.R m & = ",
": 6 8 -.*.Z R 8XuXtX7Xb.m.4X.X2.A.`.3.,.V.5X7XN.} ^ .X.X{.OX$X~.a R.C.g.' Q.5XtXtXuXj.7X7XM.I b s @ ",
": : I [.A.8.C '.%X%X#X<.2.oX_.S 2.OX<./ S.5X*X+X^ ~ V.S.k.c.{.b.P.<X7XOX8.w.[.:X$X$Xd.OX|.%.d & $ @ ",
"* = 8 $.$.J z #.x.C.h.h X.f.&.8 F x.&.Z 8. X5X#X:.( 9.>.;.1.2.S y ~.|.h.J v b Y.q.f.j 2.@.l > @ @ + ",
". * # 6 % & x x 2 4 2 d f 7 7 6 8 f d y I.,. X{.j P { ' *.-.Y : 9 $.2.8 9 3 < ; O 2 % : > > = X @ = "
};
