/* XPM */
static char *result[] = {
/* columns rows colors chars-per-pixel */
"50 50 112 2 ",
"   c #2F1C19",
".  c #351C17",
"X  c #3B1C15",
"o  c #311C19",
"O  c #3A1E18",
"+  c #35211B",
"@  c #3B241D",
"#  c #3D2A1E",
"$  c #3E2920",
"%  c #441C12",
"&  c #481C11",
"*  c #4E2114",
"=  c #43251D",
"-  c #4A2419",
";  c #422E1F",
":  c #4E291E",
">  c #512316",
",  c #542619",
"<  c #542B1E",
"1  c #5C2C1D",
"2  c #47301F",
"3  c #622F1F",
"4  c #432C22",
"5  c #4C2E22",
"6  c #5B2E20",
"7  c #453221",
"8  c #4A3424",
"9  c #4F3A27",
"0  c #46312B",
"q  c #4A3429",
"w  c #4F382A",
"e  c #533223",
"r  c #5A3426",
"t  c #593A27",
"y  c #583428",
"u  c #533D2A",
"i  c #4F3831",
"p  c #553E33",
"a  c #5B3E33",
"s  c #633321",
"d  c #693522",
"f  c #653826",
"g  c #6D3925",
"h  c #633D2A",
"j  c #6C3D2A",
"k  c #713B27",
"l  c #733E29",
"z  c #57402C",
"x  c #5A432E",
"c  c #5E4631",
"v  c #5A4239",
"b  c #63432E",
"n  c #6C412D",
"m  c #76412B",
"M  c #7C462F",
"N  c #614731",
"B  c #6B4231",
"V  c #6F4A32",
"C  c #65473B",
"Z  c #764630",
"A  c #794731",
"S  c #774D34",
"D  c #7C4C34",
"F  c #744B3A",
"G  c #7A4E3B",
"H  c #7A513E",
"J  c #685047",
"K  c #6F5649",
"L  c #71574A",
"P  c #755A4B",
"I  c #7A5848",
"U  c #7B614E",
"Y  c #834D33",
"T  c #865035",
"R  c #895136",
"E  c #8D5539",
"W  c #8C593A",
"Q  c #935C3D",
"!  c #96603F",
"~  c #815440",
"^  c #8F5B41",
"/  c #8A614D",
"(  c #976140",
")  c #9C6543",
"_  c #9F6945",
"`  c #93644B",
"'  c #846A54",
"]  c #81685C",
"[  c #8A6F5D",
"{  c #976B52",
"}  c #996D54",
"|  c #95725C",
" . c #9E775E",
".. c #A16A46",
"X. c #A56E49",
"o. c #A7704A",
"O. c #AA734C",
"+. c #8F7566",
"@. c #9A7761",
"#. c #9D7A64",
"$. c #947A6A",
"%. c #A27B66",
"&. c #A68771",
"*. c #A88770",
"=. c #A58873",
"-. c #A98B74",
";. c #BB9D86",
":. c #C7A994",
">. c #CBAD97",
",. c #CCAE98",
"<. c #CFB19B",
"1. c None",
/* pixels */
"1.1.1.1.1.1.1.1.1.1.1.1.1.1.1.1.1.1.1.1.1.1.1.1.1.1.1.1.1.1.1.1.1.1.1.1.1.1.1.1.1.1.1.1.1.1.1.1.1.1.",
"1.1.1.1.1.1.1.1.1.1.1.1.1.1.1.1.1.1.1.1.1.1.1.1.1.1.1.1.1.1.1.1.1.1.1.1.1.1.1.1.1.1.1.1.1.1.1.1.1.1.",
"1.1.1.1.1.1.1.1.1.1.1.1.1.1.1.1.1.1.1.1.1.1.1.1.1.1.1.1.1.1.1.1.1.1.1.1.1.1.1.1.1.1.1.1.1.1.1.1.1.1.",
"1.1.1.1.1.1.1.1.1.1.1.1.1.1.1.1.    1.1.o           o 1.1.1.1.1.1.1.1.1.1.1.1.1.1.1.1.1.1.1.1.1.1.1.",
"1.1.1.1.1.1.1.1.1.1.1.1.1.1.1.1.o # $ 1.o + + o @ # o 1.1.1.1.1.1.1.1.1.1.1.1.1.1.1.1.1.1.1.1.1.1.1.",
"1.1.1.1.1.1.1.1.1.1.1.1.1.1.1.1.o u 8 o   @ # o w w o 1.1.1.1.1.1.1.1.1.1.1.1.1.1.1.1.1.1.1.1.1.1.1.",
"1.1.1.1.1.1.1.1.1.1.  o o o o   o u c q # # 7 9 x w o o o o o 1.1.1.1.1.1.1.1.1.1.1.1.1.1.1.1.1.1.1.",
"1.1.1.1.1.1.1.1.1.1.o @ $ $ + o @ u c x 7 7 8 c c w + + + + o 1.1.1.1.1.1.1.1.1.1.1.1.1.1.1.1.1.1.1.",
"1.1.1.1.1.1.1.1.1.1.o 8 c c $ + # z c x 8 # 8 c c z $ 2 # #   1.1.1.1.1.1.1.1.1.1.1.1.1.1.1.1.1.1.1.",
"1.1.1.1.1.1.1.1.1.1.  $ 8 c w 8 2 x c c z 9 2 c c z 2 $ # # + 1.1.1.1.1.1.1.1.1.1.1.1.1.1.1.1.1.1.1.",
"1.1.1.1.1.1.1.1.1.1.    @ z c z z z c c c z 8 x x 9 2 7 # o 1.1.1.1.1.1.1.1.1.1.1.1.1.1.1.1.1.1.1.1.",
"1.1.1.1.1.1.1.1.1.1.1.  + 7 z c x x c c c 8 8 x 9 7 7 u 8   o o o 1.1.1.1.1.1.1.1.1.1.1.1.1.1.1.1.1.",
"1.1.1.1.1.1.1.1.1.1.1.+ # 7 z c c c x z 9 7 2 z 8 7 w c 8 + 4 #   1.1.1.1.1.1.1.1.1.1.1.1.1.1.1.1.1.",
"1.1.1.1.1.1.1.1.1.1.  @ # # 9 x x c z # 2 2 2 2 2 8 c c w # x 4 o 1.1.1.1.1.1.1.1.1.1.1.1.1.1.1.1.1.",
"1.1.1.1.1.1.1.1.1.1.o o + + + $ 2 z z s 3 s s s 8 8 c c x z c 4 o o     + 1.1.1.1.1.1.1.1.1.1.1.1.1.",
"1.1.1.1.1.1.1.1.1.1.1.o     o + # t n m m m m m f b b h c c c q +   + + o 1.1.1.1.1.1.1.1.1.1.1.1.1.",
"1.1.1.1.1.1.1.1.1.1.1.o . o . . + 1 m T R R E R R Y g g h b c 9 # + # #   1.1.1.1.1.1.1.1.1.1.1.1.1.",
"1.1.1.1.1.1.1.1.1.1.d = 4 j B r   # f T R Q ......) ! ! T h x 9 # # # #   1.1.1.1.1.1.1.1.1.1.1.1.1.",
"1.1.1.1.1.1.1.1.1.1.d < y ` ` I : O e E Q _ O.O.O.O.O.O.! M n 9 # 2 # # + o 1.1.1.1.1.1.1.1.1.1.1.1.",
"1.1.1.1.1.1.1.1.1.1.d d F &.-.@.T ; r W X.O.O.O.O.O.O.O.O...k e 2 # 2 #   o o 1.1.1.1.1.1.1.1.1.1.1.",
"1.1.1.1.1.1.1.1.1.1.d d j ~ #.@.V n M E X.O.O.O.O.O.O.O.O.o.! D x 2 2 2 @ +   1.1.1.1.1.1.1.1.1.1.1.",
"1.1.1.1.1.1.1.1.1.1.6 6 6 6 I U c D R W X.O.O.O.O.O.O.O.O.O.O.! T t 2 # # + o 1.1.1.1.1.1.1.1.1.1.1.",
"1.1.o o   o o   1.1.. O o O $ 0 N D R W X.O.O.O.O.O.O.O.O.O.O.O._ T u 2 7 +     1.1.1.1.1.1.1.1.1.1.",
"1.  4 K 0 i ] 0 o o o       5 j S T R R Q X.O.O.O.O.O.O.O.O.O.O...R Z t $ # +   1.1.1.1.1.1.1.1.1.1.",
"1.o i &.v J :.v o o O $ $ @ l R R R R R E Q X.O.O.O.O.O.O.O.O.o.) E R m 5 ; @   1.1.1.1.1.1.1.1.1.1.",
"  o i &.v J :.v   O 6 j A A Y R R R R R R E Q O.O.O.O.O.O.O.O.! E R R A 3 8 #   1.1.1.1.1.1.1.1.1.1.",
"o # p ' w J >.+.C 5 k Y R R R R R R R R R R E ! o.O.O.O.O.o...Q R R R Y m : +   1.1.1.1.1.1.1.1.1.1.",
"  0 x N 4 J <.,.%.m Y R R R R E E E R R R R R R _ o.o.o.o...E R R R R R Y 4     1.1.1.1.1.1.1.1.1.1.",
"  $ 4 x $ J <.;.*. .E R R R ) ......Q R R R R R E Q Q Q Q W R R R R R R Y 4   o 1.1.1.1.1.1.1.1.1.1.",
"    $ c 4 p $.=.-.*.} ^ E Q ..O.O.O.) R R R R R R R R R R R R R R R R R Y 6 @ o 1.1.1.1.1.1.1.1.1.1.",
"    $ c 4   $ ] *.-.*.{ Q o.O.O.O.O.) R R R T T R R R R R R R R R R R R R k : o 1.1.1.1.1.1.1.1.1.1.",
"      $ $   o i v v v j Y o.O.O.O.O.) R R R Y l Y R R R R R R R R R R R Y k : o o 1.1.1.1.1.1.1.1.1.",
"  o o o   o     o o o = f W W W E E E R R R Y d M R R R R R R R R R R R T k , O o 1.1.1.1.1.1.1.1.1.",
"1.1.1.1.o o o o o   o . O & * > > > d R R R Y g M R R R R R R R R R R R T k , % . 1.1.1.1.1.1.1.1.1.",
"1.1.1.1.o o o X X X X X % % & & & , k R R R Y M Y R R R Q ) ) Q R R R Y l 3 * % . o 1.1.1.1.1.1.1.1.",
"1.1.1.1.o o o X % % % % % % & & > 3 k Y T R R R Y Y R E ) O.O.) E R Y l 3 * & % O o o 1.1.1.1.1.1.1.",
"1.1.1.1.1.1.1.o . o . o o o % > 3 d d k Y R R R m m R ..o.O.O.o...R m 3 * & & & % O o o 1.1.1.1.1.1.",
"1.1.1.1.1.1.1.1.o   o o o o - 1 d d d d m j y y d l R ..O.O.O.O.) M 3 > & & & & & - = o 1.1.1.1.1.1.",
"1.1.1.1.1.1.1.1.1.1.1.  o o r k d d d d s = o o < l Y ..O.O.O.o.Q k , & & & & & % 1 6 . 1.1.1.1.1.1.",
"1.1.1.1.1.1.1.1.1.1.  o o o P / d d d s = O   o < g l ) O.O.O.) E Y 3 & & & & % . , 6 o 1.1.1.1.1.1.",
"1.1.1.1.1.1.1.1.1.1.  o o   C F 6 G Z 5 o o   o % 6 6 Y ( ) ) Q R R d > & & % X . < 6 . o 1.1.1.1.1.",
"1.1.1.1.1.1.1.1.1.1.o o   o % & * +.P   o o o o   O & 6 k Y R R T T l 1 & & X o 1.d 6 O o o 1.1.1.1.",
"1.1.1.1.1.1.1.1.1.1.1.1.1.1.1.1.1.1.1.1.1.1.1.1.  o . % 4 e D R Y l g 1 & X . 1.1.d s 1 @   o o 1.1.",
"1.1.1.1.1.1.1.1.1.1.1.1.1.1.1.1.1.1.1.1.1.1.1.1.1.  o o o O h l k 3 1 , & X . 1.1.1.s r = @ + o o 1.",
"1.1.1.1.1.1.1.1.1.1.1.1.1.1.1.1.1.1.1.1.1.1.1.1.1.1.o o o   o O & & & & & & & 1.1.1.1.7 2 ; # +     ",
"1.1.1.1.1.1.1.1.1.1.1.1.1.1.1.1.1.1.1.1.1.1.1.1.1.o o   o   o . X X > 1 1 & %   1.1.1.1.1.9 u 9 4 o ",
"1.1.1.1.1.1.1.1.1.1.1.1.1.1.1.1.1.1.1.1.1.1.1.1.o o o     o o   o o < d s > X o 1.1.1.1.1.1.c N q   ",
"1.1.1.1.1.1.1.1.1.1.1.1.1.1.1.1.1.1.1.1.1.1.1.o   o   o o o 1.1.1.o < d d > X o 1.1.1.1.1.1.1.1.1.1.",
"1.1.1.1.1.1.1.1.1.1.1.1.1.1.1.1.1.1.1.1.1.1.1.o o o   o o   1.1.q L j d d G a o 1.1.1.1.1.1.1.1.1.1.",
"1.1.1.1.1.1.1.1.1.1.1.1.1.1.1.1.1.1.1.1.1.1.1.o   o o     o 1.  i &.I d g @.P o 1.1.1.1.1.1.1.1.1.1."
};
