/* XPM */
static char *result[] = {
/* columns rows colors chars-per-pixel */
"18 31 6 1 ",
"  c #141412",
". c #4B3720",
"X c #825E3A",
"o c #BD9168",
"O c #ECCBAC",
"+ c None",
/* pixels */
"++++++++++++++++++",
"++++++        ++++",
"+++++ ooOOOOOO +++",
"++++ ooOOOOOOOO ++",
"+++ XooOOOOOOOOO +",
"++ XXoooOOOOOOOO +",
"++ XXXoooOOOOOOo +",
"++ XXXXXXX   o  .+",
"++ .XXXXXX   O  .+",
"++ .XXX.XX  .O. .+",
"+++ .XX.oOOOo Xo +",
"++++ .X XoOOO oo +",
"+++++      .ooX ++",
"+++++++ ..     +++",
"+++         ++++++",
"++ OOooX.      +++",
"++ OOoooooX.  X ++",
"+++ ..XXoooo..o ++",
"+++ XXoooXXX..X ++",
"++++ XXoooo   o ++",
"+++++          +++",
"++++++   .. ++++++",
"+++++ XX     +++++",
"+++++ XXX.. X ++++",
"++++ ..XXX XX ++++",
"++++ XX   + .. +++",
"+++ ooX +++ .oo ++",
"+++ oo +++++ oo ++",
"++ XXX +++++ XX ++",
"++ XX ++++++ XX ++",
"+ ooX ++++++ Xoo +"
};
