/* XPM */
static char *result[] = {
/* columns rows colors chars-per-pixel */
"50 50 81 1 ",
"  c #1C1117",
". c #1E1319",
"X c #23151C",
"o c #26181E",
"O c #2B1D1C",
"+ c #2F201D",
"@ c #34241E",
"# c #39261F",
"$ c #3B281F",
"% c #1F1920",
"& c #271720",
"* c #221B22",
"= c #2B1B23",
"- c #301D27",
"; c #321E29",
": c #26242C",
"> c #322225",
", c #382723",
"< c #3E2C22",
"1 c #35232B",
"2 c #39242E",
"3 c #3B282F",
"4 c #272731",
"5 c #272831",
"6 c #292A34",
"7 c #3D2531",
"8 c #3E2A32",
"9 c #2C313C",
"0 c #402C23",
"q c #453125",
"w c #4B3425",
"e c #473228",
"r c #4E3928",
"t c #543D2A",
"y c #593F28",
"u c #422B35",
"i c #462D39",
"p c #482F3A",
"a c #463138",
"s c #4B333C",
"d c #57402A",
"f c #5A412B",
"g c #5F4431",
"h c #624529",
"j c #67482A",
"k c #68492B",
"l c #674B33",
"z c #6A4D32",
"x c #6F5133",
"c c #6F5138",
"v c #725334",
"b c #785736",
"n c #7A5937",
"m c #7C5B3B",
"M c #2E3642",
"N c #2E3844",
"B c #303845",
"V c #313E4B",
"C c #4F3740",
"Z c #4F3840",
"A c #513941",
"S c #32414F",
"D c #354553",
"F c #354856",
"G c #374B5A",
"H c #394C5B",
"J c #3C5768",
"K c #3E596B",
"L c #426173",
"P c #446679",
"I c #466A7E",
"U c #805E3C",
"Y c #84613E",
"T c #866340",
"R c #8D6845",
"E c #4A6E82",
"W c #4D768C",
"Q c #4D788E",
"! c #517B92",
"~ c #55829B",
"^ c None",
/* pixels */
"^^^^^^^^^^^^^^      ..          .. .^^^^^^^^^^^^^^",
"^^^^^^^^^^^^^X111.X1111=.>111=.=111>X^^^^^^^^^^^^^",
"^^^^^^^^^X.XXoaZZ=>ZZss1oaACC8.8sAsiX...X^^^^^^^^^",
"^^^^^^^  1auaaiii*=uii7&X8ii7>.1iiu;X>aa1 .^^^^^^^",
"^^^^^^=>>78iaa2;-XX;;-=XX-;;*X =;1-==ussu>>-^^^^^^",
"^^^^^.uAA1X=77X  .   .    .        &apuuaZAu.^^^^^",
"^^^^&>uip- Xo&^^^^^^^^^^^^^^^^^^^^^^-=&=1pi7=X^^^^",
"^^^.&777;&    ^^^^^^^^^^^^^^^^^^^^^^    =11;&X.^^^",
"^^. X--=X  ^^^^^^^^^^^^^^^^^^^^^^^^^^^^^^. X    ^^",
"^^.>>o&=<O ^^^^^^^^^^^^^^^^^^^^^^^^^^^^^^^ o28;X^^",
"^&=uuoXOt@ ^^^^^^^^^^^^^^^^^^^^^^^^^^^^^^^ =asu&X^",
" =7uas=Ot@ ^^^^^^^^^^^^^^^^^^^^^^^^^^^^^^^ .X2u7=.",
" =uu721qf# ^^^^^^^^^^^^^^^^^^^^^^^^^^^^^^^^  =22&.",
".-7u- ehj# ^^^^^^^^^^^^^^^^^^^^^^^^^^^^^^^^^ X=-X ",
"=-;1=.gnj$ ^^^^^^^^^^^^^^^^^^^^^^^^^^^^^^^^^ X.X..",
"&&&&=#zYj$ ^^^^^^^^^^^^^^^^^^^^^^^^^^^^^^^^^  X>>1",
".X..@fmUj$ ^^^^^^^^^^^^^^^^^^^^^^^^^^^^^^^^^^ =sAC",
"uu8o0mUbj$ ^^^^^^^^^^^^^^^^^^^^^^^^^^^^^^^^^^ *upi",
"sa3X,lvvj< ^^^^^^^^^^^^^^^^^^^^^^^^^^^^^^^^^^ *7uu",
"u>.  Xfvj$ ^^^^^^^^^^^^^^^^^^^^^^^^^^^^^^^^^^.&7uu",
"1&*BMX@wh$ ^^^^^^^^^^^^^^^^^^^^^^^^^^^^^^^^^^ X>;;",
"=&%JK9*@h$ ^^^^^^^^^^^^^^^^^^^^^^^^^^^^^^^^^^ X&&=",
"..*KW!M+h$ ^^^^^^^^^^^^^^^^^^^^^^^^^^^^^^^^^^  ...",
"3=%JLF:@h$ ^^^^^^^^^^^^^^^^^^^^^^^^^^^^^^^^^^ o177",
"C1%GV .>h$ ^^^^^^^^^^^^^^^^^^^^^^^^^^^^^^^^^^ =sCC",
"i>%%*.O0h$ ^^^^^^^^^^^^^^^^^^^^^^^^^^^^^^^^^^ *uiu",
"7-&..oqdf$.^^^^^^^^^^^^^^^^^^^^^^^^^^^^^^^^^^ X1;;",
"=-=.+<kvf@ ^^^^^^^^^^^^^^^^^^^^^^^^^^^^^^^^^^ .=;-",
"... #lmmf@ ^^^^^^^^^^^^^^^^^^^^^^^^^^^^^^^^^^ ..XX",
"1>>.<nTmf@ ^^^^^^^^^^^^^^^^^^^^^^^^^^^^^^^^^^ X>;;",
"ZAs><nTmf> .. ^^^^^^^^^^^^^^^^^^^^^^^^^^^^^^^.=sAA",
"pau=<mTmf>*D9 ^^^^^^^^^^^^^^^^^^^^^^^^^^^^^^^.&upp",
"772*0nUny>6ID ^^^^^^^^^^^^^^^^^^^^^^^^^^^^^^^ X2u7",
";;-.0nmvf@6!H ^^^^^^^^^^^^^^^^^^^^^^^^^^^^^^^ X--;",
"X&X qTUzy@6!H.^^^^^^^^^^^^^^^^^^^^^^^^^^^^^^^ .XoX",
"&&&.eRUvd>6WH ^^^^^^^^^^^^^^^^^^^^^^^^^^^^^^^ Xo&&",
"ssa*eRUvy@4PD ^^^^^^^^^^^^^^^^^^^^^^^^^^^^^^^ *ass",
"su1X>tzvf#6EF ^^^^^^^^^^^^^^^^^^^^^^^^^^^^^^^ &ipp",
"u- **.rkj#6EH ^^^^^^^^^^^^^^^^^^^^^^^^^^^^^^^ o2u7",
"u-%FV o0f@.64^^^^^^^^^^^^^^^^^^^^^^^^^^^^^^^^ X;;;",
"1>.JLS:+y# .^^^^^^^^^^^^^^^^^^^^^^^^^^^^^^^^^ .o&&",
"-o*JQ~M+h$ ^^^^^^^^^^^^^^^^^^^^^^^^^^^^^^^^^^. ..X",
"..:JK9:+y@ ^^^^^^^^^^^^^^^^^^^^^^^^^^^^^^^^^^ o8ui",
":=.SB.X@t@ ^^^^^^^^^^^^^^^^^^^^^^^^^^^^^^^^^^ =asp",
"A1 .  +<y@ ^^^^^^^^^^^^^^^^^^^^^^^^^^^^^^^^^^ o8uu",
"pu-X.+rfy@ ^^^^^^^^^^^^^^^^^^^^^^^^^^^^^^^^^^ *7uu",
"772XO<fzd> ^^^^^^^^^^^^^^^^^^^^^^^^^^^^^^^^^^ X277",
"-;-X@tfdd@ ^^^^^^^^^^^^^^^^^^^^^^^^^^^^^^^^^^.X---",
"XoXXX##@,O^^^^^^^^^^^^^^^^^^^^^^^^^^^^^^^^^^^ .XoX",
" .       ^^^^^^^^^^^^^^^^^^^^^^^^^^^^^^^^^^^^   .."
};
