/* XPM */
static char *result[] = {
/* columns rows colors chars-per-pixel */
"50 50 212 2 ",
"   c black",
".  c #010000",
"X  c #010101",
"o  c #020201",
"O  c #020202",
"+  c gray1",
"@  c #040303",
"#  c #060503",
"$  c #060606",
"%  c #070707",
"&  c #030807",
"*  c #090908",
"=  c #090909",
"-  c #0B0A09",
";  c gray4",
":  c #16080A",
">  c #0E1114",
",  c #101010",
"<  c #171411",
"1  c gray8",
"2  c gray9",
"3  c #1B1815",
"4  c #1E1A16",
"5  c #181818",
"6  c #1B1B1B",
"7  c gray11",
"8  c #200306",
"9  c #260104",
"0  c #3F1116",
"q  c #25201C",
"w  c #26211D",
"e  c #28231F",
"r  c #161C20",
"t  c #181D21",
"y  c #1F262C",
"u  c #1F262D",
"i  c gray13",
"p  c #232323",
"a  c #232424",
"s  c #272727",
"d  c #292520",
"f  c #2A2621",
"g  c #2C2C2C",
"h  c #35312C",
"j  c #242C33",
"k  c gray19",
"l  c #343433",
"z  c #343434",
"x  c #3D3731",
"c  c #5B0812",
"v  c #710310",
"b  c #6E131D",
"n  c #7E101C",
"m  c #453C33",
"M  c #304D20",
"N  c #51473E",
"B  c #51493E",
"V  c #354049",
"C  c #35414C",
"Z  c #4A4949",
"A  c gray31",
"S  c #5A5347",
"D  c #5C5144",
"F  c #5C5248",
"G  c #4B5259",
"H  c gray32",
"J  c #645746",
"K  c #62564A",
"L  c #695C4D",
"P  c #6A5D4F",
"I  c #6C5D4C",
"U  c #4E5E6B",
"Y  c #485C6C",
"T  c gray38",
"R  c gray39",
"E  c DimGray",
"W  c #727272",
"Q  c #951827",
"!  c #981F2E",
"~  c #AE0D21",
"^  c #AC1023",
"/  c #B21527",
"(  c #B31A2D",
")  c #E5001B",
"_  c #E6001C",
"`  c #E9041E",
"'  c #D81129",
"]  c #DB1E35",
"[  c #EC0721",
"{  c #E70F29",
"}  c #894B0C",
"|  c #8E5419",
" . c #A05F1B",
".. c #CE6901",
"X. c #CF6901",
"o. c #CF6A01",
"O. c #CB6904",
"+. c #CD6C0A",
"@. c #CE6F0F",
"#. c #D36B01",
"$. c #C77016",
"%. c #D77613",
"&. c #857362",
"*. c #857462",
"=. c #8C7B67",
"-. c #907F6D",
";. c #59AB23",
":. c #95816A",
">. c #9B856F",
",. c #948571",
"<. c #A08B75",
"1. c #A08D78",
"2. c #AC9278",
"3. c #A9947C",
"4. c #AC957E",
"5. c #5A6F80",
"6. c #668095",
"7. c #708AA1",
"8. c #7592AC",
"9. c #808080",
"0. c #888889",
"q. c #959290",
"w. c gray58",
"e. c #979797",
"r. c gray61",
"t. c #AE9A81",
"y. c #B39C82",
"u. c #BAA288",
"i. c #939FAD",
"p. c #A0A0A0",
"a. c #B2B2B2",
"s. c gray72",
"d. c gray73",
"f. c #CFB293",
"g. c #CDB294",
"h. c #D0B597",
"j. c #D2B99D",
"k. c #DEBE9E",
"l. c #DBC3A0",
"z. c #E5C7A3",
"x. c #E5C5A4",
"c. c #EDCBA8",
"v. c #F1CDA9",
"b. c #EFD0AA",
"n. c #F0D1AB",
"m. c #F7D1AB",
"M. c #F2D3AD",
"N. c #F6D2AD",
"B. c #F7D2AD",
"V. c #F9D4AD",
"C. c #FAD4AD",
"Z. c #FBD4AD",
"A. c #FBD5AD",
"S. c #FAD5AE",
"D. c #FBD5AE",
"F. c #FAD5AF",
"G. c #FBD6AE",
"H. c #FCD5AE",
"J. c #FCD6AF",
"K. c #FDD6AF",
"L. c #FCD7AF",
"P. c #FED7AF",
"I. c #F7D4B1",
"U. c #FAD7B2",
"Y. c #FBD8B0",
"T. c #FCD8B0",
"R. c #FDD8B0",
"E. c #FCD8B1",
"W. c #FCD9B1",
"Q. c #FCD8B2",
"!. c #FEDBB3",
"~. c #FDDDB4",
"^. c #FEDDB4",
"/. c #FDE1B9",
"(. c #8CB2D3",
"). c #8AB3D7",
"_. c #8FB5D6",
"`. c #8AB5D9",
"'. c #A5B4C3",
"]. c #A9BACC",
"[. c #ACBDCF",
"{. c #92BAE1",
"}. c #93BDE1",
"|. c #92C0DE",
" X c #9AC3E5",
".X c #9AC3E6",
"XX c #94C1E8",
"oX c #94C1E9",
"OX c #95C3EB",
"+X c #96C3EA",
"@X c #9AC7EE",
"#X c #9AC9F1",
"$X c #A1CDF3",
"%X c #A2CFF6",
"&X c #A2D0F7",
"*X c gray77",
"=X c #C8C8C8",
"-X c gray81",
";X c gray84",
":X c #DADADA",
">X c gray86",
",X c #EFEDEB",
"<X c #EEEEEE",
"1X c #F1F1F1",
"2X c #F3F3F3",
"3X c #F5F8F3",
"4X c #F9F9F9",
"5X c #FDFCFA",
"6X c #FDFDFD",
"7X c #FEFEFE",
"8X c white",
"9X c None",
/* pixels */
"9X9X9X9X9X9X9X9X9X9X9X9X9X9X9X9X9X9X9X9X9X9X9X9X9X9X9X9X9X9X9X9X9X9X9X9X9X9X9X9X9X9X9X9X9X9X9X9X9X9X",
"9X9X9X9X9X9X9X9X9X9X9X9X9X9X9X9X9X9X9X9X9X9X9X9X9X9X9X9X9X9X9X9X9X9X9X9X9X9X9X9X9X9X9X9X9X9X9X9X9X9X",
"9X9X9X9X9X9X9X9X9X9X9X9X9X9X9X9X9X9X9X9X9X9X9X9X9X9X9X9X9X9X9X9X9X9X9X9X9X9X9X9X9X9X9X9X9X9X9X9X9X9X",
"9X9X9X9X9X9X9X9X9X9X9X9X9X9X9X9X9X9X9X9X9X9X9X9X9X9X9X9X9X9X9X9X9X9X9X9X9X9X9X9X9X9X9X9X9X9X9X9X9X9X",
"9X9X9X9X9X9X9X9X9X9X9X9X9X9X9X9X9X9X9X9X9X9X9X9X9X9X9X9X9X9X9X9X9X9X9X9X9X9X9X9X9X9X9X9X9X9X9X9X9X9X",
"9X9X9X9X9X9X9X9X9X9X9X9X9X9X9X9X9X9X9X9X9X9X9X9X9X9X9X9X9X9X9X9X9X9X9X9X9X9X9X9X9X9X9X9X9X9X9X9X9X9X",
"9X9X9X9X9X9X9X9X9X9X9X9X9X9X9X9X9X9X9X9X9X[.].  9X*X9X9X9X9X9X9X9X9X9X9X9X9X9X9X9X9X9X9X9X9X9X9X9X9X",
"9X9X9X9X9X9X9X9X9X9X9X9X9X9X9X9X9X9X9X9X9X9X'.].    9X9X9X9X9X9X9X9X9X9X9X9X9X9X9X9X9X9X9X9X9X9X9X9X",
"9X9X9X9X9X9X9X9X9X9X9X9X9X9X9X9X9X9X9X9Xr.].].].i.G 9X; : 9X9X9X9X9X9X9X9X9X9X9X9X9X9X9X9X9X9X9X9X9X",
"9X9X9X9X9X9X9X9X9X9X9X9X9X9X9X9X9X9X9X9X9X].,.C.C.M.[ <./ 9X9X9X9X9X9X9X9X9X9X9X9X9X9X9X9X9X9X9X9X9X",
"9X9X9X9X9X9X9X9X9X9X9X9X9X9X9X9X9X9X9X^ 9X_ o C.C.C.! ~ k.] 9X9X9X9X9X9X9X9X9X9X9X9X9X9X9X9X9X9X9X9X",
"9X9X9X9X9X9X9X9X9X9X9X9X9X9X9X9X9X9X9X9X  _ C.v.D.C.C.'   9X9X9X9X9X9X9X9X9X9X9X9X9X9X9X9X9X9X9X9X9X",
"9X9X9X9X9X9X9X9X9X9X9X9X9X9X9X9X9X9X8 C.C._ C.f.C.C.!.L.v C.C.C.9X9X9X9X9X9X9X9X9X9X9X9X9X9X9X9X9X9X",
"9X9X9X9X9X9X9X9X9X9X9X9X9X9X9X9X9X9XQ C.S _ C.C.C.C.C.< _ u.C.C.C.g.9X9X9X9X9X9X9X9X9X9X9X9X9X9X9X9X",
"9X9X9X9X9X9X9X9X9X9X9X9X9X9X9X9X9X9X9XC.C.c n C.C.C.C.O `   C.C.C.C.C.9X9X9X9X9X9X9X9X9X9X9X9X9X9X9X",
"9X9X9X9X9X9X9X9X9X9X9X9X9X9X9X9X9X9XN.C.Y.9 _ C.C.C.-.C.x ) C.C.C.C.C.C.9X9X9X9X9X9X9X9X9X9X9X9X9X9X",
"9X9X9X9X9X9X9X9X9X9X9X9X9X9X9X9X9X  C.C.D 0 b C.j.^.C.q C.@ C.C.C.C.C.C.C.9X9X9X9X9X9X9X9X9X9X9X9X9X",
"9X9X9X9X9X9X9X9X9X9X9X9X9X9X9X9X9XC.C.C.  C.F.C.C.K.l.C.C.( C.C.C.C.C.C.C.x.9X9X9X9X9X9X9X9X9X9X9X9X",
"9X9X9X9X9X9X9X9X9X9X9X9X9X9X9X9X  C.C.C.{ C.C.C.C.C.C.  C.P   C.C.C.e P.C.C.  9X9X9X9X9X9X9X9X9X9X9X",
"9X9X9X9X9X9X9X9X9X9X9X9X9X9X9X9XC.C.    &     C.d C.A.        D.  a.z.7XC.C.C.9X9X9X9X9X9X9X9X9X9X9X",
"9X9X9X9X9X9X9X9X9X9X9X9X9X9X9X&.C.C.    @     C.B.C.Z.  C.K   C.*.C.8X/.$ C.C.f 9X9X9X9X9X9X9X9X9X9X",
"9X9X9X9X9X9X9X9X9X9X9X9X9X9X% C.C.C.G.L C.w C.C.C.C.C.C.C.C.C.:.J.C.B C.>.C.C.C.9X9X9X9X9X9X9X9X9X9X",
"9X9X9X9X9X9X9X9X9X9X9X9X9X9XW.C.J I C.n.C.C.C.C.C.C.C.C.t.  |.XX{.  q.8XC.C.C.C.  9X9X9X9X9X9X9X9X9X",
"9X9X9X9X9X9X9X9X9X9X9X9X9X9XC.C.C.C.C.C.  Z.C.m.h C.C.C.C.h.=.A   8X8X5XC.C.C.C.2.9X9X9X9X9X9X9X9X9X",
"9X9X9X9X9X9X9X9X9X9X9X9X9X  C.C.C.C.C.C.C.C.3.3XC.V.C.+ C.c.M 8X:XT 6X1.S.C.C.C.b.9X9X9X9X9X9X9X9X9X",
"9X9X9X9X9X9X9X9X9X9X9X9X9XI.C.C.C.C.C.C.C.C.C.  C.C.4 C.;.8X8XE 8X1 C.C.C.C.C.C.F 7X9X9X9X9X9X9X9X9X",
"9X9X9X9X9X9X9X9X9X9X9X9X9XR.C.C.C.C.C.C.C.C.C.@ G.C.- C.8X8Xp.7 , 8XC.C.C.C.C.C.  8X9X9X9X9X9X9X9X9X",
"9X9X9X9X9X9X9X9X9X9X9X9X9X  C.C.C.C.C.C.C.C.C.C.* L.C.Q.  4X;X8X8X4.C.C.C.C.C.C.8X8X9X9X9X9X9X9X9X9X",
"9X9X9X9X9X9X9X9X9X9X9X9X9X9XC.C.C.C.C.C.C.C.C.  C.@ C.C.C.C.R w.m C.C.C.C.C.C.  8X8X  9X9X9X9X9X9X9X",
"9X9X9X9X9X9X9X9X9X9X9X9X9X9Xi C.C.C.C.C.C.C.C.~.C.C.  N C.C.E.C.C.C.C.C.C.C.  XX8X8X  9X9X9X9X9X9X9X",
"9X9X9X9X9X9X9X9X9X9X9X9X9X9X9X= 3 C.C.C.C.C.D.  T.C.C.C.C.C.C.C.C.C.C.C.C.  XXXX8X8X  9X9X9X9X9X9X9X",
"9X9X9X9X9X9X9X9X9X9X9X9X9X9X9X  8XXX&X.XXX`.8Xh C.H.C.C.C.C.C.C.C.C.C.  @XXXXXXX8X8X9X9X9X9X9X9X9X9X",
"9X9X9X9X9X9X9X9X9X9X9X9X9X9X9X  8XXXXXXXXXV 8X8XC.J.C.C.C.C.C.C.C.    8XXXXXXXXX2X8X9X9X9X9X9X9X9X9X",
"9X9X9X9X9X9X9X9X9X9X9X9X9X9X9X  8X XXXXXXXY 8X8X8Xy.C.C.C.C.U.  <X8X8X8X2 XXXXXX>X5 9X9X9X9X9X9X9X9X",
"9X9X9X9X9X9X9X9X9X9X9X9X9X9X9X$ 8Xg XXXXXX#X8X8X8X8X8X%X%XXXXXXX8X8X8X8X8XXXXXXX8X  9X9X9X9X9X9X9X9X",
"9X9X9X9X9X9X9X9X9X9X9X9X9X9X9X9X1X8XXXXXXXXX8X8X8X8X8XXXXXXXXXXX8X8X8X8X8XXXXXXXd.9X9X9X9X9X9X9X9X9X",
"9X9X9X9X9X9X9X9X9X9X9X9X9X9X9X9X  8XXXXXXXXX8X8X8X8X8XXXXXXXXXXX8X8X8X8X8XXXXXXX9X9X9X9X9X9X9X9X9X9X",
"9X9X9X9X9X9X9X9X9X9X9X9X9X9X9X9X9X6 8XXXXXXXl 8X8X8X8XXXXXXXXXXX8X8X8X8X8XXXXX  9X9X9X9X9X9X9X9X9X9X",
"9X9X9X9X9X9X9X9X9X9X9X9X9X9X9X9X9X9X-X5.XXXXXX8X8X8X8Xa XXXXXXXX8X8X8X8XZ XX$X9X9X9X9X9X9X9X9X9X9X9X",
"9X9X9X9X9X9X9X9X9X9X9X9X9X9X9X9X9X9X9X  +XXXXX# 8X8X8X8XXXXXXXXXU 8Xs 8XXXXX9X9X9X9X9X9X9X9X9X9X9X9X",
"9X9X9X9X9X9X9X9X9X9X9X9X9X9X9X9X9X9X9X9Xe.+ XXXX8X8X8X8XoXXXXXXXXX9.8XX XX  9X9X9X9X9X9X9X9X9X9X9X9X",
"9X9X9X9X9X9X9X9X9X9X9X9X9X9X9X9X9X9X9X9X8Xz XX8.t ,X8X8X8XXXXXXX  8X6.XX_.9X9X9X9X9X9X9X9X9X9X9X9X9X",
"9X9X9X9X9X9X9X9X9X9X9X9X9X9X9X9X9X9X9X9X8XXXXXXX  9X9X9X9X9X9X9X8X; XXXX9X9X9X9X9X9X9X9X9X9X9X9X9X9X",
"9X9X9X9X9X9X9X9X9X9X9X9X9X9X9X9X9X9X9X9X  8Xj 7.r 9X9X9X9X9X9X  8X).XXXX9X9X9X9X9X9X9X9X9X9X9X9X9X9X",
"9X9X9X9X9X9X9X9X9X9X9X9X9X9X9X  | #.@. .  0.H W XX}.8X9X9X9X9X9X8X8Xy   7Xu 9X9X9X9X9X9X9X9X9X9X9X9X",
"9X9X9X9X9X9X9X9X9X9X9X9X9X9X9XO...............XXXX(.  ......} % =Xs.8XXXC XXXX9X9X9X9X9X9X9X9X9X9X9X",
"9X9X9X9X9X9X9X9X9X9X9X9X9X9X9X9X................$.. ..............%.> OX8X8X  9X9X9X9X9X9X9X9X9X9X9X",
"9X9X9X9X9X9X9X9X9X9X9X9X9X9X9X9X9X  +...X...o.  9X9X9X..............O ..k p ..+ 9X9X9X9X9X9X9X9X9X9X",
"9X9X9X9X9X9X9X9X9X9X9X9X9X9X9X9X9X9X9X9X9X9X9X9X9X9X9X9X....................  9X9X9X9X9X9X9X9X9X9X9X",
"9X9X9X9X9X9X9X9X9X9X9X9X9X9X9X9X9X9X9X9X9X9X9X9X9X9X9X9X9X9X          9X9X9X9X9X9X9X9X9X9X9X9X9X9X9X"
};
