/* XPM */
static char *result[] = {
/* columns rows colors chars-per-pixel */
"50 50 167 2 ",
"   c black",
".  c #010100",
"X  c #010101",
"o  c #020000",
"O  c #020200",
"+  c #020201",
"@  c #020202",
"#  c gray1",
"$  c #070501",
"%  c #040404",
"&  c gray2",
"*  c #0B0000",
"=  c #080700",
"-  c #0A0702",
";  c #030900",
":  c #0D0A03",
">  c #0D0D00",
",  c #0A0806",
"<  c gray3",
"1  c gray4",
"2  c #0B0B0B",
"3  c #0E0B08",
"4  c #140000",
"5  c #100C04",
"6  c #100D0A",
"7  c #110E0B",
"8  c #120F0B",
"9  c #121200",
"0  c #141400",
"q  c #1E1707",
"w  c #151515",
"e  c gray10",
"r  c #1B1B1B",
"t  c #220000",
"y  c #270000",
"u  c #2A0000",
"i  c #2B0000",
"p  c #2D0000",
"a  c #350000",
"s  c #3A0000",
"d  c #231A09",
"f  c #261E16",
"g  c #2D2D00",
"h  c #36290D",
"j  c #383800",
"k  c #2B2219",
"l  c #32281E",
"z  c #081A2C",
"x  c #272727",
"c  c gray17",
"v  c #2D2D2D",
"b  c #372C21",
"n  c gray19",
"m  c #313131",
"M  c #323232",
"N  c #343434",
"B  c #393939",
"V  c #3F3F3F",
"C  c #670000",
"Z  c #433210",
"A  c #4D3A13",
"S  c #4F3B13",
"D  c #493A2C",
"F  c #474700",
"G  c #494900",
"H  c #494B0D",
"J  c #604817",
"K  c #6F531B",
"L  c #7D5E1E",
"P  c #636612",
"I  c #5D4B38",
"U  c #614D3A",
"Y  c #634F3B",
"T  c gray27",
"R  c #515151",
"E  c #535353",
"W  c #5B5B5B",
"Q  c #5D5D5D",
"!  c #705943",
"~  c #725B45",
"^  c #745C45",
"/  c #785F47",
"(  c #7F654C",
")  c gray39",
"_  c gray45",
"`  c #A90000",
"'  c #C50000",
"]  c #C60000",
"[  c #CB0000",
"{  c #CC0000",
"}  c #997326",
"|  c #856A4F",
" . c #8C7054",
".. c #329800",
"X. c #339800",
"o. c #339900",
"O. c #A8A800",
"+. c #AF832B",
"@. c #BE8F2F",
"#. c #BF902F",
"$. c #C89632",
"%. c #CA9732",
"&. c #CA9832",
"*. c #CB9832",
"=. c #CB9932",
"-. c #CB9833",
";. c #CC9833",
":. c #CC9933",
">. c #D4D400",
",. c #D5D500",
"<. c #FAFA00",
"1. c #FBFB00",
"2. c #FEFE00",
"3. c yellow",
"4. c #C5CB24",
"5. c #D5DB27",
"6. c #E6ED2A",
"7. c #F0F62C",
"8. c #F0F72C",
"9. c #F0F72D",
"0. c #A78564",
"q. c #AD8A67",
"w. c #B28E6A",
"e. c #B28E6B",
"r. c #B4906C",
"t. c #C29B74",
"y. c #C39C75",
"u. c #D3A87E",
"i. c #3298FF",
"p. c #3399FF",
"a. c #808080",
"s. c #888888",
"d. c gray54",
"f. c #A9A9A9",
"g. c #D5AA80",
"h. c #E5B78A",
"j. c #E9BB8C",
"k. c #EBBC8D",
"l. c #ECBD8E",
"z. c #FAC795",
"x. c #FBC997",
"c. c #FCC997",
"v. c #FCCA97",
"b. c #FDCA97",
"n. c #FECB98",
"m. c #FFCB98",
"M. c #FECB99",
"N. c #FFCB99",
"B. c #FECC98",
"V. c #FFCC98",
"C. c #FECC99",
"Z. c #FFCC99",
"A. c #C0C0C0",
"S. c #C3C3C3",
"D. c gray79",
"F. c #CBCBCB",
"G. c gray80",
"H. c gainsboro",
"J. c #DDDCDC",
"K. c #E6E6E6",
"L. c #F6F6F6",
"P. c gray98",
"I. c #FBFBFB",
"U. c #FDFDFD",
"Y. c #FEFEFE",
"T. c white",
"R. c None",
/* pixels */
"R.R.R.R.R.R.R.R.R.R.R.R.R.R.R.R.R.R.R.R.R.R.R.R.R.R.R.R.R.R.R.R.R.R.R.R.T.R.R.R.R.R.R.R.R.R.R.R.R.R.",
"R.R.R.R.R.R.R.R.R.R.R.R.R.R.R.R.R.R.R.R.R.R.R.R.R.R.R.R.R.R.R.R.R.R.R.Y.c R.R.R.R.R.R.R.R.R.R.R.R.R.",
"R.R.R.R.R.R.R.R.R.R.R.R.R.R.R.R.R.R.R.R.R.R.R.R.R.R.R.R.R.R.R.R.R.R.T.T.R.R.R.R.R.R.R.R.R.R.R.R.R.R.",
"R.R.R.R.R.R.R.R.R.R.R.R.R.R.R.R.R.R.R.R.R.R.R.R.R.R.R.R.R.R.R.R.R.T.T.R.R.R.R.R.R.R.R.R.R.R.R.R.R.R.",
"R.R.R.R.R.R.R.R.R.R.R.R.R.R.R.R.R.R.R.R.R.R.R.R.R.R.R.R.R.R.R.R.T.T.M R.R.R.R.R.R.R.R.R.R.R.R.R.R.R.",
"R.R.R.R.R.R.R.R.R.R.R.R.R.R.R.R.R.R.R.R.R.R.R.R.R.R.R.R.R.R.m T.T.s.R.R.R.R.R.R.R.R.R.R.R.R.R.R.R.R.",
"R.R.R.R.R.R.R.R.R.R.R.R.R.R.R.R.R.R.R.R.R.R.R.R.R.R.R.R.R.< T.I.T.x R.R.R.R.R.R.R.R.R.R.R.R.R.R.R.R.",
"R.R.R.R.R.R.R.R.R.R.R.R.R.R.R.R.R.R.R.R.R.R.R.R.R.R.R.R.R.Y.e T.Y.R.R.R.R.R.R.R.R.R.R.R.R.R.R.R.R.R.",
"R.R.R.R.R.R.R.R.R.R.R.R.R.R.R.R.R.R.R.R.R.R.R.R.R.R.R.R.T.a.T.K.R.R.R.R.R.R.R.R.R.R.R.R.R.R.R.R.R.R.",
"R.R.R.R.R.R.R.R.R.R.R.R.R.R.R.R.R.R.R.R.R.R.R.R.R.R.R.R.D.T.n T.R.R.R.R.R.R.R.R.R.R.R.R.R.R.R.R.R.R.",
"R.R.R.R.R.R.R.R.R.R.R.R.R.R.R.R.R.R.R.R.R.R.R.R.R.R.R.< T.d.Y.R.R.R.R.R.R.R.R.R.R.R.R.R.R.R.R.R.R.R.",
"R.R.R.R.R.R.R.R.R.R.R.R.R.R.R.R.R.R.R.R.R.R.R.R.R.R.R.R.Y.f.& R.R.R.R.R.R.R.R.R.R.R.R.R.R.R.R.R.R.R.",
"R.R.R.R.R.R.R.R.R.R.R.R.R.R.R.R.R.R.R.R.R.R.R.R.R.R.R.V v % R.R.R.R.R.R.R.R.R.R.R.R.R.R.R.R.R.R.R.R.",
"R.R.R.R.R.R.R.R.R.R.R.R.R.R.R.R.R.R.R.R.R.R.R.R.R.b M.M.  G.G.T G.R.R.R.R.R.R.R.R.R.R.R.R.R.R.R.R.R.",
"R.R.R.R.R.R.R.R.R.R.R.R.R.R.R.R.R.R.R.R.R.n.w.R.R.n.l.~ Z.Y F.# F.  H.R.R.R.R.R.R.R.R.R.R.R.R.R.R.R.",
"R.R.R.R.R.R.R.R.R.R.R.R.R.R.R.R.R.R.R.R.N.Z.N.N.N.Y.y.T.Z.Z.G.G.  Y.T.T.R.R.R.R.R.R.R.R.R.R.R.R.R.R.",
"R.R.R.R.R.R.R.R.R.R.R.R.R.R.R.R.R.R.R.3 N.Z.N.m.N.  / T.B.+ G.P.F.T._ Y.N R.R.R.R.R.R.R.R.R.R.R.R.R.",
"R.R.R.R.R.R.R.R.R.R.R.R.R.R.R.R.R.R.R.! Z.n.C.m.c.M.t.  C.2.v Y.T.Y.T.J.U.R.R.R.R.R.R.R.R.R.R.R.R.R.",
"R.R.R.R.R.R.R.R.R.R.R.R.R.R.R.R.R.R.R.  m.V.V.Z.V.V.8 Z.m.2.F.R.U.Y.T.T.T.R.R.R.R.R.R.R.R.R.R.R.R.R.",
"R.R.R.R.R.R.R.R.R.R.R.R.R.R.R.R.R.R.R.R.M.N.Z.Z.Z.N.Z.Z.m.e.C.Z.R.L.Y.Y.T.R.R.R.R.R.R.R.R.R.R.R.R.R.",
"R.R.R.R.R.R.R.R.R.R.R.R.R.R.R.R.R.R.R.j 2.   .v.r.3.3.k.n.M.f , b.R.Y.T.Y.1 R.R.R.R.R.R.R.R.R.R.R.R.",
"R.R.R.R.R.R.R.R.R.R.R.R.R.R.R.R.R.R.R.F 2.3.0.n.3.2.2.g.m.| x.Z.h.B Y.U.S.T.R.R.R.R.R.R.R.R.R.R.R.R.",
"R.R.R.R.R.R.R.R.R.R.R.R.R.R.R.R.R.R.R.R.3.3.Z.N.U 3.3.D N.I N.7 2.N   T.) T.R.R.R.R.R.R.R.R.R.R.R.R.",
"R.R.R.R.R.R.R.R.R.R.R.R.R.R.R.R.R.R.R.R.g 9 N.m.Z.3.3.( O.3.2.3.>.R.R.Y.R Y.R.R.R.R.R.R.R.R.R.R.R.R.",
"R.R.R.R.R.R.R.R.R.R.R.R.R.R.R.R.R.R.R.R.R.  V.V.V.> 3.R.R.R.R.R.R.R.R.A.Q T.R.R.R.R.R.R.R.R.R.R.R.R.",
"R.R.R.R.R.R.R.R.R.R.R.R.R.R.R.R.R.R.R.R.R.X m.u.N.  6 R.R.R.R.R.R.R.R.R.E T.R.R.R.R.R.R.R.R.R.R.R.R.",
"R.R.R.R.R.R.R.R.R.R.R.R.R.R.R.R.R.R.R.R.  n.N.  m.z.^ R.R.R.R.R.R.R.R.R.@ T.R.R.R.R.R.R.R.R.R.R.R.R.",
"R.R.R.R.R.R.R.R.R.R.R.R.R.R.R.R.R.R.R.W M.V.q.        R.R.R.R.R.R.R.R.R.  T.R.R.R.R.R.R.R.R.R.R.R.R.",
"R.R.R.R.R.R.R.R.R.R.R.R.R.R.R.R.R.R.Q m.N.m.          R.R.R.R.R.R.R.R.R.R.R.R.R.R.R.R.R.R.R.R.R.R.R.",
"R.R.R.R.R.R.R.R.R.R.R.R.R.R.R.R.R.  Z.B.V.            R.R.3.,.R.R.R.R.R.R.R.R.R.R.R.R.R.R.R.R.R.R.R.",
"R.R.R.R.R.R.R.R.R.R.R.R.R.R.R.R.  j.N.n.              R.= G 3.R.R.R.R.R.R.R.R.R.R.R.R.R.R.R.R.R.R.R.",
"R.R.R.R.R.R.R.R.R.R.R.R.R.R.R.R.N.k m...              h - R.R.R.R.R.R.R.R.R.R.R.R.R.R.R.R.R.R.R.R.R.",
"R.R.R.R.R.R.R.R.R.R.R.R.R.R.R.R.w l   X...X.;     P     R.R.R.R.R.R.R.R.R.R.R.R.R.R.R.R.R.R.R.R.R.R.",
"R.R.R.R.R.R.R.R.R.R.R.R.R.R.R.R.        ....4.8.6.7.  5.R.R.R.R.R.R.R.R.R.R.R.R.R.R.R.R.R.R.R.R.R.R.",
"R.R.R.R.R.R.R.R.R.R.R.R.R.R.R.R.R.          H   9.9.o.O R.R.R.R.R.R.R.R.R.R.R.R.R.R.R.R.R.R.R.R.R.R.",
"R.R.R.R.R.R.R.R.R.R.R.R.R.R.R.R.R.R.u                     R.R.R.R.R.R.R.R.R.R.R.R.R.R.R.R.R.R.R.R.R.",
"R.R.R.R.R.R.R.R.R.R.R.R.R.R.R.R.R.R.[ { { [ { [ ' { [ R.R.R.R.R.R.R.R.R.R.R.R.R.R.R.R.R.R.R.R.R.R.R.",
"R.R.R.R.R.R.R.R.R.R.R.R.R.R.R.R.R.R.{ [ [   { C ] ` [ R.R.R.R.R.R.R.R.R.R.R.R.R.R.R.R.R.R.R.R.R.R.R.",
"R.R.R.R.R.R.R.R.R.R.R.R.R.R.R.R.R.R.{ { { { { [ { { i R.R.R.R.R.R.R.R.R.R.R.R.R.R.R.R.R.R.R.R.R.R.R.",
"R.R.R.R.R.R.R.R.R.R.R.R.R.R.R.R.R.R.a [ [ [   [ { { R.R.R.R.R.R.R.R.R.R.R.R.R.R.R.R.R.R.R.R.R.R.R.R.",
"R.R.R.R.R.R.R.R.R.R.R.R.R.R.R.R.R.p.z { { { { { {   R.R.R.R.R.R.R.R.R.R.R.R.R.R.R.R.R.R.R.R.R.R.R.R.",
"R.R.R.R.R.R.R.R.R.R.R.R.R.R.R.R.1.0 i.[ [ { 4 [ [ R.R.R.R.R.R.R.R.R.R.R.R.R.R.R.R.R.R.R.R.R.R.R.R.R.",
"R.R.R.R.R.R.R.R.R.R.R.R.R.R.R.R.<.3.< { [ {   [ p R.R.R.R.R.R.R.R.R.R.R.R.R.R.R.R.R.R.R.R.R.R.R.R.R.",
"R.R.R.R.R.R.R.R.R.R.R.R.R.R.R.R.R.* { [ { [ t { s { $ A :.=.:.=.&.@ R.R.R.R.R.R.R.R.R.R.R.R.R.R.R.R.",
"R.R.R.R.R.R.R.R.R.R.R.R.R.R.R.R.  ;.*.y o * { { [ =.;.*.;.;.:.} :.;.:.R.R.R.R.R.R.R.R.R.R.R.R.R.R.R.",
"R.R.R.R.R.R.R.R.R.R.R.R.R.  *.=.=.*.q *.. [ [ { #.*.;.J : *.*.=.*.+.*.R.R.R.R.R.R.R.R.R.R.R.R.R.R.R.",
"R.R.R.R.R.R.R.R.R.R.R.R.5 :.:.:.$.:.:.:.:.@.  :.:.:.:.:.:.:.:.=.S   R.R.R.R.R.R.R.R.R.R.R.R.R.R.R.R.",
"R.R.R.R.R.R.R.R.R.R.R.R.*.=.L :.:.*.=.:.*.;.R.R.R.2 K d Z   R.R.R.R.R.R.R.R.R.R.R.R.R.R.R.R.R.R.R.R.",
"R.R.R.R.R.R.R.R.R.R.R.R.  :.*.:.:.:.:.:.:.R.R.R.R.R.R.R.R.R.R.R.R.R.R.R.R.R.R.R.R.R.R.R.R.R.R.R.R.R.",
"R.R.R.R.R.R.R.R.R.R.R.R.R.R.r   -.%.  R.R.R.R.R.R.R.R.R.R.R.R.R.R.R.R.R.R.R.R.R.R.R.R.R.R.R.R.R.R.R."
};
