/* XPM */
static char *result[] = {
/* columns rows colors chars-per-pixel */
"50 50 159 2 ",
"   c black",
".  c #010100",
"X  c #010101",
"o  c #020000",
"O  c #020200",
"+  c #020201",
"@  c #020202",
"#  c gray1",
"$  c #070501",
"%  c gray2",
"&  c #0B0000",
"*  c #030900",
"=  c #080800",
"-  c #0A0802",
";  c #0E0A03",
":  c #0E0E00",
">  c #0A0806",
",  c gray3",
"<  c #090909",
"1  c gray4",
"2  c #0E0C08",
"3  c #0C0C0C",
"4  c #140000",
"5  c #100C04",
"6  c #100D0A",
"7  c #110E0B",
"8  c #130F0B",
"9  c #121200",
"0  c #141400",
"q  c #1E1707",
"w  c #151515",
"e  c #1B1B1B",
"r  c #220000",
"t  c #270000",
"y  c #2A0000",
"u  c #2B0000",
"i  c #2D0000",
"p  c #360000",
"a  c #3A0000",
"s  c #231B09",
"d  c #261E17",
"f  c #2E2E00",
"g  c #37290D",
"h  c #383800",
"j  c #2B2219",
"k  c #32281E",
"l  c #081A2C",
"z  c #272727",
"x  c gray17",
"c  c #2D2D2D",
"v  c #372C21",
"b  c gray19",
"n  c #313131",
"m  c #323232",
"M  c #343434",
"N  c #393939",
"B  c #3F3F3F",
"V  c #670000",
"C  c #433210",
"Z  c #4D3A13",
"A  c #4F3B14",
"S  c #493A2C",
"D  c #474700",
"F  c #4A4A00",
"G  c #494B0D",
"H  c #604818",
"J  c #6F531B",
"K  c #7D5E1F",
"L  c #636612",
"P  c #5E4B38",
"I  c #614E3A",
"U  c #634F3B",
"Y  c gray27",
"T  c #515151",
"R  c #535353",
"E  c #5B5B5B",
"W  c #5D5D5D",
"Q  c gray37",
"!  c #705A43",
"~  c #725B45",
"^  c #745D45",
"/  c #786047",
"(  c #7F654C",
")  c gray39",
"_  c gray45",
"`  c #A90000",
"'  c #C50000",
"]  c #C60000",
"[  c #CB0000",
"{  c #CC0000",
"}  c #9A7326",
"|  c #856A4F",
" . c #8C7054",
".. c #329800",
"X. c #329900",
"o. c #339900",
"O. c #A8A800",
"+. c #AF832B",
"@. c #BF8F2F",
"#. c #BF9030",
"$. c #C89632",
"%. c #CA9832",
"&. c #CB9832",
"*. c #CB9932",
"=. c #CB9833",
"-. c #CC9833",
";. c #CC9933",
":. c #D4D400",
">. c #D5D500",
",. c #FAFA00",
"<. c #FBFB00",
"1. c #FEFE00",
"2. c yellow",
"3. c #C5CB25",
"4. c #D5DB28",
"5. c #E6ED2A",
"6. c #F0F72C",
"7. c #F0F72D",
"8. c #A78564",
"9. c #AD8A67",
"0. c #B28E6B",
"q. c #B4916C",
"w. c #C29C74",
"e. c #C39C75",
"r. c #D3A87E",
"t. c #3298FF",
"y. c #3399FF",
"u. c #808080",
"i. c #888888",
"p. c gray54",
"a. c #A9A9A9",
"s. c #D5AA80",
"d. c #E5B88A",
"f. c #E9BB8C",
"g. c #EBBD8D",
"h. c #ECBD8E",
"j. c #FAC796",
"k. c #FBC997",
"l. c #FCC997",
"z. c #FDCA98",
"x. c #FFCB98",
"c. c #FECB99",
"v. c #FFCB99",
"b. c #FFCC98",
"n. c #FFCC99",
"m. c #C0C0C0",
"M. c #C3C3C3",
"N. c gray79",
"B. c #CBCBCB",
"V. c gray80",
"C. c #DDDDDD",
"Z. c #E6E6E6",
"A. c #F6F6F6",
"S. c gray98",
"D. c #FBFBFB",
"F. c #FDFDFD",
"G. c #FEFEFE",
"H. c white",
"J. c None",
/* pixels */
"J.J.J.J.J.J.J.J.J.J.J.J.J.H.J.J.J.J.J.J.J.J.J.J.J.J.J.J.J.J.J.J.J.J.J.J.J.J.J.J.J.J.J.J.J.J.J.J.J.J.",
"J.J.J.J.J.J.J.J.J.J.J.J.J.x H.J.J.J.J.J.J.J.J.J.J.J.J.J.J.J.J.J.J.J.J.J.J.J.J.J.J.J.J.J.J.J.J.J.J.J.",
"J.J.J.J.J.J.J.J.J.J.J.J.J.J.H.H.J.J.J.J.J.J.J.J.J.J.J.J.J.J.J.J.J.J.J.J.J.J.J.J.J.J.J.J.J.J.J.J.J.J.",
"J.J.J.J.J.J.J.J.J.J.J.J.J.J.J.H.H.J.J.J.J.J.J.J.J.J.J.J.J.J.J.J.J.J.J.J.J.J.J.J.J.J.J.J.J.J.J.J.J.J.",
"J.J.J.J.J.J.J.J.J.J.J.J.J.J.J.m H.H.J.J.J.J.J.J.J.J.J.J.J.J.J.J.J.J.J.J.J.J.J.J.J.J.J.J.J.J.J.J.J.J.",
"J.J.J.J.J.J.J.J.J.J.J.J.J.J.J.J.i.H.H.n J.J.J.J.J.J.J.J.J.J.J.J.J.J.J.J.J.J.J.J.J.J.J.J.J.J.J.J.J.J.",
"J.J.J.J.J.J.J.J.J.J.J.J.J.J.J.J.z H.D.H., J.J.J.J.J.J.J.J.J.J.J.J.J.J.J.J.J.J.J.J.J.J.J.J.J.J.J.J.J.",
"J.J.J.J.J.J.J.J.J.J.J.J.J.J.J.J.J.H.H.e G.J.J.J.J.J.J.J.J.J.J.J.J.J.J.J.J.J.J.J.J.J.J.J.J.J.J.J.J.J.",
"J.J.J.J.J.J.J.J.J.J.J.J.J.J.J.J.J.J.Z.H.u.H.J.J.J.J.J.J.J.J.J.J.J.J.J.J.J.J.J.J.J.J.J.J.J.J.J.J.J.J.",
"J.J.J.J.J.J.J.J.J.J.J.J.J.J.J.J.J.J.H.b H.N.J.J.J.J.J.J.J.J.J.J.J.J.J.J.J.J.J.J.J.J.J.J.J.J.J.J.J.J.",
"J.J.J.J.J.J.J.J.J.J.J.J.J.J.J.J.J.J.J.H.p.H.< J.J.J.J.J.J.J.J.J.J.J.J.J.J.J.J.J.J.J.J.J.J.J.J.J.J.J.",
"J.J.J.J.J.J.J.J.J.J.J.J.J.J.J.J.J.J.J.% a.H.J.J.J.J.J.J.J.J.J.J.J.J.J.J.J.J.J.J.J.J.J.J.J.J.J.J.J.J.",
"J.J.J.J.J.J.J.J.J.J.J.J.J.J.J.J.J.J.J.J.% c B J.J.J.J.J.J.J.J.J.J.J.J.J.J.J.J.J.J.J.J.J.J.J.J.J.J.J.",
"J.J.J.J.J.J.J.J.J.J.J.J.J.J.J.J.J.V.Y V.V.  v.v.v J.J.J.J.J.J.J.J.J.J.J.J.J.J.J.J.J.J.J.J.J.J.J.J.J.",
"J.J.J.J.J.J.J.J.J.J.J.J.J.J.J.C.  B.# B.U n.~ h.v.J.J.0.v.J.J.J.J.J.J.J.J.J.J.J.J.J.J.J.J.J.J.J.J.J.",
"J.J.J.J.J.J.J.J.J.J.J.J.J.J.H.H.H.  V.V.n.n.H.e.H.v.v.v.n.v.J.J.J.J.J.J.J.J.J.J.J.J.J.J.J.J.J.J.J.J.",
"J.J.J.J.J.J.J.J.J.J.J.J.J.M H._ H.B.S.V.+ b.H./   v.x.v.n.v.2 J.J.J.J.J.J.J.J.J.J.J.J.J.J.J.J.J.J.J.",
"J.J.J.J.J.J.J.J.J.J.J.J.J.F.C.H.H.H.H.c 1.n.  w.v.l.v.n.x.n.! J.J.J.J.J.J.J.J.J.J.J.J.J.J.J.J.J.J.J.",
"J.J.J.J.J.J.J.J.J.J.J.J.J.H.H.H.H.F.J.B.2.v.n.8 n.n.n.b.b.v.  J.J.J.J.J.J.J.J.J.J.J.J.J.J.J.J.J.J.J.",
"J.J.J.J.J.J.J.J.J.J.J.J.J.H.G.H.A.J.n.n.0.v.n.n.v.n.n.n.v.c.J.J.J.J.J.J.J.J.J.J.J.J.J.J.J.J.J.J.J.J.",
"J.J.J.J.J.J.J.J.J.J.J.J.1 H.H.H.J.z.> d v.x.g.2.2.q.z. .  2.h J.J.J.J.J.J.J.J.J.J.J.J.J.J.J.J.J.J.J.",
"J.J.J.J.J.J.J.J.J.J.J.J.H.M.F.H.N d.n.k.| x.s.2.2.2.v.8.2.2.D J.J.J.J.J.J.J.J.J.J.J.J.J.J.J.J.J.J.J.",
"J.J.J.J.J.J.J.J.J.J.J.J.H.) H.  M 2.7 v.P v.S 2.2.I v.n.2.2.J.J.J.J.J.J.J.J.J.J.J.J.J.J.J.J.J.J.J.J.",
"J.J.J.J.J.J.J.J.J.J.J.J.H.T H.J.J.:.2.1.2.O.( 2.2.n.v.v.9 f J.J.J.J.J.J.J.J.J.J.J.J.J.J.J.J.J.J.J.J.",
"J.J.J.J.J.J.J.J.J.J.J.J.H.Q m.J.J.J.J.J.J.J.J.2.: n.n.n.  J.J.J.J.J.J.J.J.J.J.J.J.J.J.J.J.J.J.J.J.J.",
"J.J.J.J.J.J.J.J.J.J.J.J.H.R J.J.J.J.J.J.J.J.J.6   v.r.x.X J.J.J.J.J.J.J.J.J.J.J.J.J.J.J.J.J.J.J.J.J.",
"J.J.J.J.J.J.J.J.J.J.J.J.H.@ J.J.J.J.J.J.J.J.J.^ j.v.  v.x.  J.J.J.J.J.J.J.J.J.J.J.J.J.J.J.J.J.J.J.J.",
"J.J.J.J.J.J.J.J.J.J.J.J.H.  J.J.J.J.J.J.J.J.J.        9.b.v.E J.J.J.J.J.J.J.J.J.J.J.J.J.J.J.J.J.J.J.",
"J.J.J.J.J.J.J.J.J.J.J.J.J.J.J.J.J.J.J.J.J.J.J.          v.v.v.W J.J.J.J.J.J.J.J.J.J.J.J.J.J.J.J.J.J.",
"J.J.J.J.J.J.J.J.J.J.J.J.J.J.J.J.J.J.J.>.2.J.J.            n.n.n.  J.J.J.J.J.J.J.J.J.J.J.J.J.J.J.J.J.",
"J.J.J.J.J.J.J.J.J.J.J.J.J.J.J.J.J.J.J.2.F = J.              v.v.f.  J.J.J.J.J.J.J.J.J.J.J.J.J.J.J.J.",
"J.J.J.J.J.J.J.J.J.J.J.J.J.J.J.J.J.J.J.J.J.- g               ..v.j v.J.J.J.J.J.J.J.J.J.J.J.J.J.J.J.J.",
"J.J.J.J.J.J.J.J.J.J.J.J.J.J.J.J.J.J.J.J.J.J.    L     * o.X.o.  k w J.J.J.J.J.J.J.J.J.J.J.J.J.J.J.J.",
"J.J.J.J.J.J.J.J.J.J.J.J.J.J.J.J.J.J.J.J.J.J.4.  7.5.6.3.X.X.        J.J.J.J.J.J.J.J.J.J.J.J.J.J.J.J.",
"J.J.J.J.J.J.J.J.J.J.J.J.J.J.J.J.J.J.J.J.J.J.O o.7.7.  G           J.J.J.J.J.J.J.J.J.J.J.J.J.J.J.J.J.",
"J.J.J.J.J.J.J.J.J.J.J.J.J.J.J.J.J.J.J.J.J.                    y J.J.J.J.J.J.J.J.J.J.J.J.J.J.J.J.J.J.",
"J.J.J.J.J.J.J.J.J.J.J.J.J.J.J.J.J.J.J.J.J.J.J.[ { ' [ { [ { { [ J.J.J.J.J.J.J.J.J.J.J.J.J.J.J.J.J.J.",
"J.J.J.J.J.J.J.J.J.J.J.J.J.J.J.J.J.J.J.J.J.J.J.[ ` ] V {   [ [ { J.J.J.J.J.J.J.J.J.J.J.J.J.J.J.J.J.J.",
"J.J.J.J.J.J.J.J.J.J.J.J.J.J.J.J.J.J.J.J.J.J.J.u { { [ { { { { { J.J.J.J.J.J.J.J.J.J.J.J.J.J.J.J.J.J.",
"J.J.J.J.J.J.J.J.J.J.J.J.J.J.J.J.J.J.J.J.J.J.J.J.{ { [   [ [ [ p J.J.J.J.J.J.J.J.J.J.J.J.J.J.J.J.J.J.",
"J.J.J.J.J.J.J.J.J.J.J.J.J.J.J.J.J.J.J.J.J.J.J.J.  { { { { { { l y.J.J.J.J.J.J.J.J.J.J.J.J.J.J.J.J.J.",
"J.J.J.J.J.J.J.J.J.J.J.J.J.J.J.J.J.J.J.J.J.J.J.J.J.[ [ 4 { [ [ t.0 <.J.J.J.J.J.J.J.J.J.J.J.J.J.J.J.J.",
"J.J.J.J.J.J.J.J.J.J.J.J.J.J.J.J.J.J.J.J.J.J.J.J.J.i [   { [ { , 2.,.J.J.J.J.J.J.J.J.J.J.J.J.J.J.J.J.",
"J.J.J.J.J.J.J.J.J.J.J.J.J.J.J.J.@ %.*.;.*.;.Z $ { a { r [ { [ { & J.J.J.J.J.J.J.J.J.J.J.J.J.J.J.J.J.",
"J.J.J.J.J.J.J.J.J.J.J.J.J.J.J.;.;.;.} ;.;.;.*.;.*.[ { { & o t &.;.  J.J.J.J.J.J.J.J.J.J.J.J.J.J.J.J.",
"J.J.J.J.J.J.J.J.J.J.J.J.J.J.J.&.+.*.*.&.*.; H -.*.#.{ [ [ . *.q &.*.*.&.  J.J.J.J.J.J.J.J.J.J.J.J.J.",
"J.J.J.J.J.J.J.J.J.J.J.J.J.J.J.J.  A *.;.;.;.;.;.;.;.;.  @.;.;.;.;.$.;.;.;.5 J.J.J.J.J.J.J.J.J.J.J.J.",
"J.J.J.J.J.J.J.J.J.J.J.J.J.J.J.J.J.J.J.J.  C s J 3 J.J.J.;.*.;.*.&.;.;.K *.&.J.J.J.J.J.J.J.J.J.J.J.J.",
"J.J.J.J.J.J.J.J.J.J.J.J.J.J.J.J.J.J.J.J.J.J.J.J.J.J.J.J.J.;.;.;.;.;.;.&.;.  J.J.J.J.J.J.J.J.J.J.J.J.",
"J.J.J.J.J.J.J.J.J.J.J.J.J.J.J.J.J.J.J.J.J.J.J.J.J.J.J.J.J.J.J.  %.=.  e J.J.J.J.J.J.J.J.J.J.J.J.J.J."
};
